<svg width="20" height="20" viewBox="0 0 20 20" fill="none" xmlns="http://www.w3.org/2000/svg">
<g id="fi_9661715" clip-path="url(#clip0_498_3313)">
<g id="Group">
<path id="Vector" d="M0.880795 6.92971C0.842558 6.92971 0.807265 6.92382 0.771973 6.90912V17.95C0.771973 18.615 1.31316 19.1532 1.97492 19.1532H18.019C18.6867 19.1532 19.2278 18.615 19.2278 17.95V6.90912C19.1925 6.92382 19.1543 6.92971 19.1161 6.92971H0.880795ZM5.19607 17.2759C5.19607 17.4918 5.02137 17.6665 4.80548 17.6665H3.2596C3.04372 17.6665 2.86901 17.4918 2.86901 17.2759V15.7297C2.86901 15.5141 3.04372 15.3391 3.2596 15.3391H4.80548C5.02137 15.3391 5.19607 15.5141 5.19607 15.7297V17.2759ZM5.19607 13.6797C5.19607 13.8956 5.02137 14.0703 4.80548 14.0703H3.2596C3.04372 14.0703 2.86901 13.8956 2.86901 13.6797V12.1335C2.86901 11.918 3.04372 11.7432 3.2596 11.7432H4.80548C5.02137 11.7432 5.19607 11.918 5.19607 12.1335V13.6797ZM5.19607 10.0835C5.19607 10.2994 5.02137 10.4741 4.80548 10.4741H3.2596C3.04372 10.4741 2.86901 10.2994 2.86901 10.0835V8.53736C2.86901 8.32178 3.04372 8.14677 3.2596 8.14677H4.80548C5.02137 8.14677 5.19607 8.32178 5.19607 8.53736V10.0835ZM9.69256 17.2759C9.69256 17.4918 9.51754 17.6665 9.30198 17.6665H7.75578C7.53989 17.6665 7.36519 17.4918 7.36519 17.2759V15.7297C7.36519 15.5141 7.53989 15.3391 7.75578 15.3391H9.30198C9.51754 15.3391 9.69256 15.5141 9.69256 15.7297V17.2759ZM9.69285 13.6797C9.69285 13.8956 9.51786 14.0703 9.30226 14.0703H7.7561C7.54021 14.0703 7.36551 13.8956 7.36551 13.6797V12.1335C7.36551 11.918 7.54021 11.7432 7.7561 11.7432H9.30226C9.51786 11.7432 9.69285 11.918 9.69285 12.1335V13.6797ZM9.69285 10.0835C9.69285 10.2994 9.51786 10.4741 9.30226 10.4741H7.7561C7.54021 10.4741 7.36551 10.2994 7.36551 10.0835V8.53736C7.36551 8.32178 7.54021 8.14677 7.7561 8.14677H9.30226C9.51786 8.14677 9.69285 8.32178 9.69285 8.53736V10.0835ZM17.514 13.8976H15.2552V16.1565H13.4393V13.8976H11.1805V12.0818H13.4393V9.82296H15.2552V12.0818H17.514V13.8976Z" fill="white"/>
<path id="Vector_2" d="M18.019 3.05014H17.0867V4.27662C17.0867 4.89426 16.5837 5.40016 15.9631 5.40016C15.3455 5.40016 14.8396 4.89426 14.8396 4.27662V3.05014H11.122V4.27662C11.122 4.89426 10.619 5.40016 9.99844 5.40016C9.38077 5.40016 8.87489 4.89426 8.87489 4.27662V3.05014H5.15724V4.27662C5.15724 4.89426 4.65431 5.40016 4.03373 5.40016C3.41609 5.40016 2.91018 4.89426 2.91018 4.27662V3.05014H1.9749C1.31314 3.05014 0.771973 3.59134 0.771973 4.259V6.59722C0.771973 6.65897 0.821968 6.70896 0.880795 6.70896H19.1161C19.1778 6.70896 19.2279 6.65897 19.2279 6.59722V4.259C19.2279 3.59134 18.6867 3.05014 18.019 3.05014Z" fill="white"/>
<path id="Vector_3" d="M4.03529 5.17907C4.53527 5.17907 4.93821 4.7732 4.93821 4.27616V1.74967C4.93821 1.49967 4.83822 1.27614 4.6735 1.11145C4.51175 0.946731 4.28528 0.846741 4.03529 0.846741C3.53821 0.846741 3.13232 1.25262 3.13232 1.74967V4.27616C3.13232 4.7732 3.53821 5.17907 4.03529 5.17907Z" fill="white"/>
<path id="Vector_4" d="M9.99964 5.17907C10.4996 5.17907 10.9026 4.7732 10.9026 4.27616V1.74967C10.9026 1.49967 10.8026 1.27614 10.6379 1.11145C10.4761 0.946731 10.2496 0.846741 9.99964 0.846741C9.50256 0.846741 9.09668 1.25262 9.09668 1.74967V4.27616C9.09668 4.7732 9.50256 5.17907 9.99964 5.17907Z" fill="white"/>
<path id="Vector_5" d="M15.9645 5.17907C16.4645 5.17907 16.8674 4.7732 16.8674 4.27616V1.74967C16.8674 1.49967 16.7671 1.27614 16.6027 1.11145C16.441 0.946731 16.2145 0.846741 15.9645 0.846741C15.4674 0.846741 15.0615 1.25262 15.0615 1.74967V4.27616C15.0615 4.7732 15.4674 5.17907 15.9645 5.17907Z" fill="white"/>
</g>
</g>
<defs>
<clipPath id="clip0_498_3313">
<rect width="20" height="20" fill="white"/>
</clipPath>
</defs>
</svg>
