<svg width="25" height="24" viewBox="0 0 25 24" fill="none" xmlns="http://www.w3.org/2000/svg">
<g id="pen-field (1) 2" clip-path="url(#clip0_861_2630)">
<path id="Vector" d="M8.5 12H6.5C5.397 12 4.5 12.897 4.5 14V16C4.5 17.103 5.397 18 6.5 18H8.5C9.603 18 10.5 17.103 10.5 16V14C10.5 12.897 9.603 12 8.5 12ZM6.5 16V14H8.5V16H6.5ZM19.5 2H18.5V1C18.5 0.448 18.053 0 17.5 0C16.947 0 16.5 0.448 16.5 1V2H8.5V1C8.5 0.448 8.053 0 7.5 0C6.947 0 6.5 0.448 6.5 1V2H5.5C2.743 2 0.5 4.243 0.5 7V19C0.5 21.757 2.743 24 5.5 24H19.5C22.257 24 24.5 21.757 24.5 19V7C24.5 4.243 22.257 2 19.5 2ZM5.5 4H19.5C21.154 4 22.5 5.346 22.5 7V8H2.5V7C2.5 5.346 3.846 4 5.5 4ZM19.5 22H5.5C3.846 22 2.5 20.654 2.5 19V10H22.5V19C22.5 20.654 21.154 22 19.5 22Z" fill="#416693"/>
</g>
<defs>
<clipPath id="clip0_861_2630">
<rect width="24" height="24" fill="white" transform="translate(0.5)"/>
</clipPath>
</defs>
</svg>
