<svg width="25" height="24" viewBox="0 0 25 24" fill="none" xmlns="http://www.w3.org/2000/svg">
<g id="pen-field (1) 2" clip-path="url(#clip0_856_2161)">
<path id="Vector" d="M19.5 0H5.5C4.17441 0.00158786 2.90356 0.528882 1.96622 1.46622C1.02888 2.40356 0.501588 3.67441 0.5 5L0.5 19C0.501588 20.3256 1.02888 21.5964 1.96622 22.5338C2.90356 23.4711 4.17441 23.9984 5.5 24H19.5C20.8256 23.9984 22.0964 23.4711 23.0338 22.5338C23.9711 21.5964 24.4984 20.3256 24.5 19V5C24.4984 3.67441 23.9711 2.40356 23.0338 1.46622C22.0964 0.528882 20.8256 0.00158786 19.5 0ZM22.5 19C22.5 19.7956 22.1839 20.5587 21.6213 21.1213C21.0587 21.6839 20.2956 22 19.5 22H5.5C4.70435 22 3.94129 21.6839 3.37868 21.1213C2.81607 20.5587 2.5 19.7956 2.5 19V5C2.5 4.20435 2.81607 3.44129 3.37868 2.87868C3.94129 2.31607 4.70435 2 5.5 2H19.5C20.2956 2 21.0587 2.31607 21.6213 2.87868C22.1839 3.44129 22.5 4.20435 22.5 5V19Z" fill="#416693"/>
<path id="Vector_2" d="M9.83282 15.919L5.91382 12C5.72629 11.8125 5.47198 11.7072 5.20682 11.7072C4.94165 11.7072 4.68735 11.8125 4.49982 12C4.31235 12.1875 4.20703 12.4418 4.20703 12.707C4.20703 12.9722 4.31235 13.2265 4.49982 13.414L8.41882 17.333C8.60455 17.5188 8.82506 17.6662 9.06776 17.7667C9.31047 17.8673 9.57061 17.9191 9.83332 17.9191C10.096 17.9191 10.3562 17.8673 10.5989 17.7667C10.8416 17.6662 11.0621 17.5188 11.2478 17.333L20.4998 8.08099C20.6873 7.89347 20.7926 7.63916 20.7926 7.37399C20.7926 7.10883 20.6873 6.85452 20.4998 6.66699C20.3123 6.47952 20.058 6.37421 19.7928 6.37421C19.5277 6.37421 19.2733 6.47952 19.0858 6.66699L9.83282 15.919Z" fill="#416693"/>
</g>
<defs>
<clipPath id="clip0_856_2161">
<rect width="24" height="24" fill="white" transform="translate(0.5)"/>
</clipPath>
</defs>
</svg>
