<svg width="17" height="17" viewBox="0 0 17 17" fill="none" xmlns="http://www.w3.org/2000/svg">
<path d="M11.6562 1.28125C12.5312 0.40625 13.9375 0.40625 14.8125 1.28125L15.2188 1.6875C16.0938 2.5625 16.0938 3.96875 15.2188 4.84375L9.03125 11.0312C8.78125 11.2812 8.4375 11.5 8.0625 11.5938L4.9375 12.5C4.6875 12.5625 4.40625 12.5 4.21875 12.2812C4 12.0938 3.9375 11.8125 4 11.5625L4.90625 8.4375C5 8.0625 5.21875 7.71875 5.46875 7.46875L11.6562 1.28125ZM13.75 2.34375C13.4688 2.0625 13 2.0625 12.7188 2.34375L11.7812 3.25L13.25 4.71875L14.1562 3.78125C14.4375 3.5 14.4375 3.03125 14.1562 2.75L13.75 2.34375ZM6.34375 8.84375L5.8125 10.6875L7.65625 10.1562C7.78125 10.125 7.875 10.0625 7.96875 9.96875L12.1875 5.75L10.75 4.3125L6.53125 8.53125C6.4375 8.625 6.375 8.71875 6.34375 8.84375ZM6.25 2.5C6.65625 2.5 7 2.84375 7 3.25C7 3.6875 6.65625 4 6.25 4H2.75C2.03125 4 1.5 4.5625 1.5 5.25V13.75C1.5 14.4688 2.03125 15 2.75 15H11.25C11.9375 15 12.5 14.4688 12.5 13.75V10.25C12.5 9.84375 12.8125 9.5 13.25 9.5C13.6562 9.5 14 9.84375 14 10.25V13.75C14 15.2812 12.75 16.5 11.25 16.5H2.75C1.21875 16.5 0 15.2812 0 13.75V5.25C0 3.75 1.21875 2.5 2.75 2.5H6.25Z" fill="#090914"/>
</svg>
