<svg width="12" height="12" viewBox="0 0 12 12" fill="none" xmlns="http://www.w3.org/2000/svg">
<g id="fi_2976286" clip-path="url(#clip0_498_3741)">
<g id="Group">
<g id="close_1_">
<path id="Vector" d="M1.13754 11.9248C0.843336 11.9419 0.553996 11.8441 0.330533 11.652C-0.110178 11.2087 -0.110178 10.4927 0.330533 10.0493L9.98066 0.399183C10.439 -0.0297372 11.1583 -0.00589375 11.5872 0.452485C11.9751 0.866994 11.9977 1.5041 11.6402 1.94504L1.93317 11.652C1.71259 11.8414 1.42789 11.939 1.13754 11.9248Z" fill="#6F7C81"/>
<path id="Vector_2" d="M10.7768 11.9248C10.4786 11.9236 10.1928 11.8052 9.98109 11.5952L0.33093 1.94503C-0.0773661 1.46823 -0.0218561 0.750684 0.454938 0.342351C0.88049 -0.022076 1.50809 -0.022076 1.93361 0.342351L11.6406 9.99252C12.0989 10.4215 12.1226 11.1409 11.6935 11.5991C11.6765 11.6174 11.6588 11.635 11.6406 11.6521C11.4029 11.8587 11.0901 11.9575 10.7768 11.9248Z" fill="#6F7C81"/>
</g>
</g>
</g>
<defs>
<clipPath id="clip0_498_3741">
<rect width="12" height="12" fill="white"/>
</clipPath>
</defs>
</svg>
