<svg width="20" height="20" viewBox="0 0 20 20" fill="none" xmlns="http://www.w3.org/2000/svg">
<g id="cross-small 1">
<path id="Vector" d="M14.9998 5C14.8436 4.84377 14.6317 4.75601 14.4107 4.75601C14.1897 4.75601 13.9778 4.84377 13.8215 5L9.99985 8.82167L6.17818 5C6.02191 4.84377 5.80998 4.75601 5.58901 4.75601C5.36804 4.75601 5.15612 4.84377 4.99985 5C4.84362 5.15627 4.75586 5.3682 4.75586 5.58917C4.75586 5.81014 4.84362 6.02206 4.99985 6.17833L8.82152 10L4.99985 13.8217C4.84362 13.9779 4.75586 14.1899 4.75586 14.4108C4.75586 14.6318 4.84362 14.8437 4.99985 15C5.15612 15.1562 5.36804 15.244 5.58901 15.244C5.80998 15.244 6.02191 15.1562 6.17818 15L9.99985 11.1783L13.8215 15C13.9778 15.1562 14.1897 15.244 14.4107 15.244C14.6317 15.244 14.8436 15.1562 14.9998 15C15.1561 14.8437 15.2438 14.6318 15.2438 14.4108C15.2438 14.1899 15.1561 13.9779 14.9998 13.8217L11.1782 10L14.9998 6.17833C15.1561 6.02206 15.2438 5.81014 15.2438 5.58917C15.2438 5.3682 15.1561 5.15627 14.9998 5Z" fill="#416693"/>
</g>
</svg>
