<svg width="24" height="25" viewBox="0 0 24 25" fill="none" xmlns="http://www.w3.org/2000/svg">
<path d="M4.5 7.49999H6.16667M6.16667 7.49999H19.5M6.16667 7.49999V19.1667C6.16667 19.6087 6.34226 20.0326 6.65482 20.3452C6.96738 20.6577 7.39131 20.8333 7.83333 20.8333H16.1667C16.6087 20.8333 17.0326 20.6577 17.3452 20.3452C17.6577 20.0326 17.8333 19.6087 17.8333 19.1667V7.49999H6.16667ZM8.66667 7.49999V5.83332C8.66667 5.3913 8.84226 4.96737 9.15482 4.65481C9.46738 4.34225 9.89131 4.16666 10.3333 4.16666H13.6667C14.1087 4.16666 14.5326 4.34225 14.8452 4.65481C15.1577 4.96737 15.3333 5.3913 15.3333 5.83332V7.49999M10.3333 11.6667V16.6667M13.6667 11.6667V16.6667" stroke="#6F7C81" stroke-width="1.66667" stroke-linecap="round" stroke-linejoin="round"/>
</svg>
