<svg width="25" height="24" viewBox="0 0 25 24" fill="none" xmlns="http://www.w3.org/2000/svg">
<g id="pen-field (1) 2" clip-path="url(#clip0_856_2650)">
<path id="Vector" d="M7.5 10C7.5 10.552 7.053 11 6.5 11H1.5C0.947 11 0.5 10.552 0.5 10C0.5 9.448 0.947 9 1.5 9H6.5C7.053 9 7.5 9.448 7.5 10ZM6.5 13H1.5C0.947 13 0.5 13.448 0.5 14C0.5 14.552 0.947 15 1.5 15H6.5C7.053 15 7.5 14.552 7.5 14C7.5 13.448 7.053 13 6.5 13ZM15 9H10C9.447 9 9 9.448 9 10C9 10.552 9.447 11 10 11H15C15.553 11 16 10.552 16 10C16 9.448 15.553 9 15 9ZM15 13H10C9.447 13 9 13.448 9 14C9 14.552 9.447 15 10 15H15C15.553 15 16 14.552 16 14C16 13.448 15.553 13 15 13ZM23.5 9H18.5C17.947 9 17.5 9.448 17.5 10C17.5 10.552 17.947 11 18.5 11H23.5C24.053 11 24.5 10.552 24.5 10C24.5 9.448 24.053 9 23.5 9ZM23.5 13H18.5C17.947 13 17.5 13.448 17.5 14C17.5 14.552 17.947 15 18.5 15H23.5C24.053 15 24.5 14.552 24.5 14C24.5 13.448 24.053 13 23.5 13ZM6.5 17H1.5C0.947 17 0.5 17.448 0.5 18C0.5 18.552 0.947 19 1.5 19H6.5C7.053 19 7.5 18.552 7.5 18C7.5 17.448 7.053 17 6.5 17ZM15 17H10C9.447 17 9 17.448 9 18C9 18.552 9.447 19 10 19H15C15.553 19 16 18.552 16 18C16 17.448 15.553 17 15 17ZM23.5 17H18.5C17.947 17 17.5 17.448 17.5 18C17.5 18.552 17.947 19 18.5 19H23.5C24.053 19 24.5 18.552 24.5 18C24.5 17.448 24.053 17 23.5 17ZM6.5 21H1.5C0.947 21 0.5 21.448 0.5 22C0.5 22.552 0.947 23 1.5 23H6.5C7.053 23 7.5 22.552 7.5 22C7.5 21.448 7.053 21 6.5 21ZM15 21H10C9.447 21 9 21.448 9 22C9 22.552 9.447 23 10 23H15C15.553 23 16 22.552 16 22C16 21.448 15.553 21 15 21ZM23.5 21H18.5C17.947 21 17.5 21.448 17.5 22C17.5 22.552 17.947 23 18.5 23H23.5C24.053 23 24.5 22.552 24.5 22C24.5 21.448 24.053 21 23.5 21ZM16 3.5C16 5.43 14.43 7 12.5 7C10.57 7 9 5.43 9 3.5C9 1.57 10.57 0 12.5 0C14.43 0 16 1.57 16 3.5ZM14 3.5C14 2.673 13.327 2 12.5 2C11.673 2 11 2.673 11 3.5C11 4.327 11.673 5 12.5 5C13.327 5 14 4.327 14 3.5ZM7.5 3.5C7.5 5.43 5.93 7 4 7C2.07 7 0.5 5.43 0.5 3.5C0.5 1.57 2.07 0 4 0C5.93 0 7.5 1.57 7.5 3.5ZM5.5 3.5C5.5 2.673 4.827 2 4 2C3.173 2 2.5 2.673 2.5 3.5C2.5 4.327 3.173 5 4 5C4.827 5 5.5 4.327 5.5 3.5ZM17.5 3.5C17.5 1.57 19.07 0 21 0C22.93 0 24.5 1.57 24.5 3.5C24.5 5.43 22.93 7 21 7C19.07 7 17.5 5.43 17.5 3.5ZM19.5 3.5C19.5 4.327 20.173 5 21 5C21.827 5 22.5 4.327 22.5 3.5C22.5 2.673 21.827 2 21 2C20.173 2 19.5 2.673 19.5 3.5Z" fill="#416693"/>
</g>
<defs>
<clipPath id="clip0_856_2650">
<rect width="24" height="24" fill="white" transform="translate(0.5)"/>
</clipPath>
</defs>
</svg>
