<svg width="111" height="140" viewBox="0 0 111 140" fill="none" xmlns="http://www.w3.org/2000/svg">
<g id="vector_16274 1" clip-path="url(#clip0_498_4386)">
<g id="g10">
<g id="g12">
<g id="g18">
<path id="path20" d="M77.1186 33.4084H102.015C102.015 32.5417 101.921 31.697 101.743 30.8834C101.286 28.7972 100.273 26.9185 98.8666 25.4109C98.7724 25.3095 98.6765 25.2098 98.5786 25.112C96.4559 22.9892 93.5222 21.6764 90.2832 21.6764H25.0837C20.8072 21.6764 17.0647 23.9647 15.0147 27.3838C13.9587 29.1445 13.3516 31.2052 13.3516 33.4084H48.4026H77.1186Z" fill="#F04141"/>
</g>
<g id="g22">
<path id="path24" d="M67.1989 14.3542H68.3728V9.85234C68.3728 7.7964 67.3119 5.98744 65.7069 4.94547C64.7909 4.35049 63.699 4.0045 62.525 4.0045H61.2H52.8418C49.6124 4.0045 46.9943 6.62243 46.9943 9.85234V14.3542H47.4262H67.1989Z" fill="#F04141"/>
</g>
<g id="g26">
<path id="path28" d="M38.1782 118.321C38.0851 118.328 37.9904 118.331 37.897 118.331C36.9748 118.331 36.0928 117.986 35.4136 117.359C34.7304 116.729 34.3151 115.871 34.2445 114.944L29.9032 57.9931V57.9922L29.3983 51.3672C29.3939 51.3115 29.391 51.2557 29.3892 51.1991C29.3608 50.2825 29.671 49.4017 30.2719 48.7012C30.9097 47.958 31.7986 47.5085 32.7746 47.4335C34.7904 47.2811 36.5545 48.7953 36.7083 50.8105L37.1848 57.0617L39.3674 85.6952V85.6955L40.4663 100.105V100.106L41.5544 114.387C41.632 115.404 41.2852 116.356 40.6632 117.07C40.0528 117.772 39.1768 118.245 38.1782 118.321ZM54.0176 50.9969C54.0176 48.9757 55.6626 47.3307 57.6838 47.3307C58.8295 47.3307 59.8541 47.8596 60.5267 48.6855C61.0408 49.3163 61.3492 50.1213 61.3492 50.9969V114.758C61.3492 115.26 61.2481 115.74 61.0634 116.176C60.5084 117.495 59.2024 118.423 57.6838 118.423C55.6626 118.423 54.0176 116.779 54.0176 114.758V50.9969ZM73.8124 114.387L78.2479 56.2027V56.2009L78.6591 50.8105C78.7332 49.8338 79.1836 48.9452 79.9259 48.3074C80.2396 48.0382 80.5898 47.8273 80.9636 47.6792C81.3992 47.5059 81.8679 47.4187 82.3462 47.4231C82.4281 47.424 82.51 47.4275 82.5928 47.4335C83.5686 47.5085 84.4573 47.958 85.095 48.7012C85.2057 48.8302 85.3059 48.9643 85.3965 49.1037V49.1046C85.8286 49.7729 86.0307 50.5605 85.9689 51.3672L85.5864 56.3847L83.4039 85.014V85.0175L82.3053 99.4273V99.4293L81.1613 114.44V114.44L81.123 114.944C81.0524 115.871 80.6368 116.729 79.9538 117.359C79.2742 117.986 78.3925 118.331 77.4699 118.331C77.3775 118.331 77.2826 118.328 77.1893 118.321C75.1741 118.167 73.659 116.402 73.8124 114.387ZM20.3537 40.7293L20.5494 43.6236L21.5767 58.8129L23.514 87.4626L25.368 114.883L25.3683 114.887C25.6213 118.961 28.127 122.404 31.6241 124.026C33.0057 124.668 34.5424 125.025 36.1557 125.025H53.0845H79.2115C82.3671 125.025 85.2283 123.659 87.2139 121.473C88.8118 119.713 89.8416 117.422 89.9993 114.887V114.879L93.9661 56.2122L95.0133 40.7293H48.778H20.3537Z" fill="#F04141"/>
</g>
<g id="g30">
<path id="path32" d="M102.703 30.785L102.404 27.8712C102.202 25.9038 101.62 24.0336 100.675 22.3112C99.7619 20.6495 98.55 19.1983 97.0744 17.9967C95.5989 16.796 93.9326 15.9049 92.1194 15.3476C90.2418 14.7716 88.2921 14.5808 86.3247 14.7828L21.4648 21.4322C19.4974 21.6333 17.6266 22.2158 15.9046 23.1612C14.2429 24.0738 12.7915 25.2857 11.5903 26.7603C10.3889 28.2368 9.49774 29.9041 8.94109 31.7163C8.36442 33.594 8.17403 35.5436 8.37583 37.511L8.67459 40.4248L11.5878 40.1255L77.1188 33.4079H48.4022L11.2892 37.2127C10.8967 33.3873 12.3891 29.8031 15.0149 27.3831C16.8133 25.7252 19.1434 24.6143 21.7635 24.345L47.8019 21.6763L86.623 17.6956C92.1054 17.1336 97.0922 20.4419 98.867 25.4101C100.272 26.9184 101.286 28.797 101.743 30.8831L102.703 30.785Z" fill="#333333"/>
</g>
<g id="g34">
<path id="path36" d="M39.8995 15.1266L40.1982 18.0399L43.1115 17.7405L64.379 15.5602L67.2922 15.2619L67.1989 14.3547H47.4263L42.8128 14.8273L42.3536 10.3488C42.0245 7.1362 44.3617 4.26498 47.5744 3.93491L57.2076 2.94777C58.6806 2.79605 60.0829 3.20608 61.2002 4.00461H62.5257C63.6983 4.00461 64.7911 4.35007 65.7065 4.94563C65.6408 4.8093 65.5711 4.67399 65.4984 4.54073C64.952 3.54641 64.2273 2.67715 63.3447 1.95857C62.4611 1.24 61.4637 0.705935 60.3781 0.372787C59.2536 0.027338 58.0861 -0.0864449 56.9083 0.0345135L47.2757 1.02165C46.0984 1.14261 44.9785 1.49114 43.9471 2.05801C42.9523 2.60437 42.0833 3.32909 41.3646 4.21167C40.6457 5.09529 40.1124 6.09268 39.7791 7.17823C39.4336 8.30273 39.3196 9.47028 39.4403 10.6471L39.8995 15.1266Z" fill="#333333"/>
</g>
<g id="g38">
<path id="path40" d="M87.2138 121.473C85.2283 123.659 82.3673 125.025 79.2119 125.025H53.0846L43.3183 126.027C41.2768 126.236 39.3003 125.858 37.5634 125.025C34.4781 123.547 32.1484 120.637 31.5528 117.042L31.5521 117.038L21.5768 58.8137L19.0014 43.782L20.5496 43.6236L20.3539 40.7295H48.7779L93.2714 36.1677L93.4298 40.7295L93.966 56.2123L95.8459 110.442V110.45C96.0607 115.779 92.3395 120.426 87.2138 121.473ZM96.1064 33.4079L96.0902 32.9352L91.4765 33.4079L15.5859 41.1887L23.5142 87.4628L28.6643 117.523C29.0656 119.942 30.0908 122.175 31.6242 124.027C32.2843 124.824 33.0387 125.551 33.8781 126.192C36.6669 128.322 40.1255 129.298 43.6164 128.94L86.4475 124.549C89.9386 124.191 93.1272 122.534 95.426 119.882C97.7239 117.231 98.9127 113.841 98.7731 110.336L96.1064 33.4079Z" fill="#333333"/>
</g>
<g id="g42">
<path id="path44" d="M63.7614 114.35C63.3572 114.392 62.9945 114.096 62.953 113.692L56.4505 50.2639C56.409 49.8597 56.7044 49.497 57.1086 49.4556C57.5128 49.4141 57.8755 49.7095 57.9169 50.1137L64.4195 113.542C64.4609 113.946 64.1656 114.309 63.7614 114.35ZM60.8299 49.8146C60.6241 47.804 58.8208 46.3361 56.8095 46.5426C54.7989 46.7484 53.331 48.5517 53.5368 50.5623L60.04 113.991C60.2458 116.002 62.0499 117.47 64.0597 117.264C66.071 117.058 67.539 115.254 67.3324 113.243L60.8299 49.8146Z" fill="#333333"/>
</g>
<g id="g46">
<path id="path48" d="M40.4662 100.106V100.105L31.9657 52.9231C31.9186 52.6621 32.0208 52.4656 32.0861 52.3721C32.1506 52.2786 32.2992 52.114 32.5602 52.0676C32.5791 52.064 32.5979 52.0611 32.616 52.0596C32.9952 52.0205 33.3475 52.2807 33.4164 52.6621L39.3671 85.6955L37.1849 57.062V57.0613L36.2982 52.1423C35.9401 50.1536 34.0305 48.8269 32.0411 49.185C31.0776 49.359 30.2395 49.897 29.6806 50.701C29.5696 50.8605 29.4725 51.0272 29.3891 51.1991C29.0527 51.8922 28.9447 52.6701 29.0832 53.4422L29.9031 57.9922V57.9929L40.3879 116.193C40.443 116.499 40.5358 116.793 40.6627 117.07C41.2847 116.356 41.632 115.404 41.5544 114.387L40.4662 100.106Z" fill="#333333"/>
</g>
<g id="g50">
<path id="path52" d="M85.5869 56.3847L85.3969 49.1043C85.3064 48.9645 85.2061 48.8305 85.0959 48.7013C84.4578 47.9587 83.5688 47.5081 82.5926 47.4341C82.5104 47.4275 82.4282 47.4242 82.3467 47.4234C82.392 47.5097 82.4282 47.6175 82.4314 47.7499L83.4043 85.0141V85.0176L84.0951 111.489C84.105 111.872 83.8155 112.202 83.4356 112.241C83.4166 112.243 83.3969 112.244 83.3772 112.244C82.9709 112.255 82.6321 111.933 82.6214 111.527L82.3056 99.4294V99.4274L80.9586 47.7877C80.9578 47.7499 80.9594 47.7137 80.9635 47.6791C80.5902 47.8272 80.2398 48.0385 79.9265 48.3074C79.1839 48.9456 78.7332 49.8346 78.6592 50.8107L78.248 56.2014V56.2022L79.6938 111.603C79.7242 112.767 80.2958 113.791 81.1617 114.44V114.44C81.799 114.919 82.5967 115.194 83.4536 115.172C83.5474 115.17 83.6411 115.164 83.7341 115.154C84.6518 115.06 85.4939 114.627 86.1058 113.934C86.7209 113.237 87.0466 112.342 87.0219 111.412L85.5869 56.3847Z" fill="#333333"/>
</g>
<g id="g54">
<path id="path56" d="M8.64706 84.3135L6.70169 86.2588C6.29182 86.6687 6.29182 87.333 6.70169 87.7428C7.11106 88.1522 7.77532 88.1522 8.18519 87.7428L10.1311 85.797C10.5404 85.3871 10.5404 84.7228 10.1311 84.3135C9.7212 83.9036 9.05694 83.9036 8.64706 84.3135Z" fill="#333333"/>
</g>
<g id="g58">
<path id="path60" d="M16.8975 76.0631L14.9518 78.0088C14.5421 78.4185 14.5421 79.0826 14.9518 79.4928C15.3614 79.9025 16.0261 79.9025 16.4357 79.4928L18.3815 77.5471C18.7911 77.1374 18.7911 76.4728 18.3815 76.0631C17.9718 75.6534 17.3072 75.6534 16.8975 76.0631Z" fill="#333333"/>
</g>
<g id="g62">
<path id="path64" d="M16.4352 84.3135C16.0253 83.9036 15.3611 83.9036 14.9512 84.3135C14.5413 84.7228 14.5413 85.3871 14.9512 85.797L16.8971 87.7428C17.307 88.1522 17.9712 88.1522 18.3811 87.7428C18.7905 87.333 18.7905 86.6687 18.3811 86.2588L16.4352 84.3135Z" fill="#333333"/>
</g>
<g id="g66">
<path id="path68" d="M8.18572 76.0631C7.77573 75.6534 7.11153 75.6534 6.70182 76.0631C6.2921 76.4728 6.2921 77.1374 6.70182 77.5471L8.64755 79.4928C9.05738 79.9025 9.72146 79.9025 10.1311 79.4928C10.5408 79.0831 10.5408 78.4185 10.1311 78.0088L8.18572 76.0631Z" fill="#333333"/>
</g>
<g id="g70">
<path id="path72" d="M41.9817 136.949L40.6076 138.323C40.3183 138.613 40.3183 139.082 40.6076 139.371C40.8968 139.661 41.3661 139.661 41.6554 139.371L43.0301 137.997C43.3194 137.707 43.3194 137.238 43.0301 136.949C42.7409 136.659 42.271 136.659 41.9817 136.949Z" fill="#333333"/>
</g>
<g id="g74">
<path id="path76" d="M47.8102 131.121L46.4358 132.496C46.1462 132.785 46.1462 133.254 46.4358 133.544C46.7248 133.833 47.1938 133.833 47.4834 133.544L48.8578 132.169C49.1474 131.88 49.1474 131.411 48.8578 131.121C48.5681 130.832 48.0992 130.832 47.8102 131.121Z" fill="#333333"/>
</g>
<g id="g78">
<path id="path80" d="M47.4834 136.949C47.1938 136.659 46.7248 136.659 46.4358 136.949C46.1462 137.238 46.1462 137.707 46.4358 137.997L47.8102 139.371C48.0992 139.661 48.5681 139.661 48.8578 139.371C49.1474 139.082 49.1474 138.612 48.8578 138.323L47.4834 136.949Z" fill="#333333"/>
</g>
<g id="g82">
<path id="path84" d="M41.6554 131.121C41.3661 130.832 40.8968 130.832 40.6076 131.121C40.3183 131.411 40.3183 131.88 40.6076 132.169L41.9817 133.544C42.271 133.833 42.7409 133.833 43.0301 133.544C43.3194 133.254 43.3194 132.785 43.0301 132.496L41.6554 131.121Z" fill="#333333"/>
</g>
<g id="g86">
<path id="path88" d="M98.9385 17.4009L100.313 16.0264C100.602 15.7376 100.602 15.2686 100.313 14.9789C100.023 14.6892 99.5543 14.6892 99.2646 14.9789L97.8901 16.3525C97.6004 16.6422 97.6004 17.1122 97.8901 17.4009C98.1798 17.6906 98.6488 17.6906 98.9385 17.4009Z" fill="#333333"/>
</g>
<g id="g90">
<path id="path92" d="M105.092 9.15117L103.718 10.5259C103.427 10.815 103.427 11.2846 103.718 11.5737C104.007 11.8628 104.476 11.8628 104.765 11.5737L106.14 10.1999C106.429 9.90985 106.429 9.44029 106.14 9.15117C105.85 8.86206 105.381 8.86206 105.092 9.15117Z" fill="#333333"/>
</g>
<g id="g94">
<path id="path96" d="M104.766 14.9793C104.476 14.6894 104.006 14.6894 103.717 14.9793C103.428 15.2683 103.428 15.738 103.717 16.0269L105.092 17.4012C105.381 17.6911 105.85 17.6911 106.139 17.4012C106.429 17.1122 106.429 16.6425 106.139 16.3536L104.766 14.9793Z" fill="#333333"/>
</g>
<g id="g98">
<path id="path100" d="M99.2654 11.5737C99.5545 11.8628 100.024 11.8628 100.313 11.5737C100.603 11.2846 100.603 10.815 100.313 10.5259L98.9394 9.15117C98.6493 8.86206 98.1807 8.86206 97.8907 9.15117C97.6016 9.44029 97.6016 9.90985 97.8907 10.1999L99.2654 11.5737Z" fill="#333333"/>
</g>
<g id="g102">
<path id="path104" d="M102.179 94.0944L100.804 95.4688C100.515 95.7584 100.515 96.2276 100.804 96.5169C101.094 96.8066 101.563 96.8066 101.852 96.5169L103.227 95.1426C103.516 94.8532 103.516 94.384 103.227 94.0944C102.937 93.805 102.468 93.805 102.179 94.0944Z" fill="#333333"/>
</g>
<g id="g106">
<path id="path108" d="M107.68 90.6896L109.054 89.3153C109.344 89.0256 109.344 88.5565 109.054 88.2671C108.765 87.9775 108.295 87.9775 108.007 88.2671L106.632 89.6415C106.343 89.9309 106.343 90.4 106.632 90.6896C106.921 90.979 107.391 90.979 107.68 90.6896Z" fill="#333333"/>
</g>
<g id="g110">
<path id="path112" d="M107.68 94.0944C107.391 93.805 106.921 93.805 106.632 94.0944C106.343 94.384 106.343 94.8532 106.632 95.1425L108.007 96.5169C108.295 96.8065 108.765 96.8065 109.054 96.5169C109.344 96.2276 109.344 95.7584 109.054 95.4688L107.68 94.0944Z" fill="#333333"/>
</g>
<g id="g114">
<path id="path116" d="M101.852 88.2671C101.563 87.9775 101.094 87.9775 100.804 88.2671C100.515 88.5565 100.515 89.0256 100.804 89.3153L102.179 90.6896C102.468 90.979 102.937 90.979 103.227 90.6896C103.516 90.4 103.516 89.9309 103.227 89.6416L101.852 88.2671Z" fill="#333333"/>
</g>
<g id="g118">
<path id="path120" d="M25.948 14.488L27.3223 13.1128C27.6117 12.8243 27.6117 12.3548 27.3223 12.0653C27.0327 11.7758 26.5635 11.7758 26.2742 12.0653L24.8999 13.4395C24.6102 13.729 24.6102 14.1985 24.8999 14.488C25.1892 14.7775 25.6584 14.7775 25.948 14.488Z" fill="#333333"/>
</g>
<g id="g122">
<path id="path124" d="M31.7751 8.66049L33.1494 7.28612C33.439 6.99662 33.439 6.52729 33.1494 6.23779C32.86 5.94829 32.3909 5.94829 32.1013 6.23779L30.7269 7.61217C30.4375 7.90167 30.4375 8.37099 30.7269 8.66049C31.0165 8.94998 31.4857 8.94998 31.7751 8.66049Z" fill="#333333"/>
</g>
<g id="g126">
<path id="path128" d="M32.1013 14.488C32.3909 14.7775 32.8601 14.7775 33.1494 14.488C33.4391 14.1985 33.4391 13.729 33.1494 13.4395L31.775 12.0654C31.4857 11.7759 31.0165 11.7759 30.7269 12.0654C30.4375 12.3549 30.4375 12.8243 30.7269 13.1129L32.1013 14.488Z" fill="#333333"/>
</g>
<g id="g130">
<path id="path132" d="M26.2739 8.66049C26.5632 8.94998 27.0325 8.94998 27.3221 8.66049C27.6115 8.37099 27.6115 7.90167 27.3221 7.61217L25.9477 6.23779C25.6581 5.94829 25.1889 5.94829 24.8996 6.23779C24.61 6.52729 24.61 6.99662 24.8996 7.28612L26.2739 8.66049Z" fill="#333333"/>
</g>
<g id="g134">
<path id="path136" d="M12.8517 53.3174C13.3419 53.2315 13.7698 52.9591 14.0559 52.5513C14.342 52.1442 14.4527 51.649 14.3678 51.1589L14.3667 51.1523L14.1614 49.9893C13.9819 48.9741 13.0107 48.2947 11.9963 48.4738C11.506 48.5605 11.0782 48.8328 10.792 49.2399C10.5059 49.6478 10.3949 50.1422 10.4801 50.6331L10.4813 50.6396L10.6866 51.8027C10.7065 51.9155 10.737 52.0277 10.7771 52.134C11.0925 52.9766 11.965 53.4747 12.8517 53.3174Z" fill="#333333"/>
</g>
<g id="g138">
<path id="path140" d="M9.60316 45.6425C9.62337 45.7558 9.65353 45.8668 9.69364 45.974C10.0091 46.8168 10.8817 47.3143 11.7682 47.1582C12.2588 47.0717 12.6867 46.7992 12.9728 46.3912C13.2589 45.9839 13.3696 45.4894 13.2847 44.9988L13.2835 44.9919L13.0782 43.8291C12.9916 43.3377 12.7186 42.909 12.3094 42.6235C11.9007 42.3364 11.4046 42.227 10.9131 42.3142C9.90162 42.4926 9.22126 43.4609 9.39671 44.4729L9.39786 44.4798L9.60316 45.6425Z" fill="#333333"/>
</g>
<g id="g142">
<path id="path144" d="M16.0233 71.8106C16.5133 71.7239 16.9412 71.4516 17.2277 71.0439C17.5136 70.6363 17.6242 70.1414 17.5394 69.6514L17.5381 69.6446L17.3328 68.4814C17.1533 67.467 16.1819 66.787 15.1675 66.9666C14.1565 67.1449 13.4761 68.1132 13.6516 69.1258L13.6528 69.1319L13.8581 70.2951C13.878 70.4082 13.9084 70.5195 13.9485 70.6265C14.2639 71.4688 15.1361 71.9668 16.0233 71.8106Z" fill="#333333"/>
</g>
<g id="g146">
<path id="path148" d="M14.9402 65.6506C15.4308 65.5639 15.8587 65.2913 16.1448 64.8838C16.4309 64.4763 16.5416 63.982 16.4567 63.4911L16.4555 63.4845L16.2502 62.3213C16.1635 61.8304 15.8906 61.402 15.4815 61.1157C15.0726 60.8295 14.5769 60.7193 14.0851 60.806C13.0736 60.9847 12.3936 61.9536 12.5687 62.9655L12.5699 62.9721L12.7752 64.1346C12.7954 64.2481 12.8258 64.3596 12.8657 64.4665C13.1811 65.3089 14.0538 65.8071 14.9402 65.6506Z" fill="#333333"/>
</g>
<g id="g150">
<path id="path152" d="M13.8573 59.4906C14.8688 59.3118 15.5491 58.3432 15.3737 57.3318L15.3725 57.3249L15.1672 56.1616C14.9877 55.1474 14.0166 54.4674 13.0021 54.6469C11.9906 54.825 11.3103 55.7936 11.4858 56.8057L11.4869 56.8126L11.6922 57.9752C11.7124 58.0884 11.7426 58.2003 11.7827 58.3066C12.0981 59.1496 12.9705 59.6473 13.8573 59.4906Z" fill="#333333"/>
</g>
<g id="g154">
<path id="path156" d="M68.6835 128.689C68.297 128.375 67.8111 128.23 67.316 128.281L67.3096 128.281L66.135 128.406C65.1104 128.514 64.3652 129.436 64.4731 130.46C64.5252 130.956 64.7675 131.401 65.154 131.715C65.5412 132.029 66.0264 132.174 66.5215 132.123L66.5286 132.122L67.7025 131.998C67.8175 131.986 67.9304 131.963 68.0405 131.931C68.9021 131.674 69.4594 130.839 69.3651 129.943C69.3122 129.448 69.0707 129.002 68.6835 128.689Z" fill="#333333"/>
</g>
<g id="g158">
<path id="path160" d="M62.4637 129.342C62.0768 129.028 61.5912 128.883 61.0962 128.934L61.0894 128.935L59.9147 129.059C59.4182 129.111 58.9725 129.354 58.6587 129.742C58.3449 130.13 58.2002 130.617 58.2529 131.114C58.3612 132.135 59.2803 132.881 60.3015 132.776L60.3083 132.775L61.483 132.651C61.5973 132.639 61.7109 132.616 61.8198 132.584C62.6821 132.328 63.2394 131.492 63.1447 130.596C63.0927 130.101 62.8505 129.655 62.4637 129.342Z" fill="#333333"/>
</g>
<g id="g162">
<path id="path164" d="M87.352 126.807C86.9656 126.493 86.4798 126.348 85.9841 126.399L85.9775 126.4L84.8036 126.524C83.7781 126.633 83.0328 127.554 83.1414 128.579C83.2492 129.6 84.1686 130.346 85.1899 130.241L85.1965 130.24L86.3712 130.116C86.4856 130.104 86.5992 130.082 86.7086 130.049C87.5708 129.793 88.1279 128.957 88.0334 128.061C87.9812 127.566 87.7391 127.12 87.352 126.807Z" fill="#333333"/>
</g>
<g id="g166">
<path id="path168" d="M81.1321 127.46C80.7453 127.146 80.2598 127.002 79.7647 127.052L79.7584 127.053L78.584 127.177C78.0873 127.23 77.6413 127.472 77.3273 127.86C77.0133 128.248 76.8694 128.736 76.9216 129.232C77.03 130.253 77.9489 130.999 78.9707 130.894L78.977 130.894L80.1514 130.77C80.2661 130.757 80.3792 130.735 80.4883 130.702C81.3511 130.446 81.9079 129.61 81.813 128.715C81.7608 128.219 81.5196 127.774 81.1321 127.46Z" fill="#333333"/>
</g>
<g id="g170">
<path id="path172" d="M73.5448 127.705L73.538 127.706L72.3638 127.83C71.3387 127.939 70.5935 128.861 70.7019 129.885C70.8103 130.907 71.7293 131.652 72.7507 131.548L72.7575 131.547L73.9317 131.423C74.0461 131.411 74.1597 131.388 74.2689 131.356C75.1314 131.099 75.6884 130.263 75.5936 129.368C75.486 128.346 74.5662 127.601 73.5448 127.705Z" fill="#333333"/>
</g>
</g>
</g>
</g>
<defs>
<clipPath id="clip0_498_4386">
<rect width="111" height="140" fill="white"/>
</clipPath>
</defs>
</svg>
