<svg width="316" height="186" viewBox="0 0 316 186" fill="none" xmlns="http://www.w3.org/2000/svg">
<path d="M92.6437 28.106L45.3682 59.4789L91.9321 128.54L139.208 97.1666L92.6437 28.106Z" fill="#F5F5F5"/>
<path d="M114.78 93.8975L114.243 97.1918L90.7416 93.8331L91.278 90.5389L114.78 93.8975Z" fill="#E0E0E0"/>
<path d="M102.944 82.1463L106.316 82.6287L102.577 105.584L99.2045 105.102L102.944 82.1463Z" fill="#E0E0E0"/>
<path d="M81.2969 52.9694C81.3306 53.0196 76.5927 56.2219 70.7164 60.1214C64.8379 64.0222 60.0465 67.1429 60.0128 67.0928C59.9791 67.043 64.7157 63.8412 70.5946 59.9404C76.4709 56.0409 81.2632 52.9197 81.2969 52.9694Z" fill="#E0E0E0"/>
<path d="M98.6829 48.6398C98.7166 48.6899 90.8381 53.9764 81.0884 60.4458C71.335 66.9176 63.4038 72.1222 63.3701 72.072C63.3364 72.0223 71.2132 66.7367 80.9662 60.2648C90.7159 53.7954 98.6492 48.59 98.6829 48.6398Z" fill="#E0E0E0"/>
<path d="M102.168 53.8088C102.201 53.8589 94.3229 59.1454 84.5733 65.6148C74.8198 72.0866 66.8887 77.2912 66.855 77.241C66.8213 77.1908 74.6981 71.9057 84.4511 65.4338C94.2012 58.9644 102.134 53.759 102.168 53.8088Z" fill="#E0E0E0"/>
<path d="M105.653 58.9781C105.686 59.0283 97.8078 64.3148 88.0581 70.7841C78.3047 77.256 70.3735 82.4605 70.3398 82.4104C70.3061 82.3606 78.1829 77.075 87.9359 70.6031C97.686 64.1333 105.619 58.928 105.653 58.9781Z" fill="#E0E0E0"/>
<path d="M109.138 64.1471C109.172 64.1973 101.293 69.4833 91.5435 75.9531C81.7901 82.425 73.8589 87.6296 73.8252 87.5794C73.7915 87.5292 81.6683 82.244 91.4213 75.7721C101.171 69.3028 109.104 64.0974 109.138 64.1471Z" fill="#E0E0E0"/>
<path d="M250.726 74.3838L211.023 100.732L250.129 158.731L289.832 132.383L250.726 74.3838Z" fill="#F5F5F5"/>
<path d="M269.316 129.645L268.865 132.411L249.128 129.59L249.579 126.824L269.316 129.645Z" fill="#E0E0E0"/>
<path d="M259.376 119.776L262.208 120.181L259.068 139.459L256.236 139.055L259.376 119.776Z" fill="#E0E0E0"/>
<path d="M241.196 95.2722C241.23 95.3223 237.255 98.018 232.32 101.293C227.383 104.569 223.355 107.184 223.321 107.133C223.287 107.083 227.261 104.388 232.198 101.112C237.133 97.8375 241.162 95.2224 241.196 95.2722Z" fill="#E0E0E0"/>
<path d="M255.797 91.636C255.831 91.6862 249.219 96.1321 241.031 101.566C232.839 107.001 226.174 111.365 226.141 111.315C226.107 111.265 232.718 106.82 240.909 101.385C249.097 95.9515 255.763 91.5863 255.797 91.636Z" fill="#E0E0E0"/>
<path d="M258.724 95.9774C258.758 96.0275 252.146 100.474 243.958 105.907C235.766 111.342 229.101 115.707 229.068 115.656C229.034 115.606 235.645 111.161 243.836 105.726C252.024 100.292 258.69 95.9272 258.724 95.9774Z" fill="#E0E0E0"/>
<path d="M261.651 100.318C261.684 100.368 255.072 104.814 246.884 110.248C238.693 115.683 232.028 120.047 231.994 119.997C231.96 119.948 238.571 115.502 246.762 110.067C254.95 104.634 261.617 100.269 261.651 100.318Z" fill="#E0E0E0"/>
<path d="M264.578 104.66C264.611 104.71 257.999 109.156 249.811 114.589C241.62 120.025 234.955 124.389 234.921 124.339C234.888 124.289 241.498 119.844 249.689 114.408C257.877 108.975 264.544 104.61 264.578 104.66Z" fill="#E0E0E0"/>
<path d="M187.91 30.6412L144.59 7.65601L110.475 70.9393L153.796 93.9245L187.91 30.6412Z" fill="#F5F5F5"/>
<path d="M146.38 74.1299L143.631 75.0637L136.655 55.9302L139.404 54.9963L146.38 74.1299Z" fill="#E0E0E0"/>
<path d="M150.594 60.4032L151.596 63.149L132.442 69.6569L131.441 66.911L150.594 60.4032Z" fill="#E0E0E0"/>
<path d="M164.204 32.1731C164.17 32.2362 159.776 29.9703 154.391 27.1132C149.004 24.2549 144.666 21.8878 144.7 21.8247C144.734 21.762 149.127 24.0271 154.514 26.885C159.899 29.7425 164.238 32.1104 164.204 32.1731Z" fill="#E0E0E0"/>
<path d="M174.6 43.5569C174.565 43.62 167.294 39.8271 158.36 35.087C149.422 30.3448 142.207 26.4511 142.241 26.388C142.275 26.3253 149.545 30.117 158.483 34.8592C167.417 39.5993 174.634 43.4938 174.6 43.5569Z" fill="#E0E0E0"/>
<path d="M172.046 48.2937C172.012 48.3568 164.74 44.5639 155.806 39.8234C146.869 35.0812 139.654 31.1875 139.688 31.1244C139.722 31.0617 146.992 34.8533 155.929 39.5956C164.863 44.3357 172.08 48.2306 172.046 48.2937Z" fill="#E0E0E0"/>
<path d="M169.492 53.0301C169.458 53.0932 162.186 49.3002 153.252 44.5597C144.315 39.8179 137.1 35.9238 137.134 35.8607C137.168 35.7976 144.438 39.5897 153.375 44.3319C162.309 49.0724 169.526 52.9674 169.492 53.0301Z" fill="#E0E0E0"/>
<path d="M166.939 57.7669C166.905 57.83 159.634 54.037 150.699 49.2965C141.762 44.5547 134.546 40.6606 134.581 40.5975C134.615 40.5348 141.885 44.3265 150.822 49.0687C159.756 53.8092 166.973 57.7042 166.939 57.7669Z" fill="#E0E0E0"/>
<path d="M279.625 160.848C279.625 160.908 225.167 160.957 158.006 160.957C90.821 160.957 36.375 160.908 36.375 160.848C36.375 160.788 90.821 160.739 158.006 160.739C225.167 160.739 279.625 160.788 279.625 160.848Z" fill="#263238"/>
<path d="M49.8376 134.67C51.2621 134.72 52.5994 135.487 53.539 136.551C54.4786 137.614 55.0545 138.951 55.4232 140.318C56.1361 142.961 55.6979 146.08 54.9383 148.71C52.0538 147.687 50.2754 144.636 49.471 143.031C48.1995 140.496 47.4541 135.147 49.8376 134.67Z" fill="#090914"/>
<path d="M59.0885 151.914C58.1784 150.617 58.1569 148.815 58.8765 147.405C59.5958 145.996 60.9782 144.98 62.5004 144.516C63.2045 144.301 64.021 144.211 64.6332 144.617C65.2058 144.996 65.4531 145.74 65.379 146.419C65.3052 147.098 64.9585 147.719 64.5494 148.269C63.1468 150.153 61.4408 151.72 59.0885 151.914Z" fill="#090914"/>
<path d="M59.4055 160.746C59.3916 160.748 59.3478 160.552 59.2766 160.197C59.1995 159.805 59.0996 159.299 58.9799 158.69C58.7524 157.424 58.3913 155.623 58.6644 153.631C58.9269 151.649 59.7223 149.954 60.5562 148.942C60.9665 148.43 61.3596 148.068 61.6504 147.845C61.7911 147.727 61.915 147.656 61.9937 147.6C62.0742 147.548 62.1185 147.523 62.1227 147.528C62.1543 147.564 61.4485 147.995 60.6686 149.027C59.8786 150.043 59.1215 151.708 58.8628 153.658C58.594 155.608 58.9269 157.393 59.1194 158.667C59.2226 159.306 59.3056 159.824 59.3537 160.184C59.4013 160.544 59.419 160.744 59.4055 160.746Z" fill="#263238"/>
<path d="M50.768 138.693C50.7743 138.69 50.8143 138.765 50.8843 138.91C50.9609 139.074 51.0595 139.286 51.1813 139.547C51.4362 140.101 51.7943 140.909 52.2287 141.91C53.098 143.912 54.2592 146.694 55.4717 149.795C56.6839 152.897 57.717 155.729 58.4354 157.789C58.7952 158.819 59.0788 159.654 59.2675 160.234C59.3552 160.509 59.426 160.731 59.4807 160.904C59.5275 161.057 59.5486 161.139 59.5422 161.141C59.5355 161.144 59.5018 161.066 59.4428 160.917C59.3788 160.747 59.2962 160.529 59.1942 160.26C58.9751 159.664 58.6726 158.842 58.3023 157.836C57.5498 155.789 56.4964 152.966 55.2851 149.866C54.0733 146.768 52.9332 143.979 52.0981 141.964C51.6878 140.973 51.3524 140.164 51.1093 139.577C51.0014 139.31 50.9142 139.094 50.8463 138.926C50.789 138.776 50.7617 138.696 50.768 138.693Z" fill="#263238"/>
<path d="M55.982 154.902C54.2811 152.031 51.1051 150.073 47.7568 149.833C46.904 149.771 45.8785 149.914 45.4984 150.673C45.1175 151.434 45.6269 152.335 46.2079 152.959C48.6247 155.556 52.7133 156.461 56.0141 155.13" fill="#090914"/>
<path d="M49.0556 152.097C49.0564 152.083 49.246 152.091 49.5894 152.116C49.7613 152.128 49.9715 152.143 50.2121 152.188C50.4523 152.232 50.7316 152.258 51.0291 152.34C51.3287 152.413 51.659 152.486 52.0011 152.608C52.35 152.711 52.7081 152.859 53.0844 153.017C53.8276 153.352 54.6159 153.79 55.3667 154.359C56.1121 154.936 56.7415 155.58 57.2534 156.212C57.4995 156.536 57.7346 156.842 57.9179 157.154C58.1205 157.454 58.271 157.755 58.4121 158.027C58.5634 158.294 58.6527 158.558 58.7517 158.78C58.8516 159.002 58.9139 159.202 58.9636 159.366C59.066 159.692 59.1157 159.874 59.1027 159.877C59.0601 159.892 58.8549 159.161 58.287 158.091C58.1395 157.827 57.984 157.534 57.7784 157.243C57.5922 156.939 57.3554 156.641 57.1098 156.326C56.5983 155.711 55.9768 155.083 55.245 154.517C54.5076 153.957 53.7362 153.522 53.0085 153.184C52.6403 153.024 52.2897 152.872 51.948 152.764C51.6135 152.637 51.289 152.558 50.9954 152.477C49.8135 152.18 49.0509 152.14 49.0556 152.097Z" fill="#263238"/>
<path d="M125.961 75.0395L111.062 151.031L109.112 160.979L208.573 160.492C213.037 160.471 216.993 156.539 218.429 150.697L236.065 78.9524C237.155 74.5174 234.764 69.9047 231.375 69.9085L130.709 70.0134C128.486 70.0164 126.543 72.0738 125.961 75.0395Z" fill="#F04141"/>
<g opacity="0.5">
<path d="M125.961 75.0395L111.062 151.031L109.112 160.979L208.573 160.492C213.037 160.471 216.993 156.539 218.429 150.697L236.065 78.9524C237.155 74.5174 234.764 69.9047 231.375 69.9085L130.709 70.0134C128.486 70.0164 126.543 72.0738 125.961 75.0395Z" fill="black"/>
</g>
<path d="M199.033 145.883L188.502 61.6943C188.07 58.2446 185.3 55.6714 182.03 55.6822L158.939 55.757C157.23 55.7625 155.591 56.4835 154.377 57.7639L143.412 69.3278L79.1894 69.6601C75.2647 69.6806 72.2496 73.3645 72.77 77.5039L82.5474 155.316C82.9801 158.761 85.7449 161.33 89.0107 161.324L200.937 161.104C213.403 161.361 214.592 157.708 214.592 157.708C200.306 160.849 199.034 145.892 199.033 145.883Z" fill="#F04141"/>
<g opacity="0.5">
<path d="M150.771 129.034L146.996 133.056L117.923 107.108L121.698 103.086L150.771 129.034Z" fill="white"/>
<path d="M145.414 102.195L149.586 105.918L123.28 133.948L119.108 130.224L145.414 102.195Z" fill="white"/>
</g>
<path d="M255.581 122.539C255.581 122.539 264.103 128.283 264.568 141.693C264.724 146.19 262.498 160.514 262.498 160.514L212.65 160.712L221.977 122.326L237.657 118.771L255.581 122.539Z" fill="#090914"/>
<path d="M236.537 132.493L243.329 160.601L226.356 160.713L236.537 132.493Z" fill="#263238"/>
<path d="M236.796 126.409C236.774 126.408 236.744 126.759 236.705 127.328C236.666 127.944 236.618 128.706 236.565 129.549C236.514 130.418 236.481 131.205 236.47 131.775C236.459 132.346 236.468 132.699 236.489 132.7C236.511 132.7 236.541 132.349 236.58 131.78C236.619 131.164 236.667 130.402 236.721 129.558C236.771 128.69 236.804 127.903 236.815 127.332C236.826 126.762 236.817 126.409 236.796 126.409Z" fill="#263238"/>
<path d="M233.722 129.506C233.718 129.521 233.833 129.546 234.009 129.648C234.184 129.749 234.419 129.948 234.574 130.273C234.729 130.59 234.778 131.06 234.514 131.455C234.269 131.844 233.75 132.149 233.215 132.069C232.68 131.98 232.282 131.531 232.17 131.085C232.043 130.628 232.237 130.196 232.484 129.943C232.732 129.681 233.019 129.565 233.216 129.523C233.416 129.48 233.533 129.491 233.534 129.477C233.534 129.471 233.506 129.465 233.45 129.458C233.395 129.45 233.311 129.449 233.205 129.463C232.995 129.489 232.683 129.595 232.405 129.866C232.268 130.002 232.14 130.178 232.063 130.395C231.988 130.612 231.966 130.868 232.031 131.119C232.149 131.616 232.579 132.117 233.19 132.221C233.804 132.31 234.369 131.966 234.637 131.53C234.777 131.312 234.836 131.061 234.832 130.832C234.827 130.603 234.761 130.395 234.673 130.224C234.494 129.88 234.23 129.684 234.038 129.595C233.942 129.548 233.862 129.524 233.807 129.514C233.752 129.504 233.723 129.501 233.722 129.506Z" fill="#263238"/>
<path d="M228.287 144.852C228.283 144.866 228.398 144.891 228.575 144.994C228.749 145.094 228.985 145.293 229.139 145.618C229.295 145.935 229.344 146.405 229.08 146.801C228.834 147.19 228.316 147.494 227.78 147.414C227.245 147.325 226.847 146.876 226.736 146.431C226.609 145.974 226.802 145.542 227.049 145.289C227.298 145.027 227.584 144.911 227.781 144.869C227.981 144.826 228.098 144.837 228.099 144.822C228.1 144.817 228.071 144.811 228.015 144.804C227.96 144.796 227.876 144.795 227.77 144.809C227.56 144.835 227.248 144.94 226.97 145.212C226.833 145.348 226.705 145.524 226.629 145.741C226.554 145.957 226.531 146.214 226.596 146.465C226.714 146.961 227.144 147.462 227.756 147.567C228.369 147.656 228.935 147.312 229.202 146.876C229.342 146.658 229.401 146.407 229.398 146.178C229.392 145.948 229.326 145.741 229.238 145.57C229.059 145.226 228.795 145.029 228.604 144.941C228.507 144.894 228.427 144.87 228.372 144.86C228.317 144.849 228.288 144.847 228.287 144.852Z" fill="#263238"/>
<path d="M245.913 133.706C245.909 133.709 245.946 133.755 246.019 133.838C246.094 133.92 246.201 134.044 246.348 134.196C246.646 134.495 247.089 134.919 247.689 135.38C248.882 136.302 250.749 137.362 253.023 137.868C254.156 138.11 255.268 138.236 256.277 138.132C257.284 138.038 258.165 137.694 258.776 137.234C259.393 136.777 259.747 136.247 259.922 135.864C260.008 135.67 260.058 135.513 260.084 135.405C260.108 135.296 260.119 135.239 260.114 135.238C260.097 135.234 260.053 135.465 259.867 135.838C259.679 136.206 259.32 136.711 258.711 137.145C258.107 137.582 257.251 137.905 256.264 137.99C255.276 138.085 254.178 137.956 253.058 137.717C250.81 137.217 248.957 136.185 247.757 135.293C247.152 134.846 246.701 134.438 246.392 134.153C246.25 134.017 246.135 133.906 246.043 133.817C245.961 133.74 245.917 133.702 245.913 133.706Z" fill="#263238"/>
<path d="M245.913 136.49C245.909 136.493 245.946 136.539 246.019 136.622C246.094 136.704 246.201 136.828 246.348 136.98C246.646 137.279 247.089 137.703 247.689 138.165C248.882 139.086 250.749 140.146 253.023 140.652C254.156 140.894 255.268 141.021 256.277 140.917C257.284 140.822 258.165 140.478 258.776 140.018C259.393 139.561 259.747 139.032 259.922 138.648C260.008 138.454 260.058 138.297 260.084 138.189C260.108 138.08 260.119 138.023 260.114 138.022C260.097 138.018 260.053 138.249 259.867 138.622C259.679 138.99 259.32 139.495 258.711 139.929C258.107 140.366 257.251 140.689 256.264 140.774C255.276 140.869 254.178 140.74 253.058 140.501C250.81 140.001 248.957 138.969 247.757 138.077C247.152 137.631 246.701 137.222 246.392 136.937C246.25 136.801 246.135 136.69 246.043 136.601C245.961 136.525 245.917 136.486 245.913 136.49Z" fill="#263238"/>
<path d="M245.471 135.647C245.468 135.647 245.462 135.688 245.452 135.768C245.443 135.855 245.429 135.972 245.413 136.122C245.377 136.442 245.327 136.9 245.262 137.485C245.136 138.67 244.898 140.379 244.789 142.511C244.738 143.576 244.737 144.749 244.863 146C244.99 147.248 245.253 148.579 245.766 149.903C246.274 151.223 247.061 152.534 248.19 153.604C248.751 154.138 249.389 154.617 250.095 155.001C250.803 155.38 251.581 155.663 252.397 155.806C254.038 156.105 255.706 155.709 257.056 154.95C258.417 154.19 259.504 153.095 260.26 151.893C261.021 150.69 261.488 149.406 261.772 148.182C262.055 146.955 262.16 145.783 262.182 144.716C262.214 142.579 261.974 140.862 261.822 139.682C261.737 139.099 261.671 138.643 261.624 138.324C261.6 138.175 261.581 138.059 261.567 137.972C261.553 137.893 261.545 137.852 261.542 137.853C261.54 137.853 261.543 137.894 261.551 137.974C261.561 138.061 261.575 138.179 261.593 138.328C261.632 138.648 261.689 139.105 261.762 139.69C261.895 140.871 262.117 142.587 262.072 144.713C262.042 145.774 261.932 146.938 261.645 148.153C261.359 149.365 260.892 150.632 260.138 151.817C259.391 152.999 258.319 154.073 256.982 154.817C255.655 155.56 254.025 155.945 252.423 155.653C251.626 155.514 250.865 155.237 250.17 154.865C249.476 154.489 248.849 154.019 248.296 153.494C247.184 152.443 246.406 151.155 245.9 149.851C245.389 148.544 245.123 147.225 244.991 145.986C244.861 144.744 244.855 143.577 244.899 142.515C244.994 140.39 245.214 138.678 245.322 137.491C245.38 136.899 245.42 136.437 245.444 136.125C245.454 135.974 245.462 135.856 245.468 135.768C245.472 135.689 245.473 135.647 245.471 135.647Z" fill="#263238"/>
<g opacity="0.2">
<path d="M261.069 150.375C260.528 152.189 260.297 152.658 259.287 154.107C258.28 155.553 257.033 156.453 255.406 157.027C253.157 157.822 250.501 157.35 248.67 155.83C246.84 154.31 246.191 151.973 245.872 150.375C246.671 151.439 247.519 152.952 248.523 153.83C249.526 154.708 250.853 155.48 252.171 155.707C253.965 156.016 256.111 155.467 257.649 154.498C259.186 153.53 260.116 151.793 261.069 150.375Z" fill="black"/>
</g>
<g opacity="0.2">
<path d="M259.785 138.842C259.157 140.356 257.637 141.479 256.014 141.776C254.391 142.073 252.29 141.567 251.276 140.056C254.844 141.299 258.39 141.327 259.785 138.842Z" fill="black"/>
</g>
<path d="M230.479 134.456C230.48 134.466 230.561 134.461 230.708 134.443C230.854 134.427 231.064 134.383 231.317 134.311C231.825 134.17 232.506 133.875 233.152 133.39C233.797 132.903 234.266 132.331 234.54 131.884C234.678 131.661 234.776 131.472 234.831 131.337C234.889 131.202 234.915 131.126 234.906 131.121C234.881 131.11 234.742 131.4 234.448 131.824C234.156 132.248 233.686 132.792 233.058 133.267C232.428 133.739 231.774 134.042 231.284 134.207C230.794 134.374 230.474 134.429 230.479 134.456Z" fill="#263238"/>
<g opacity="0.2">
<path d="M234.625 131.324C234.258 132.569 232.868 133.727 231.626 134.135C231.382 134.215 231.124 134.272 230.867 134.246C230.611 134.22 230.355 134.1 230.214 133.886C229.952 133.491 230.178 132.929 230.561 132.647C230.944 132.366 231.434 132.284 231.898 132.176C232.854 131.954 233.718 132.435 234.51 131.637" fill="black"/>
</g>
<g opacity="0.2">
<path d="M261.131 129.028C258.896 130.967 255.74 131.049 252.892 130.22C250.043 129.39 247.568 127.82 245.153 126.108C247.789 126.626 250.036 127.821 252.694 128.209C255.232 128.58 257.871 128.62 260.368 127.778" fill="black"/>
</g>
<path d="M218.258 158.807C218.257 158.809 218.276 158.82 218.315 158.84C218.354 158.858 218.411 158.893 218.491 158.921C218.649 158.987 218.893 159.064 219.217 159.1C219.859 159.178 220.855 159.046 221.837 158.402C222.829 157.776 223.736 156.718 224.703 155.548C225.663 154.366 226.622 152.987 227.494 151.463C229.25 148.413 230.296 145.385 230.878 143.168C231.164 142.056 231.349 141.145 231.461 140.513C231.51 140.207 231.548 139.964 231.577 139.784C231.602 139.617 231.613 139.529 231.607 139.528C231.602 139.527 231.581 139.613 231.546 139.778C231.51 139.957 231.462 140.198 231.401 140.502C231.271 141.129 231.07 142.034 230.771 143.139C230.164 145.343 229.106 148.351 227.359 151.386C226.49 152.903 225.54 154.277 224.59 155.459C223.633 156.63 222.74 157.687 221.776 158.31C220.822 158.952 219.854 159.097 219.223 159.039C218.582 158.983 218.265 158.783 218.258 158.807Z" fill="#263238"/>
<g opacity="0.2">
<path d="M229.032 147.837C229.032 147.837 224.611 153.354 221.382 154.708C220.29 155.166 219.084 155.543 218.339 156.458C217.985 156.893 217.758 157.465 217.872 158.011C217.883 158.066 217.904 158.13 217.932 158.202C218.398 159.376 220.625 159.21 221.652 158.467C222.098 158.145 221.834 158.352 222.194 158.083C223.228 157.31 228.763 150.955 229.032 147.837Z" fill="black"/>
</g>
<path d="M248.563 73.358L245.739 72.8008L231.777 72.9646L224.683 74.5092L221.977 113.809L253.338 115.264L248.563 73.358Z" fill="#E0E0E0"/>
<path d="M228.252 111.987L227.583 94.1142L228.696 73.3859C224.283 74.5139 218.251 75.7742 214.916 79.5446C212.747 81.9969 210.623 85.1345 209.837 90.1845C208.912 96.1194 207.695 107.503 206.934 113.867" fill="#090914"/>
<path d="M223.817 109.071L245.499 112.566L246.265 99.2796L247.455 73.0181C253.741 73.2723 260.91 78.4329 263.06 82.4506C264.553 85.2409 265.814 88.4823 266.208 91.617C266.958 97.5762 268.232 107.755 268.993 114.119C269.461 118.038 268.125 121.957 265.356 124.791C262.208 128.011 257.281 129.124 252.853 128.215L219.84 118.986L223.817 109.071Z" fill="#090914"/>
<path d="M226.097 108.834C226.099 108.833 226.094 108.808 226.08 108.759C226.064 108.704 226.043 108.633 226.017 108.544C225.956 108.346 225.87 108.069 225.761 107.715C225.528 106.984 225.195 105.937 224.78 104.629C223.929 101.995 222.742 98.3151 221.378 94.0907L221.335 94.1832C222.467 93.7185 223.644 93.2356 224.851 92.7403L224.987 92.6844L224.864 92.6041C224.606 92.437 224.329 92.2572 224.051 92.0767C223.143 91.4874 222.251 90.9088 221.399 90.3564L221.431 90.4417C222.778 85.7949 223.966 81.6984 224.819 78.7528C225.237 77.2894 225.573 76.1123 225.807 75.2914C225.918 74.8918 226.004 74.5793 226.066 74.3572C226.092 74.2564 226.113 74.1762 226.129 74.1143C226.143 74.0593 226.149 74.0311 226.147 74.0305C226.144 74.0299 226.134 74.0569 226.116 74.1104C226.096 74.1714 226.07 74.2502 226.038 74.3495C225.971 74.5698 225.875 74.8799 225.754 75.2765C225.509 76.0945 225.158 77.2671 224.721 78.7252C223.855 81.6669 222.65 85.7586 221.283 90.3995L221.267 90.4539L221.315 90.4848C222.166 91.0378 223.058 91.617 223.965 92.2069C224.244 92.3877 224.52 92.5673 224.778 92.7344L224.791 92.5982C223.585 93.0947 222.409 93.5787 221.277 94.0449L221.212 94.0717L221.233 94.1377C222.618 98.3555 223.824 102.03 224.687 104.659C225.12 105.961 225.468 107.004 225.71 107.731C225.83 108.082 225.924 108.357 225.991 108.553C226.022 108.64 226.047 108.71 226.067 108.764C226.085 108.811 226.095 108.835 226.097 108.834Z" fill="#263238"/>
<g opacity="0.2">
<path d="M221.306 90.4661C221.447 91.0438 221.977 91.8477 222.399 92.0897C222.811 92.3258 222.575 92.6383 222.233 92.9656C221.824 93.3566 221.163 93.4637 220.862 93.9409C220.582 94.3848 220.728 94.9607 220.887 95.4602C222.388 100.196 224.213 104.831 226.344 109.323L221.307 94.1136L224.822 92.6689L221.306 90.4661Z" fill="black"/>
</g>
<path d="M247.304 109.202C247.306 109.203 247.317 109.182 247.337 109.141C247.359 109.092 247.388 109.031 247.423 108.955C247.501 108.781 247.609 108.539 247.747 108.23C248.027 107.586 248.43 106.664 248.935 105.509C249.942 103.172 251.353 99.8983 252.987 96.1075L253.011 96.0528L252.962 96.018C252.072 95.3865 251.142 94.7279 250.188 94.0512L250.191 94.1743C250.779 93.7126 251.4 93.2247 252.03 92.7299C252.302 92.5158 252.573 92.303 252.842 92.0913L253.245 91.7749L253.345 91.6961C253.363 91.678 253.373 91.6813 253.4 91.645C253.427 91.6126 253.435 91.5858 253.442 91.562C253.471 91.4633 253.473 91.378 253.476 91.2909C253.475 90.6053 253.375 89.952 253.29 89.3057C253.107 88.0165 252.891 86.7805 252.68 85.604C252.253 83.2519 251.833 81.1412 251.473 79.3701C251.112 77.5992 250.81 76.1682 250.595 75.1805C250.487 74.6944 250.403 74.3135 250.343 74.0442C250.314 73.9211 250.29 73.8239 250.273 73.7495C250.257 73.6835 250.247 73.6496 250.244 73.6502C250.241 73.6508 250.246 73.6856 250.257 73.7528C250.271 73.8277 250.289 73.9261 250.312 74.0504C250.365 74.321 250.44 74.7039 250.536 75.1924C250.733 76.1932 251.016 77.6254 251.365 79.3909C251.71 81.1644 252.119 83.2769 252.538 85.6287C252.746 86.8046 252.959 88.0406 253.139 89.3262C253.223 89.9675 253.321 90.6282 253.322 91.2861C253.319 91.3661 253.313 91.4508 253.295 91.5139C253.301 91.5487 253.206 91.6031 253.145 91.6563L252.743 91.9717C252.474 92.1828 252.204 92.3954 251.932 92.6092C251.303 93.1036 250.682 93.5913 250.096 94.0524L250.014 94.1163L250.098 94.1755C251.054 94.8507 251.984 95.5078 252.876 96.1378L252.85 96.0486C251.237 99.8481 249.843 103.13 248.849 105.471C248.362 106.634 247.973 107.562 247.701 108.209C247.573 108.523 247.472 108.768 247.4 108.943C247.37 109.022 247.345 109.085 247.326 109.134C247.309 109.179 247.302 109.201 247.304 109.202Z" fill="#263238"/>
<path d="M226.029 128.027L247.877 124.682C248.271 124.621 248.541 124.256 248.48 123.865L243.765 93.5619C243.704 93.1712 243.336 92.903 242.942 92.9634L221.094 96.3091C220.7 96.3695 220.43 96.7352 220.491 97.1259L225.205 127.429C225.266 127.82 225.634 128.087 226.029 128.027Z" fill="#090914"/>
<g opacity="0.2">
<path d="M226.029 128.027L247.877 124.682C248.271 124.621 248.541 124.256 248.48 123.865L243.765 93.5619C243.704 93.1712 243.336 92.903 242.942 92.9634L221.094 96.3091C220.7 96.3695 220.43 96.7352 220.491 97.1259L225.205 127.429C225.266 127.82 225.634 128.087 226.029 128.027Z" fill="black"/>
</g>
<path d="M221.781 96.8911L242.457 93.726L247.049 123.251L226.373 126.416L221.781 96.8911Z" fill="#EBEBEB"/>
<path d="M227.989 96.4027C228.286 95.4855 229.08 94.8138 230.041 94.6679L229.868 93.4057C229.719 92.4522 230.378 91.56 231.339 91.4128C232.3 91.2656 233.2 91.9191 233.348 92.8726L233.552 94.1826L233.997 94.122C234.945 93.9923 235.888 94.3982 236.44 95.1739L236.785 95.6573L227.783 97.0357L227.989 96.4027ZM231.705 94.0955C232.222 94.0164 232.577 93.536 232.497 93.0228C232.417 92.5096 231.933 92.1576 231.416 92.237C230.899 92.316 230.544 92.7965 230.624 93.3097C230.704 93.8229 231.188 94.1749 231.705 94.0955Z" fill="#263238"/>
<path d="M235.448 99.0852C235.455 99.1274 236.715 98.9695 238.263 98.7325C239.811 98.4956 241.061 98.269 241.054 98.2268C241.048 98.1846 239.787 98.3425 238.239 98.5797C236.692 98.8164 235.442 99.0429 235.448 99.0852Z" fill="#263238"/>
<path d="M238.498 99.5784C238.505 99.6207 239.115 99.5624 239.861 99.4482C240.607 99.334 241.207 99.2071 241.2 99.1649C241.193 99.1226 240.583 99.1809 239.837 99.2954C239.091 99.4093 238.492 99.5362 238.498 99.5784Z" fill="#263238"/>
<path d="M225.734 104.209C225.741 104.251 229.239 103.75 233.547 103.091C237.856 102.431 241.344 101.862 241.337 101.82C241.331 101.778 237.833 102.278 233.524 102.938C229.215 103.597 225.728 104.167 225.734 104.209Z" fill="#263238"/>
<path d="M225.964 105.685C225.971 105.727 229.469 105.226 233.777 104.567C238.086 103.907 241.573 103.338 241.567 103.296C241.56 103.253 238.063 103.754 233.753 104.414C229.445 105.074 225.957 105.643 225.964 105.685Z" fill="#263238"/>
<path d="M226.193 107.161C226.2 107.203 229.698 106.703 234.006 106.043C238.315 105.383 241.803 104.814 241.796 104.772C241.789 104.729 238.292 105.23 233.982 105.89C229.674 106.549 226.187 107.119 226.193 107.161Z" fill="#263238"/>
<path d="M226.423 108.637C226.43 108.679 229.928 108.178 234.236 107.519C238.546 106.859 242.033 106.29 242.026 106.248C242.02 106.205 238.522 106.706 234.213 107.366C229.904 108.026 226.417 108.595 226.423 108.637Z" fill="#263238"/>
<path d="M226.653 110.113C226.659 110.155 230.157 109.655 234.466 108.995C238.775 108.335 242.262 107.766 242.255 107.724C242.249 107.682 238.751 108.182 234.442 108.842C230.134 109.502 226.646 110.071 226.653 110.113Z" fill="#263238"/>
<path d="M226.882 111.589C226.889 111.631 230.387 111.131 234.695 110.471C239.005 109.811 242.492 109.242 242.485 109.2C242.479 109.158 238.981 109.658 234.672 110.318C230.364 110.978 226.876 111.547 226.882 111.589Z" fill="#263238"/>
<path d="M234.891 111.726C234.892 111.736 235.003 111.729 235.202 111.708C235.401 111.687 235.688 111.652 236.042 111.604C236.75 111.51 237.726 111.37 238.803 111.205C239.88 111.04 240.854 110.882 241.558 110.76C241.91 110.699 242.194 110.647 242.39 110.608C242.586 110.568 242.694 110.541 242.692 110.531C242.691 110.52 242.58 110.527 242.381 110.548C242.182 110.569 241.895 110.605 241.541 110.652C240.833 110.746 239.857 110.887 238.779 111.052C237.702 111.217 236.728 111.375 236.025 111.497C235.673 111.558 235.389 111.61 235.193 111.649C234.997 111.688 234.889 111.715 234.891 111.726Z" fill="#263238"/>
<path d="M224.485 100.627C224.492 100.669 225.057 100.618 225.747 100.512C226.437 100.406 226.991 100.286 226.985 100.244C226.978 100.202 226.413 100.253 225.723 100.359C225.033 100.464 224.479 100.585 224.485 100.627Z" fill="#263238"/>
<path d="M238.937 114.399C238.944 114.441 239.856 114.337 240.975 114.165C242.095 113.994 242.996 113.821 242.99 113.779C242.983 113.736 242.071 113.841 240.952 114.012C239.832 114.183 238.93 114.357 238.937 114.399Z" fill="#263238"/>
<path d="M239.011 115.76C239.017 115.802 239.945 115.695 241.083 115.521C242.22 115.347 243.138 115.171 243.131 115.129C243.124 115.087 242.197 115.194 241.059 115.368C239.921 115.542 239.004 115.718 239.011 115.76Z" fill="#263238"/>
<path d="M227.153 115.998C227.16 116.04 227.604 116.007 228.144 115.924C228.685 115.841 229.118 115.74 229.112 115.698C229.105 115.655 228.661 115.688 228.12 115.771C227.58 115.854 227.147 115.955 227.153 115.998Z" fill="#263238"/>
<path d="M227.273 117.214C227.28 117.256 227.724 117.223 228.265 117.141C228.806 117.058 229.239 116.956 229.232 116.914C229.226 116.872 228.782 116.905 228.241 116.988C227.7 117.07 227.267 117.172 227.273 117.214Z" fill="#263238"/>
<path d="M241.121 116.877C241.127 116.92 241.556 116.889 242.078 116.809C242.601 116.729 243.019 116.63 243.012 116.588C243.005 116.546 242.577 116.576 242.054 116.656C241.532 116.736 241.114 116.835 241.121 116.877Z" fill="#263238"/>
<path d="M227.425 118.632C227.431 118.674 227.754 118.66 228.146 118.6C228.537 118.54 228.85 118.457 228.843 118.414C228.836 118.372 228.514 118.386 228.122 118.447C227.73 118.507 227.418 118.59 227.425 118.632Z" fill="#263238"/>
<path d="M243.632 119.747C243.631 119.74 243.508 119.738 243.278 119.743C243.03 119.75 242.697 119.759 242.282 119.772C241.405 119.806 240.185 119.855 238.728 119.913L238.647 119.916L238.665 119.995C238.75 120.357 238.964 120.708 239.288 120.954C239.605 121.203 240.059 121.335 240.489 121.225C240.91 121.121 241.314 120.823 241.473 120.38C241.638 119.935 241.47 119.409 241.109 119.093C240.974 118.975 240.81 118.886 240.633 118.845C240.59 118.833 240.545 118.827 240.499 118.824C240.455 118.819 240.41 118.814 240.354 118.824C240.3 118.831 240.227 118.872 240.2 118.937C240.174 118.999 240.179 119.052 240.182 119.097C240.22 119.436 240.337 119.756 240.51 120.035C240.682 120.314 240.909 120.553 241.172 120.731C241.431 120.908 241.736 121.04 242.057 121.023C242.383 121.014 242.664 120.779 242.776 120.51C242.896 120.24 242.909 119.943 242.836 119.679C242.677 119.151 242.301 118.796 241.997 118.483L241.917 118.4L241.903 118.513C241.844 118.973 241.96 119.392 242.13 119.709C242.299 120.031 242.525 120.259 242.726 120.414C242.929 120.568 243.113 120.647 243.238 120.693C243.366 120.733 243.435 120.746 243.436 120.742C243.445 120.722 243.153 120.678 242.763 120.366C242.575 120.209 242.363 119.983 242.208 119.67C242.052 119.361 241.951 118.96 242.012 118.529L241.917 118.559C242.217 118.876 242.573 119.229 242.711 119.713C242.774 119.948 242.758 120.218 242.651 120.453C242.546 120.688 242.321 120.873 242.048 120.881C241.777 120.894 241.497 120.777 241.256 120.609C241.012 120.442 240.8 120.218 240.64 119.956C240.48 119.695 240.371 119.394 240.336 119.082C240.332 119.046 240.335 119.014 240.342 119C240.348 118.988 240.354 118.982 240.382 118.976C240.438 118.969 240.528 118.977 240.598 118.996C240.747 119.03 240.887 119.106 241.006 119.209C241.323 119.487 241.47 119.949 241.327 120.328C241.192 120.712 240.831 120.986 240.453 121.08C240.071 121.179 239.669 121.065 239.376 120.84C239.077 120.618 238.877 120.294 238.797 119.964L238.735 120.046C240.191 119.965 241.41 119.898 242.286 119.849C242.701 119.822 243.033 119.8 243.281 119.784C243.51 119.766 243.632 119.754 243.632 119.747Z" fill="#263238"/>
<path d="M228.821 121.964C228.817 121.969 228.871 122.035 228.992 122.141C229.054 122.192 229.134 122.254 229.245 122.302C229.356 122.348 229.503 122.373 229.658 122.323C229.734 122.297 229.812 122.248 229.865 122.172C229.918 122.097 229.943 122.003 229.949 121.91C229.958 121.723 229.925 121.541 229.91 121.341C229.869 120.938 229.825 120.494 229.777 120.016L229.646 120.067C230.001 120.542 230.387 121.061 230.791 121.603C230.888 121.732 230.983 121.86 231.077 121.986L231.263 122.233L231.217 121.928C231.096 121.134 230.983 120.392 230.885 119.743L230.775 119.803C231.356 120.286 231.752 120.782 232.005 121.141C232.257 121.501 232.377 121.724 232.392 121.716C232.398 121.713 232.374 121.654 232.323 121.547C232.271 121.441 232.189 121.287 232.07 121.098C231.834 120.723 231.446 120.206 230.862 119.702L230.728 119.586L230.753 119.762C230.845 120.413 230.951 121.156 231.063 121.951L231.203 121.894C231.109 121.768 231.013 121.641 230.916 121.512C230.509 120.971 230.12 120.455 229.763 119.982L229.601 119.767L229.632 120.032C229.689 120.509 229.741 120.952 229.788 121.355C229.808 121.552 229.846 121.743 229.842 121.905C229.842 122.07 229.756 122.197 229.627 122.241C229.364 122.335 229.143 122.188 229.021 122.105C228.894 122.012 228.827 121.956 228.821 121.964Z" fill="#263238"/>
<path d="M228.294 121.153C228.294 121.195 229.61 121.224 231.232 121.217C232.855 121.21 234.171 121.169 234.17 121.126C234.17 121.083 232.855 121.055 231.231 121.062C229.609 121.069 228.293 121.11 228.294 121.153Z" fill="#263238"/>
<path d="M227.338 122.078C227.333 122.12 228.385 122.268 229.686 122.409C230.988 122.549 232.047 122.629 232.052 122.586C232.057 122.543 231.005 122.395 229.703 122.255C228.402 122.114 227.343 122.035 227.338 122.078Z" fill="#263238"/>
<g opacity="0.2">
<path d="M253.399 91.4672C253.435 92.3654 253.192 93.2678 252.441 93.7706C253.38 94.2237 253.88 95.3053 253.91 96.3406C253.94 97.3759 253.579 98.3799 253.185 99.3391C251.973 102.292 249.383 106.449 247.406 108.963C247.406 108.963 248.409 106.282 248.695 105.662C249.998 102.84 251.145 100.003 252.447 97.1806C252.592 96.8678 252.85 96.0165 252.85 96.0165C252.984 96.0778 252.799 96.0186 252.461 95.7501C251.73 95.1721 250.143 94.114 250.143 94.114C250.143 94.114 253.399 91.5567 253.399 91.4672Z" fill="black"/>
</g>
<path d="M253.444 97.5314C253.401 97.5329 253.477 100.965 253.614 105.196C253.751 109.428 253.897 112.857 253.94 112.856C253.983 112.854 253.907 109.423 253.77 105.191C253.633 100.96 253.488 97.5299 253.444 97.5314Z" fill="#263238"/>
<path d="M248.273 88.501L248.573 88.4897C248.569 88.3768 248.139 77.1288 247.801 72.6529C247.749 71.956 247.483 71.3997 247.011 70.9986C246.076 70.2054 244.677 70.308 244.618 70.3121L244.642 70.6085C244.656 70.6077 245.98 70.5131 246.818 71.2255C247.226 71.5731 247.457 72.0607 247.503 72.6749C247.84 77.1455 248.269 88.3881 248.273 88.501Z" fill="#263238"/>
<path d="M245.475 107.33H245.476H246.007V106.735H245.476H245.475C244.317 106.735 243.375 105.801 243.375 104.652L243.374 98.3543H242.774L242.776 104.652C242.776 106.128 243.987 107.33 245.475 107.33Z" fill="#455A64"/>
<path d="M245.261 107.104C245.296 107.455 245.611 107.711 245.965 107.676C246.319 107.641 246.578 107.329 246.542 106.978C246.507 106.626 246.192 106.37 245.838 106.405C245.484 106.44 245.225 106.752 245.261 107.104Z" fill="#263238"/>
<path d="M250.659 107.313L251.19 107.311C251.911 107.308 252.588 107.027 253.096 106.519C253.604 106.012 253.882 105.338 253.88 104.622L253.855 98.3246L253.256 98.327L253.28 104.625C253.282 105.181 253.066 105.706 252.671 106.101C252.275 106.496 251.749 106.715 251.188 106.716L250.657 106.719L250.659 107.313Z" fill="#455A64"/>
<path d="M251.404 107.084C251.37 107.436 251.056 107.693 250.702 107.66C250.348 107.627 250.088 107.315 250.122 106.963C250.155 106.612 250.47 106.354 250.824 106.388C251.178 106.421 251.438 106.733 251.404 107.084Z" fill="#263238"/>
<path d="M254.04 99.067L254.115 94.5753C254.172 91.1538 251.652 88.3277 248.497 88.2757C246.961 88.2584 245.507 88.8778 244.405 90.0418C243.315 91.1942 242.699 92.7373 242.671 94.3868L242.596 98.8787L243.495 98.8933L243.57 94.4017C243.594 92.9745 244.123 91.6428 245.061 90.6525C245.987 89.6737 247.199 89.1465 248.482 89.1676C251.141 89.2114 253.265 91.6307 253.216 94.5605L253.141 99.0524L254.04 99.067Z" fill="#263238"/>
<path d="M228.44 88.6811C228.454 88.5634 229.817 76.8727 230.21 73.1273L230.237 72.8541C230.362 71.5831 230.504 70.1419 231.922 69.7626L231.844 69.4753C230.225 69.9088 230.066 71.526 229.939 72.8256L229.912 73.097C229.519 76.8409 228.155 88.5298 228.142 88.6472L228.44 88.6811Z" fill="#263238"/>
<path d="M226.02 88.9323C224.764 87.6868 224.764 85.6674 226.02 84.4219C227.275 83.1764 229.311 83.1764 230.566 84.4219C231.822 85.6674 231.822 87.6868 230.566 88.9323C229.311 90.1778 227.275 90.1778 226.02 88.9323Z" fill="#263238"/>
<path d="M226.737 86.6768C226.737 87.5287 227.433 88.2193 228.292 88.2193C229.15 88.2193 229.847 87.5287 229.847 86.6768C229.847 85.825 229.15 85.1343 228.292 85.1343C227.433 85.1346 226.737 85.825 226.737 86.6768Z" fill="#455A64"/>
<path d="M247.304 109.202L251.341 119.051L219.138 127.91C216.155 128.73 212.959 128.18 210.429 126.41C207.06 124.054 206.237 119.929 206.646 115.847L207.216 111.517L247.304 109.202Z" fill="#090914"/>
<path d="M213.184 119.894C213.22 119.9 213.288 119.222 213.62 118.183C213.705 117.924 213.799 117.641 213.93 117.348C214.043 117.048 214.203 116.745 214.362 116.422C214.704 115.789 215.132 115.12 215.657 114.474C216.191 113.835 216.767 113.286 217.325 112.828C217.613 112.609 217.881 112.394 218.154 112.224C218.418 112.039 218.679 111.891 218.918 111.758C219.878 111.229 220.535 111.028 220.522 110.995C220.518 110.985 220.356 111.035 220.063 111.135C219.916 111.183 219.738 111.247 219.539 111.341C219.339 111.432 219.105 111.523 218.865 111.662C218.62 111.79 218.353 111.935 218.083 112.117C217.803 112.284 217.528 112.498 217.235 112.716C216.664 113.174 216.077 113.728 215.536 114.376C215.003 115.031 214.573 115.712 214.233 116.357C214.076 116.686 213.918 116.995 213.809 117.301C213.682 117.599 213.593 117.887 213.514 118.151C213.425 118.412 213.381 118.658 213.331 118.87C213.278 119.082 213.249 119.268 213.231 119.421C213.191 119.725 213.174 119.893 213.184 119.894Z" fill="#263238"/>
<g opacity="0.2">
<path d="M252.059 113.393C254.518 113.595 256.413 113.82 258.959 114.129C260.543 114.321 262.19 114.213 262.706 112.715C263.223 111.217 262.895 109.509 262.046 108.168C261.197 106.827 259.858 103.696 252.702 106.082L252.059 113.393Z" fill="black"/>
</g>
<path d="M248.744 112.964C248.746 112.963 248.74 112.94 248.726 112.896C248.708 112.844 248.686 112.78 248.659 112.701C248.593 112.519 248.502 112.269 248.388 111.953C248.141 111.291 247.79 110.351 247.354 109.183L247.34 109.146L247.299 109.15C244.58 109.394 240.679 109.744 236.348 110.132C232.214 110.522 228.473 110.874 225.75 111.131C224.404 111.265 223.311 111.374 222.54 111.451C222.171 111.491 221.879 111.523 221.668 111.546C221.576 111.557 221.502 111.566 221.442 111.574C221.391 111.582 221.365 111.587 221.365 111.589C221.365 111.592 221.392 111.592 221.443 111.59C221.504 111.587 221.579 111.582 221.671 111.577C221.883 111.561 222.175 111.539 222.546 111.511C223.318 111.446 224.413 111.354 225.76 111.24C228.484 110.995 232.227 110.659 236.362 110.287C240.692 109.879 244.592 109.511 247.309 109.255L247.255 109.221C247.71 110.381 248.076 111.316 248.333 111.973C248.459 112.286 248.559 112.532 248.631 112.712C248.664 112.788 248.69 112.851 248.712 112.902C248.73 112.944 248.741 112.965 248.744 112.964Z" fill="#263238"/>
<g opacity="0.2">
<path d="M235.496 123.123C230.922 124.339 228.142 123.633 223.987 121.379C223.203 120.954 222.253 120.267 221.541 119.732C220.703 119.103 219.974 118.083 219.974 118.083C225.325 120.114 229.766 121.64 235.281 123.179" fill="black"/>
</g>
<path d="M248.73 112.856L247.684 109.958L250.115 106.186C250.541 105.526 251.221 105.07 251.997 104.925L260.939 103.249C260.939 103.249 261.358 104.329 260.186 104.994C259.013 105.658 253.742 106.875 253.742 106.875L261.86 106.738C261.86 106.738 262.111 107.901 261.19 108.316C260.269 108.732 254.486 108.943 254.486 108.943L261.891 109.978C261.891 109.978 261.935 111.144 260.241 111.158C258.883 111.168 256.106 110.973 255.251 110.847C255.108 110.826 254.975 110.922 254.951 111.064C254.928 111.201 255.016 111.332 255.152 111.363L260.076 112.517C260.727 112.669 260.774 113.613 260.126 113.779C260.042 113.801 259.951 113.809 259.851 113.799C259.013 113.716 254.001 113.085 254.001 113.085L253.741 113.665L248.73 112.856Z" fill="#B78876"/>
<path d="M252.407 111.961C252.434 111.969 252.454 111.748 252.683 111.52C252.795 111.408 252.956 111.299 253.155 111.231C253.353 111.163 253.591 111.14 253.839 111.156C254.337 111.191 254.785 111.333 255.123 111.376C255.46 111.428 255.674 111.404 255.673 111.384C255.673 111.362 255.467 111.346 255.144 111.269C254.819 111.2 254.378 111.04 253.849 111.001C253.585 110.985 253.326 111.012 253.106 111.096C252.886 111.18 252.715 111.312 252.601 111.446C252.369 111.723 252.392 111.968 252.407 111.961Z" fill="#AA6550"/>
<path d="M251.599 109.753C251.612 109.755 251.621 109.671 251.688 109.544C251.753 109.417 251.888 109.249 252.114 109.127C252.567 108.865 253.331 108.952 254.134 109.005C254.944 109.073 255.674 109.177 256.204 109.246C256.734 109.316 257.063 109.353 257.067 109.331C257.07 109.311 256.747 109.236 256.221 109.138C255.695 109.042 254.964 108.919 254.147 108.851C253.738 108.818 253.349 108.798 252.99 108.805C252.631 108.812 252.297 108.882 252.058 109.033C251.818 109.179 251.684 109.375 251.632 109.519C251.578 109.665 251.591 109.753 251.599 109.753Z" fill="#AA6550"/>
<path d="M250.983 108.467C251.014 108.469 250.941 108.171 251.171 107.795C251.283 107.612 251.465 107.419 251.712 107.277C251.959 107.135 252.273 107.051 252.607 107.015C253.279 106.952 253.909 107.029 254.366 106.979C254.825 106.942 255.09 106.823 255.082 106.806C255.075 106.783 254.807 106.861 254.36 106.87C253.914 106.892 253.294 106.797 252.59 106.861C252.24 106.899 251.906 106.991 251.639 107.154C251.372 107.317 251.184 107.535 251.075 107.742C250.966 107.95 250.936 108.143 250.942 108.271C250.947 108.401 250.976 108.468 250.983 108.467Z" fill="#AA6550"/>
<path d="M221.95 108.459C221.961 108.457 221.944 108.286 221.903 107.977C221.865 107.668 221.79 107.223 221.685 106.676C221.478 105.581 221.113 104.086 220.727 102.435C220.34 100.783 220.062 99.2737 219.944 98.1703C219.907 97.8953 219.892 97.645 219.872 97.4253C219.85 97.2058 219.839 97.0161 219.833 96.8612C219.817 96.5511 219.802 96.3793 219.791 96.3793C219.781 96.3793 219.774 96.5511 219.773 96.863C219.77 97.0188 219.771 97.2097 219.785 97.4306C219.797 97.6515 219.804 97.9039 219.835 98.1813C219.925 99.2933 220.187 100.815 220.574 102.47C220.962 104.124 221.343 105.612 221.577 106.698C221.695 107.241 221.787 107.681 221.843 107.987C221.902 108.292 221.94 108.46 221.95 108.459Z" fill="#263238"/>
<path d="M218.842 127.963C218.843 127.968 218.904 127.959 219.018 127.935C219.148 127.905 219.313 127.868 219.516 127.822C219.966 127.712 220.584 127.562 221.338 127.378C222.875 126.992 224.993 126.439 227.322 125.795C229.653 125.15 231.753 124.537 233.269 124.078C234.011 123.848 234.618 123.66 235.061 123.523C235.258 123.458 235.419 123.405 235.545 123.364C235.656 123.326 235.713 123.303 235.711 123.298C235.71 123.293 235.649 123.305 235.536 123.334C235.407 123.368 235.244 123.412 235.043 123.466C234.597 123.591 233.985 123.763 233.238 123.973C231.695 124.406 229.598 124.995 227.28 125.646C224.958 126.278 222.856 126.851 221.31 127.272C220.561 127.476 219.948 127.642 219.5 127.764C219.301 127.821 219.138 127.868 219.01 127.904C218.898 127.938 218.841 127.958 218.842 127.963Z" fill="#263238"/>
<path d="M249.692 41.7238C249.034 39.7065 245.655 37.8822 243.802 36.8252C241.032 35.2446 238.463 35.5622 236.881 36.967C234.02 34.5855 230.255 32.2994 226.642 33.2359C223.028 34.1725 220.098 37.8423 220.756 41.4896C221.144 43.638 222.645 45.5655 222.557 47.7464C222.497 49.233 221.703 50.5751 221.071 51.9243C220.439 53.2736 219.952 54.8455 220.516 56.2245C221.04 57.5077 222.35 58.3081 223.055 59.5031C223.629 60.4762 223.762 61.6366 224.129 62.704C225.49 66.6596 230.197 68.8758 234.351 68.1813C238.505 67.4867 241.964 64.3845 243.926 60.6858C245.887 56.9868 246.537 52.742 246.765 48.5685" fill="#263238"/>
<path d="M246.63 44.4985L245.802 77.4723C245.504 81.2522 241.992 84.0086 237.915 83.662C233.798 83.3117 230.655 79.9312 230.892 76.1082C231.14 72.0956 231.328 67.8668 231.328 67.8668C231.328 67.8668 226.174 66.6751 225.534 59.8629C225.205 56.3723 225.775 50.6525 226.373 46.1067C226.874 42.2959 230.469 39.6658 234.287 40.3152" fill="#B78876"/>
<path d="M227.89 50.9921C227.844 51.4476 228.195 51.862 228.674 51.9182C229.152 51.9744 229.577 51.6518 229.623 51.196C229.669 50.7405 229.318 50.3258 228.841 50.2693C228.362 50.2131 227.936 50.5366 227.89 50.9921Z" fill="#263238"/>
<path d="M227.039 50.1111C227.139 50.2306 227.831 49.7882 228.769 49.8507C229.707 49.8997 230.364 50.4224 230.473 50.3151C230.527 50.2678 230.43 50.0573 230.144 49.8215C229.863 49.5869 229.374 49.3452 228.789 49.3101C228.205 49.2759 227.699 49.4579 227.403 49.6583C227.1 49.8596 226.989 50.0573 227.039 50.1111Z" fill="#263238"/>
<path d="M236.908 51.9269C236.862 52.3824 237.213 52.7968 237.692 52.853C238.17 52.9092 238.595 52.5866 238.641 52.1308C238.687 51.6753 238.336 51.2603 237.858 51.2041C237.38 51.1479 236.954 51.4714 236.908 51.9269Z" fill="#263238"/>
<path d="M236.248 50.8752C236.349 50.9947 237.041 50.5526 237.978 50.6151C238.916 50.6641 239.573 51.1871 239.683 51.0795C239.736 51.0322 239.64 50.8217 239.353 50.5859C239.072 50.3513 238.582 50.1096 237.998 50.0745C237.413 50.0403 236.908 50.2223 236.611 50.4224C236.31 50.6237 236.198 50.8214 236.248 50.8752Z" fill="#263238"/>
<path d="M232.394 57.5584C232.402 57.5058 231.825 57.3687 230.888 57.1882C230.65 57.1484 230.427 57.0865 230.397 56.9218C230.352 56.7464 230.469 56.4966 230.603 56.2279C230.865 55.6671 231.14 55.0796 231.429 54.4639C232.58 51.9506 233.43 49.8777 233.328 49.8328C233.225 49.7876 232.209 51.788 231.058 54.3015C230.78 54.9214 230.514 55.5125 230.261 56.0783C230.153 56.3426 229.977 56.6388 230.076 57.003C230.129 57.1846 230.297 57.3247 230.447 57.3758C230.598 57.432 230.732 57.4433 230.851 57.4579C231.798 57.5691 232.387 57.6113 232.394 57.5584Z" fill="#263238"/>
<path d="M231.327 67.8666C231.327 67.8666 235.881 68.4517 240.587 66.0404C240.587 66.0404 238.012 70.5796 231.25 69.5128L231.327 67.8666Z" fill="#AA6550"/>
<path d="M236.242 47.2128C236.318 47.4718 237.263 47.4117 238.355 47.6136C239.451 47.794 240.317 48.1705 240.478 47.9528C240.55 47.8485 240.411 47.6005 240.068 47.3326C239.729 47.0653 239.176 46.7965 238.52 46.6812C237.865 46.5673 237.253 46.6324 236.841 46.7686C236.427 46.9042 236.211 47.0903 236.242 47.2128Z" fill="#263238"/>
<path d="M227.558 47.4399C227.71 47.6617 228.37 47.4837 229.148 47.5232C229.927 47.5357 230.574 47.7569 230.74 47.5458C230.813 47.4426 230.723 47.2244 230.449 47.0059C230.178 46.7882 229.715 46.595 229.18 46.5768C228.645 46.5596 228.17 46.7213 227.886 46.9205C227.597 47.1203 227.492 47.3323 227.558 47.4399Z" fill="#263238"/>
<path d="M233.85 59.3095C233.117 59.3163 232.749 59.5224 232.127 59.9077C231.948 60.0186 231.771 60.1524 231.683 60.343C231.565 60.5996 231.638 60.9064 231.776 61.1529C232.078 61.6919 232.712 62.038 233.331 61.9765C233.949 61.9149 234.51 61.4345 234.636 60.8303C234.762 60.2259 234.422 59.5506 233.85 59.3095Z" fill="#AA6550"/>
<path d="M231.36 60.8669C231.349 60.9374 231.594 61.0456 232.003 61.0215C232.41 61.0034 232.949 60.8399 233.473 60.5449C233.997 60.2476 234.407 59.8804 234.648 59.5667C234.894 59.2539 234.968 59.0086 234.906 58.9688C234.78 58.8894 234.163 59.5301 233.195 60.0597C232.718 60.327 232.267 60.5247 231.93 60.6332C231.596 60.7477 231.369 60.7851 231.36 60.8669Z" fill="#263238"/>
<path d="M235.99 55.0596C235.853 55.0596 235.741 54.949 235.741 54.8126C235.741 54.6761 235.853 54.5655 235.99 54.5655C236.128 54.5655 236.239 54.6761 236.239 54.8126C236.239 54.949 236.128 55.0596 235.99 55.0596Z" fill="#AA6550"/>
<path d="M228.699 53.603C228.699 53.7395 228.811 53.8501 228.948 53.8501C229.086 53.8501 229.197 53.7395 229.197 53.603C229.197 53.4666 229.086 53.356 228.948 53.356C228.811 53.356 228.699 53.4666 228.699 53.603Z" fill="#AA6550"/>
<path d="M227.324 54.2462C227.324 54.3826 227.435 54.4932 227.573 54.4932C227.71 54.4932 227.822 54.3826 227.822 54.2462C227.822 54.1097 227.71 53.9991 227.573 53.9991C227.435 53.9991 227.324 54.1097 227.324 54.2462Z" fill="#AA6550"/>
<path d="M226.905 53.2133C226.905 53.3497 227.016 53.4603 227.154 53.4603C227.291 53.4603 227.403 53.3497 227.403 53.2133C227.403 53.0768 227.291 52.9662 227.154 52.9662C227.016 52.9662 226.905 53.0768 226.905 53.2133Z" fill="#AA6550"/>
<path d="M236.881 55.9041C236.881 56.0405 236.992 56.1511 237.13 56.1511C237.267 56.1511 237.379 56.0405 237.379 55.9041C237.379 55.7676 237.267 55.657 237.13 55.657C236.992 55.657 236.881 55.7676 236.881 55.9041Z" fill="#AA6550"/>
<path d="M237.815 54.9101C237.815 55.0466 237.926 55.1572 238.064 55.1572C238.201 55.1572 238.313 55.0466 238.313 54.9101C238.313 54.7736 238.201 54.663 238.064 54.663C237.926 54.663 237.815 54.7736 237.815 54.9101Z" fill="#AA6550"/>
<path d="M233.737 51.9247C233.762 51.9267 233.734 51.542 233.902 50.884C234.069 50.2391 234.502 49.2904 235.48 48.5569C235.964 48.1983 236.574 47.8942 237.277 47.7723C237.975 47.6545 238.763 47.6774 239.512 47.9611C239.89 48.0913 240.253 48.2884 240.588 48.5367C240.926 48.7802 241.232 49.0826 241.485 49.4328C242.008 50.1229 242.303 51.0101 242.311 51.9241C242.303 52.8383 242.009 53.7258 241.486 54.4162C241.233 54.7668 240.926 55.0691 240.588 55.3126C240.254 55.5612 239.89 55.758 239.513 55.8883C238.763 56.1719 237.975 56.1945 237.277 56.077C236.574 55.9551 235.964 55.6507 235.48 55.2921C234.502 54.5583 234.069 53.6099 233.903 52.965C233.734 52.3073 233.762 51.9226 233.737 51.9247C233.735 51.9247 233.733 51.9481 233.733 51.9942C233.734 52.0495 233.734 52.117 233.736 52.1991C233.735 52.2895 233.74 52.401 233.762 52.5312C233.779 52.662 233.796 52.8139 233.843 52.9796C233.914 53.3158 234.066 53.7142 234.311 54.1379C234.558 54.5598 234.918 55.0022 235.412 55.3789C235.905 55.7524 236.529 56.0714 237.253 56.2028C237.972 56.3298 238.785 56.3113 239.561 56.022C239.952 55.8888 240.33 55.687 240.677 55.431C241.027 55.18 241.346 54.8678 241.609 54.5054C242.152 53.7915 242.459 52.871 242.467 51.9235C242.459 50.9762 242.152 50.056 241.609 49.3424C241.345 48.9803 241.027 48.6681 240.676 48.4172C240.33 48.1615 239.952 47.9593 239.561 47.8264C238.785 47.5371 237.972 47.5187 237.253 47.6456C236.53 47.777 235.905 48.0961 235.413 48.4695C234.919 48.8462 234.559 49.2886 234.312 49.7105C234.067 50.1342 233.914 50.5329 233.844 50.8692C233.797 51.0348 233.78 51.1867 233.762 51.3175C233.74 51.4481 233.736 51.5596 233.736 51.6499C233.735 51.732 233.734 51.7992 233.733 51.8548C233.733 51.9012 233.735 51.9247 233.737 51.9247Z" fill="white"/>
<path d="M231.861 50.626C231.88 50.6685 232.314 50.441 232.886 50.507C233.459 50.5603 233.836 50.8722 233.864 50.8344C233.876 50.8207 233.801 50.7214 233.635 50.6096C233.47 50.4978 233.208 50.3854 232.902 50.353C232.595 50.3218 232.316 50.3774 232.131 50.4529C231.945 50.5285 231.851 50.6102 231.861 50.626Z" fill="white"/>
<path d="M234.598 39.3519C235.212 44.7233 239.227 49.5625 244.423 51.1915C242.746 53.5882 243.802 58.1473 243.759 61.9539C243.719 65.4926 243.721 66.5041 246.032 68.3077C247.941 68.7647 249.043 63.5737 250.462 62.1243C251.881 60.6748 253.239 58.8871 253.133 56.8691C253.084 55.9257 252.713 55.0213 252.661 54.0782C252.603 53.0316 252.94 52.0088 253.127 50.9774C253.954 46.4123 251.569 41.5039 247.561 39.1161C243.553 36.7286 238.203 36.8915 234.228 39.3325" fill="#263238"/>
<path d="M246.067 61.4399C246.61 59.6155 247.373 58.1797 248.575 56.6985L248.489 56.8831C249.441 54.7308 251.808 53.2802 254.174 53.3994C256.54 53.5189 258.747 55.2006 259.474 57.4373C260.201 59.6741 259.399 62.3182 257.548 63.7857C258.225 63.6389 258.906 64.213 259.057 64.8834C259.208 65.5539 258.943 66.2559 258.552 66.8232C257.146 68.8613 253.96 69.3989 251.955 67.9363C250.367 69.0034 248.018 68.3814 246.841 66.8803C245.664 65.3791 245.525 63.2645 246.067 61.4399Z" fill="#263238"/>
<path d="M252.502 53.571C252.505 53.5745 252.564 53.5097 252.672 53.381C252.772 53.2478 252.902 53.031 252.987 52.7221C253.171 52.1067 253.085 51.1338 252.592 50.1063C252.359 49.5881 251.982 49.0669 251.508 48.5983C251.042 48.1193 250.503 47.643 249.877 47.2211C249.253 46.7983 248.541 46.429 247.759 46.1686C246.982 45.906 246.158 45.7006 245.318 45.4919C244.478 45.2826 243.659 45.0771 242.891 44.8101C242.123 44.5461 241.402 44.233 240.742 43.8845C239.422 43.1873 238.336 42.3789 237.501 41.6225C236.665 40.8647 236.069 40.1689 235.678 39.6751C235.479 39.4301 235.336 39.2309 235.237 39.0974C235.138 38.9642 235.083 38.8955 235.079 38.8985C235.074 38.9014 235.12 38.9758 235.211 39.1149C235.302 39.2544 235.437 39.4598 235.63 39.7113C236.007 40.2186 236.594 40.9292 237.426 41.7028C238.257 42.4746 239.345 43.2994 240.674 44.01C241.339 44.3653 242.065 44.6843 242.841 44.9528C243.616 45.2243 244.439 45.4321 245.28 45.6414C246.12 45.8501 246.94 46.0538 247.71 46.3116C248.479 46.5655 249.179 46.9253 249.796 47.3385C250.415 47.7506 250.951 48.2171 251.415 48.6869C251.891 49.151 252.254 49.6437 252.492 50.153C252.989 51.1561 253.089 52.1043 252.928 52.7067C252.778 53.3194 252.472 53.5552 252.502 53.571Z" fill="#455A64"/>
<path d="M235.079 38.8987C235.075 38.9023 235.123 38.9609 235.219 39.0691C235.314 39.1785 235.461 39.3337 235.651 39.532C236.035 39.9257 236.609 40.4796 237.38 41.095C238.156 41.6989 239.128 42.3881 240.352 42.8742C240.965 43.1183 241.641 43.2673 242.336 43.4076C243.034 43.5459 243.762 43.6547 244.506 43.7659C245.992 43.9847 247.41 44.2145 248.639 44.6278C249.864 45.0453 250.893 45.6319 251.631 46.2699C252.374 46.9038 252.832 47.5645 253.074 48.0503C253.192 48.2959 253.279 48.4888 253.324 48.6259C253.374 48.7603 253.404 48.8305 253.409 48.8293C253.414 48.8278 253.395 48.7546 253.353 48.6161C253.318 48.4752 253.239 48.2768 253.128 48.0241C252.9 47.5243 252.448 46.8423 251.703 46.1879C250.963 45.529 249.924 44.9237 248.685 44.4934C247.442 44.0671 246.016 43.8322 244.529 43.6134C243.785 43.5022 243.06 43.3945 242.366 43.2592C241.672 43.1216 241.005 42.9774 240.405 42.7419C239.198 42.2718 238.228 41.5984 237.449 41.0097C236.674 40.4091 236.09 39.8695 235.694 39.4898C235.507 39.3064 235.356 39.1598 235.242 39.048C235.139 38.9466 235.082 38.8952 235.079 38.8987Z" fill="#455A64"/>
<path d="M227.469 33.0177C227.465 33.0525 228.053 33.0718 228.96 33.3115C229.186 33.3727 229.432 33.442 229.689 33.5431C229.951 33.6281 230.215 33.7556 230.497 33.8808C231.051 34.1544 231.635 34.5034 232.197 34.9402C232.754 35.385 233.229 35.8708 233.622 36.3441C233.809 36.5885 233.994 36.816 234.137 37.0497C234.294 37.2744 234.417 37.4971 234.529 37.7017C234.969 38.5235 235.121 39.0875 235.154 39.0762C235.165 39.0732 235.127 38.9332 235.05 38.6817C235.014 38.555 234.965 38.4019 234.889 38.2306C234.815 38.0588 234.743 37.8572 234.627 37.6512C234.521 37.4406 234.4 37.2114 234.246 36.9801C234.105 36.7396 233.921 36.5059 233.735 36.2549C233.341 35.7691 232.861 35.2711 232.295 34.8189C231.723 34.3744 231.126 34.0226 230.56 33.7518C230.271 33.6281 230 33.5032 229.732 33.4218C229.47 33.3245 229.218 33.2603 228.987 33.2047C228.759 33.1393 228.544 33.1152 228.359 33.0828C228.174 33.0477 228.012 33.0343 227.879 33.0281C227.615 33.0115 227.469 33.0073 227.469 33.0177Z" fill="#455A64"/>
<path d="M222.643 58.6908C222.645 58.689 222.63 58.6688 222.598 58.631C222.56 58.5867 222.513 58.5326 222.455 58.4657C222.33 58.3206 222.143 58.1086 221.928 57.8164C221.719 57.5241 221.463 57.1498 221.326 56.6592C221.259 56.4151 221.227 56.1425 221.263 55.8588C221.302 55.5764 221.406 55.2868 221.571 55.0126C221.894 54.4564 222.426 53.9705 222.912 53.3711C223.395 52.7699 223.842 52.0698 224.192 51.2771C224.545 50.4865 224.81 49.6076 224.934 48.6732C225.062 47.7366 225.021 46.7611 225.007 45.7734C224.993 44.7866 225.019 43.8152 225.272 42.9239C225.52 42.034 225.995 41.2493 226.569 40.6235C227.144 39.994 227.824 39.5216 228.52 39.2174C229.215 38.9073 229.925 38.7732 230.572 38.7486C231.876 38.6995 232.903 39.0729 233.545 39.3973C233.868 39.5638 234.106 39.7175 234.264 39.8264C234.336 39.8772 234.394 39.9188 234.442 39.9524C234.483 39.9801 234.505 39.9935 234.506 39.9914C234.506 39.9914 234.219 39.6982 233.573 39.3441C232.933 39.0001 231.897 38.6038 230.568 38.6395C229.909 38.6576 229.181 38.7881 228.468 39.1003C227.753 39.4065 227.054 39.8861 226.463 40.5277C225.871 41.1661 225.382 41.9689 225.124 42.8837C224.863 43.7986 224.837 44.786 224.851 45.7761C224.864 46.7676 224.906 47.7345 224.782 48.6541C224.662 49.5737 224.404 50.4401 224.06 51.2206C223.719 52.0032 223.282 52.6959 222.811 53.292C222.338 53.8846 221.804 54.3796 221.475 54.9585C221.307 55.2437 221.201 55.5496 221.164 55.8472C221.13 56.146 221.168 56.4315 221.241 56.683C221.393 57.189 221.66 57.5628 221.879 57.8529C222.103 58.1425 222.299 58.3483 222.432 58.4871C222.494 58.5499 222.545 58.6007 222.586 58.642C222.622 58.6762 222.641 58.6929 222.643 58.6908Z" fill="#455A64"/>
<path d="M223.335 50.8766C223.36 50.8787 223.332 50.494 223.5 49.836C223.666 49.1911 224.1 48.2424 225.077 47.5089C225.562 47.1506 226.172 46.8461 226.875 46.7242C227.573 46.6068 228.361 46.6294 229.11 46.913C229.487 47.0433 229.851 47.2404 230.185 47.4887C230.523 47.7322 230.83 48.0345 231.083 48.3848C231.606 49.0749 231.901 49.9621 231.909 50.876C231.901 51.7903 231.606 52.6778 231.083 53.3682C230.83 53.7187 230.523 54.0211 230.185 54.2646C229.851 54.5132 229.487 54.71 229.11 54.8405C228.361 55.1242 227.573 55.1468 226.874 55.0293C226.171 54.9074 225.561 54.603 225.077 54.2444C224.1 53.5106 223.666 52.5621 223.5 51.9173C223.332 51.2596 223.36 50.8745 223.335 50.8766C223.333 50.8766 223.331 50.9001 223.331 50.9462C223.332 51.0015 223.332 51.069 223.334 51.1511C223.333 51.2414 223.338 51.3529 223.36 51.4832C223.377 51.614 223.394 51.7659 223.441 51.9315C223.512 52.2678 223.664 52.6662 223.909 53.0899C224.156 53.5118 224.516 53.9542 225.01 54.3309C225.503 54.7043 226.127 55.0234 226.851 55.1548C227.569 55.2817 228.382 55.2633 229.159 54.974C229.55 54.8408 229.927 54.6389 230.274 54.3829C230.625 54.132 230.944 53.8198 231.206 53.4574C231.749 52.7435 232.057 51.823 232.065 50.8754C232.056 49.9282 231.749 49.008 231.206 48.2944C230.943 47.9323 230.624 47.6201 230.274 47.3691C229.927 47.1134 229.55 46.9113 229.159 46.7783C228.382 46.4891 227.569 46.4706 226.851 46.5976C226.127 46.729 225.502 47.048 225.01 47.4215C224.516 47.7985 224.156 48.2406 223.909 48.6625C223.664 49.0862 223.512 49.4849 223.441 49.8208C223.394 49.9864 223.377 50.1384 223.36 50.2692C223.338 50.3997 223.333 50.5112 223.334 50.6016C223.332 50.6837 223.331 50.7512 223.331 50.8065C223.331 50.8531 223.333 50.8766 223.335 50.8766Z" fill="white"/>
<path d="M246.074 68.4189C246.077 68.423 246.127 68.3891 246.22 68.3205C246.313 68.2524 246.447 68.1483 246.618 68.0124C246.957 67.7365 247.451 67.3363 247.981 66.7563C248.501 66.1812 249.081 65.3859 249.262 64.3423C249.355 63.8241 249.316 63.277 249.336 62.7249C249.349 62.1733 249.458 61.6031 249.803 61.1294C250.134 60.6502 250.579 60.2714 250.975 59.8697C251.379 59.4746 251.715 59.0244 251.94 58.5538C252.171 58.0849 252.315 57.608 252.407 57.1563C252.493 56.7038 252.549 56.2763 252.532 55.8799C252.515 55.4851 252.436 55.1393 252.402 54.8358C252.362 54.5319 252.362 54.2682 252.385 54.0541C252.435 53.626 252.519 53.397 252.502 53.3929C252.497 53.3914 252.475 53.4473 252.439 53.5564C252.402 53.6655 252.359 53.8302 252.325 54.047C252.293 54.264 252.283 54.5355 252.315 54.8453C252.342 55.1554 252.412 55.5012 252.422 55.8841C252.418 56.6441 252.258 57.5797 251.812 58.4907C251.588 58.9477 251.267 59.3747 250.867 59.7636C250.475 60.159 250.023 60.5402 249.675 61.0426C249.5 61.2915 249.369 61.571 249.295 61.8594C249.217 62.1472 249.195 62.4383 249.184 62.7201C249.166 63.2835 249.207 63.8223 249.121 64.3197C248.956 65.3238 248.403 66.1072 247.899 66.684C247.387 67.2659 246.906 67.6777 246.58 67.9666C246.426 68.1007 246.301 68.2099 246.201 68.2967C246.114 68.3728 246.07 68.4147 246.074 68.4189Z" fill="#455A64"/>
<path d="M249.477 61.493C249.472 61.4933 249.471 61.5352 249.473 61.6149C249.477 61.6943 249.474 61.8132 249.496 61.9634C249.525 62.2655 249.607 62.7007 249.787 63.2157C249.964 63.7307 250.257 64.32 250.693 64.8985C251.127 65.4771 251.715 66.0361 252.436 66.4699C253.162 66.8951 253.936 67.1457 254.655 67.2521C255.375 67.3601 256.037 67.3375 256.578 67.2495C257.12 67.1626 257.546 67.0289 257.828 66.912C257.972 66.8597 258.076 66.8011 258.149 66.7678C258.221 66.7321 258.258 66.711 258.255 66.7063C258.243 66.6703 257.637 66.9973 256.563 67.1409C256.029 67.2135 255.38 67.2242 254.678 67.1109C253.976 66.9994 253.222 66.7506 252.516 66.3367C251.815 65.9145 251.238 65.3731 250.807 64.812C250.375 64.251 250.078 63.6792 249.89 63.1779C249.511 62.1715 249.515 61.4865 249.477 61.493Z" fill="#455A64"/>
<path d="M250.635 60.0963C250.627 60.0983 250.65 60.2449 250.723 60.5027C250.793 60.7614 250.927 61.1283 251.145 61.5573C251.576 62.4103 252.419 63.5122 253.7 64.2733C254.974 65.041 256.336 65.2982 257.297 65.3193C257.781 65.3324 258.172 65.2997 258.439 65.2604C258.706 65.2209 258.85 65.1849 258.849 65.176C258.845 65.1442 258.256 65.2628 257.302 65.2099C256.355 65.1614 255.027 64.8915 253.781 64.141C252.53 63.3971 251.693 62.3327 251.243 61.5062C250.787 60.6728 250.667 60.0859 250.635 60.0963Z" fill="#455A64"/>
<path d="M259.4 57.1337C259.405 57.1242 259.309 57.0698 259.131 56.9791C259.042 56.9318 258.932 56.8789 258.798 56.8311C258.664 56.7814 258.515 56.7157 258.341 56.6717C257.998 56.5635 257.576 56.4799 257.103 56.432C256.629 56.394 256.103 56.391 255.558 56.463C255.013 56.5385 254.506 56.6741 254.058 56.8355C253.617 57.0133 253.229 57.1974 252.932 57.4001C252.777 57.4908 252.65 57.5925 252.538 57.679C252.423 57.7626 252.33 57.8428 252.26 57.9145C252.115 58.0524 252.039 58.1315 252.047 58.1393C252.068 58.1631 252.384 57.8524 252.99 57.4932C253.289 57.3059 253.674 57.1364 254.108 56.9693C254.549 56.8186 255.046 56.6904 255.578 56.6164C256.112 56.5459 256.626 56.5447 257.09 56.5739C257.554 56.6134 257.97 56.6839 258.31 56.7769C258.994 56.9571 259.387 57.1623 259.4 57.1337Z" fill="#455A64"/>
<path d="M252.501 56.5861C252.53 56.6182 254.42 55.0233 256.723 53.0245C259.027 51.0247 260.871 49.3781 260.843 49.346C260.814 49.3139 258.924 50.9081 256.62 52.9079C254.318 54.9071 252.473 56.554 252.501 56.5861Z" fill="#090914"/>
<path d="M243.868 53.3283C243.901 53.303 243.657 52.9587 243.251 52.6385C242.847 52.3162 242.455 52.1557 242.437 52.1923C242.416 52.2318 242.763 52.4476 243.153 52.7592C243.546 53.0688 243.834 53.3575 243.868 53.3283Z" fill="white"/>
<path d="M252.285 55.0019C252.287 55.0034 252.3 54.9835 252.324 54.9431C252.351 54.894 252.384 54.8345 252.425 54.7617C252.504 54.5982 252.606 54.3449 252.657 54.0006C252.777 53.3215 252.617 52.2467 251.868 51.2364C251.684 50.9842 251.457 50.7461 251.2 50.5198C250.938 50.2983 250.64 50.1036 250.318 49.927C249.671 49.5732 248.914 49.3323 248.106 49.1721C246.485 48.8355 244.661 48.9182 242.801 48.6422C241.872 48.5013 240.98 48.2527 240.2 47.8401C239.419 47.4315 238.748 46.8916 238.189 46.3068C237.061 45.135 236.366 43.8197 235.871 42.7021C235.378 41.5767 235.069 40.6285 234.845 39.9783C234.738 39.6619 234.653 39.4116 234.591 39.2276C234.563 39.1497 234.54 39.0857 234.522 39.0331C234.505 38.9897 234.496 38.9677 234.493 38.9686C234.49 38.9695 234.495 38.993 234.507 39.0379C234.521 39.0917 234.539 39.1568 234.561 39.2368C234.617 39.4229 234.692 39.6765 234.787 39.9967C234.993 40.6532 235.287 41.6079 235.769 42.7455C236.255 43.8747 236.945 45.2097 238.085 46.4052C238.649 47.0016 239.331 47.5546 240.129 47.9742C240.926 48.3984 241.838 48.6529 242.777 48.7954C244.661 49.0737 246.477 48.9868 248.078 49.3124C249.672 49.6038 251.059 50.3019 251.78 51.3024C252.522 52.2806 252.696 53.3256 252.597 53.9928C252.51 54.6737 252.255 54.9918 252.285 55.0019Z" fill="#FAFAFA"/>
<path d="M250.37 66.7937C250.37 66.7937 250.412 67.2495 250.74 67.9997C250.909 68.3704 251.151 68.814 251.523 69.2633C251.892 69.7131 252.391 70.1701 253.038 70.5281C253.685 70.8801 254.485 71.1177 255.357 71.1281C256.223 71.1349 257.177 70.9235 257.989 70.3631C258.797 69.8121 259.457 68.9448 259.734 67.9155C259.878 67.4038 259.91 66.8505 259.825 66.3067C259.732 65.7638 259.519 65.2346 259.199 64.7684C258.669 63.9793 257.85 63.4063 256.971 63.2027L256.965 63.3525C257.92 63.2015 258.807 62.8367 259.538 62.3146C260.269 61.7934 260.838 61.1092 261.173 60.3665C261.509 59.6235 261.63 58.8407 261.571 58.1274C261.516 57.4118 261.265 56.7704 260.92 56.2742C260.573 55.7759 260.142 55.4218 259.734 55.1762C259.321 54.9348 258.926 54.806 258.6 54.7418C258.272 54.6734 258.011 54.6806 257.838 54.6847C257.759 54.6931 257.694 54.6999 257.642 54.7055C257.597 54.7109 257.575 54.7151 257.576 54.7174C257.575 54.7418 257.943 54.6541 258.589 54.795C258.908 54.8664 259.293 55.0005 259.693 55.2434C260.089 55.4905 260.505 55.8422 260.837 56.3307C261.166 56.8165 261.404 57.4403 261.451 58.1366C261.503 58.8303 261.38 59.5911 261.05 60.3109C260.72 61.0299 260.166 61.6908 259.452 62.1963C258.739 62.702 257.872 63.0558 256.942 63.2018L256.555 63.2624L256.936 63.3516C257.774 63.547 258.56 64.0961 259.07 64.8555C259.378 65.3039 259.582 65.8126 259.672 66.332C259.753 66.8517 259.724 67.3833 259.586 67.8766C259.322 68.8687 258.685 69.7111 257.907 70.2459C257.127 70.79 256.202 71.0011 255.358 70.9999C254.509 70.9955 253.726 70.7701 253.091 70.4324C252.455 70.0886 251.959 69.6459 251.59 69.2083C251.218 68.7715 250.971 68.338 250.796 67.975C250.622 67.6096 250.525 67.3099 250.462 67.1065C250.436 67.0111 250.414 66.9341 250.397 66.8728C250.382 66.8199 250.373 66.7931 250.37 66.7937Z" fill="#263238"/>
<path d="M252.146 53.9503C252.147 53.9527 252.172 53.9417 252.219 53.9179C252.274 53.8891 252.343 53.8534 252.427 53.8088C252.606 53.7056 252.867 53.5471 253.172 53.2992C253.776 52.8122 254.6 51.9597 255.098 50.6361C255.606 49.3356 255.663 47.5252 254.839 45.84C254.437 45.0009 253.806 44.2142 252.99 43.6056C252.179 42.9907 251.207 42.5448 250.178 42.24C249.145 41.9335 248.102 41.7756 247.096 41.6825C246.09 41.5877 245.117 41.544 244.194 41.4798C243.271 41.4158 242.396 41.3323 241.587 41.1899C240.779 41.0528 240.041 40.8453 239.39 40.5991C238.083 40.1055 237.163 39.4166 236.617 38.8675C236.349 38.5871 236.158 38.3528 236.037 38.1875C235.982 38.1105 235.937 38.0484 235.901 37.9987C235.869 37.9565 235.852 37.9357 235.85 37.9369C235.85 37.9369 236.041 38.3308 236.574 38.9094C237.111 39.477 238.033 40.1891 239.35 40.7011C240.005 40.9565 240.75 41.1723 241.565 41.3162C242.379 41.4655 243.259 41.5541 244.184 41.6222C246.027 41.7679 248.087 41.7824 250.133 42.3884C251.149 42.6893 252.103 43.1269 252.898 43.7263C253.697 44.3201 254.312 45.0833 254.71 45.9021C255.522 47.5469 255.481 49.3169 254.995 50.5983C254.519 51.9032 253.72 52.7563 253.134 53.2525C252.838 53.5049 252.584 53.6705 252.411 53.7817C252.33 53.8314 252.265 53.8715 252.212 53.9036C252.167 53.9322 252.144 53.9479 252.146 53.9503Z" fill="#263238"/>
<path d="M218.747 49.5672C218.746 49.5592 218.811 49.6778 219.027 49.7046C219.232 49.7301 219.579 49.6002 219.759 49.2318C219.854 49.0502 219.837 48.7963 219.716 48.5837C219.596 48.3675 219.379 48.1903 219.116 48.0815C218.59 47.8529 217.863 47.9435 217.286 48.3657C216.999 48.5756 216.746 48.873 216.605 49.239C216.463 49.6029 216.43 50.0239 216.522 50.4336C216.61 50.8433 216.839 51.2441 217.188 51.5316C217.533 51.8209 217.979 52.0052 218.45 52.0605C219.405 52.1789 220.399 51.7326 221.114 51.0178C221.474 50.6578 221.781 50.2252 221.968 49.731C222.163 49.2402 222.215 48.6839 222.12 48.152C222.029 47.6183 221.832 47.1238 221.636 46.6472C221.435 46.1718 221.248 45.7035 221.092 45.232C220.775 44.2915 220.568 43.3511 220.492 42.4449C220.41 41.5389 220.47 40.6675 220.648 39.8799C220.823 39.0914 221.139 38.3954 221.504 37.8129C222.245 36.6421 223.195 35.9686 223.89 35.6398C224.243 35.4795 224.531 35.3847 224.728 35.3332C224.82 35.3098 224.895 35.2907 224.954 35.2753C225.005 35.2613 225.031 35.253 225.031 35.2503C225.03 35.2476 225.003 35.2509 224.951 35.2598C224.891 35.2711 224.815 35.2854 224.721 35.3032C224.519 35.3451 224.226 35.4317 223.865 35.5854C223.154 35.9011 222.176 36.5716 221.411 37.7543C221.034 38.3424 220.706 39.0489 220.522 39.8516C220.336 40.6517 220.27 41.5377 220.349 42.4568C220.422 43.3767 220.629 44.329 220.947 45.2798C221.103 45.7555 221.292 46.2319 221.492 46.7061C221.687 47.1809 221.88 47.6661 221.966 48.1778C222.056 48.6877 222.008 49.2074 221.823 49.6766C221.645 50.1476 221.351 50.5638 221.006 50.9111C220.317 51.6024 219.366 52.0278 218.467 51.9193C218.021 51.8691 217.6 51.6963 217.276 51.4275C216.948 51.1606 216.734 50.7907 216.648 50.4054C216.559 50.0206 216.587 49.624 216.717 49.2818C216.847 48.9384 217.082 48.6556 217.353 48.4537C217.897 48.0473 218.585 47.9533 219.083 48.1618C219.333 48.2608 219.537 48.4237 219.651 48.6199C219.766 48.8168 219.786 49.0386 219.704 49.2077C219.546 49.5529 219.222 49.6894 219.029 49.6733C218.827 49.6594 218.753 49.5526 218.747 49.5672Z" fill="#263238"/>
<g opacity="0.2">
<path d="M220.661 116.856C219.203 116.448 217.693 117.746 216.217 117.41C215.304 117.202 214.64 116.407 214.233 115.569C213.827 114.731 213.606 113.813 213.175 112.987C212.743 112.162 212.022 111.401 211.093 111.275C210.243 111.161 209.234 111.556 208.601 110.982C208.111 110.538 208.18 109.712 208.568 109.178C208.957 108.645 209.576 108.333 210.17 108.042C210.837 107.714 211.513 107.384 212.241 107.228C212.968 107.072 213.765 107.106 214.408 107.478C215.655 108.197 215.911 109.828 216.269 111.215C216.517 112.18 216.884 113.131 217.492 113.923C218.101 114.715 218.974 115.339 219.963 115.505C220.34 115.568 220.746 115.572 221.061 115.785C221.376 115.998 221.498 116.535 221.173 116.734" fill="black"/>
</g>
<path d="M228.251 111.512L222.791 109.636L217.898 102.046C217.415 101.297 216.642 100.778 215.762 100.614L206.984 98.9689C206.984 98.9689 206.566 100.049 207.738 100.713C208.91 101.378 214.181 102.595 214.181 102.595L206.063 102.458C206.063 102.458 205.812 103.62 206.733 104.036C207.654 104.451 213.437 104.662 213.437 104.662L206.032 105.697C206.032 105.697 205.989 106.864 207.682 106.877C209.04 106.888 211.817 106.692 212.672 106.566C212.815 106.545 212.948 106.642 212.972 106.783C212.995 106.92 212.907 107.051 212.771 107.083L207.848 108.236C207.196 108.389 207.15 109.333 207.798 109.499C207.882 109.52 207.973 109.528 208.073 109.518C208.91 109.435 213.923 108.805 213.923 108.805C213.923 108.805 215.691 114.951 216.837 115.449C217.983 115.947 220.381 116.08 220.381 116.08L225.476 118.083L228.251 111.512Z" fill="#B78876"/>
<path d="M206.614 102.423C206.613 102.434 206.765 102.448 207.039 102.465C207.343 102.48 207.733 102.499 208.201 102.522C209.182 102.563 210.538 102.609 212.036 102.65C212.784 102.669 213.496 102.686 214.148 102.703C214.795 102.711 215.379 102.753 215.823 102.941C216.269 103.122 216.549 103.418 216.684 103.645C216.821 103.876 216.838 104.03 216.854 104.027C216.859 104.026 216.857 103.988 216.845 103.916C216.83 103.845 216.802 103.74 216.738 103.615C216.612 103.369 216.331 103.044 215.867 102.841C215.405 102.63 214.8 102.576 214.153 102.56C213.5 102.54 212.789 102.518 212.041 102.496C210.543 102.454 209.187 102.426 208.205 102.412C207.736 102.409 207.346 102.407 207.041 102.405C206.766 102.407 206.614 102.412 206.614 102.423Z" fill="#AA6550"/>
<path d="M206.503 105.718C206.505 105.729 206.644 105.718 206.896 105.69C207.177 105.655 207.534 105.611 207.958 105.558C208.854 105.439 210.089 105.265 211.453 105.063C212.135 104.969 212.785 104.845 213.372 104.795C213.959 104.743 214.491 104.843 214.874 105.064C215.263 105.276 215.505 105.553 215.65 105.752C215.794 105.954 215.85 106.083 215.862 106.077C215.867 106.075 215.857 106.041 215.834 105.979C215.809 105.917 215.767 105.828 215.701 105.718C215.567 105.505 215.329 105.204 214.929 104.969C214.535 104.723 213.966 104.606 213.362 104.653C212.757 104.697 212.113 104.815 211.43 104.909C210.067 105.112 208.833 105.303 207.942 105.449C207.52 105.522 207.167 105.583 206.887 105.63C206.638 105.677 206.502 105.708 206.503 105.718Z" fill="#AA6550"/>
<path d="M210.624 107.586C210.63 107.607 210.957 107.531 211.482 107.402C212.008 107.275 212.733 107.085 213.538 106.92C213.736 106.886 213.944 106.836 214.117 106.836C214.297 106.84 214.468 106.899 214.618 106.98C214.917 107.147 215.142 107.379 215.274 107.601C215.54 108.057 215.502 108.414 215.532 108.408C215.542 108.409 215.559 108.325 215.551 108.171C215.541 108.019 215.501 107.794 215.37 107.547C215.239 107.3 215.01 107.045 214.688 106.856C214.526 106.764 214.334 106.691 214.122 106.684C213.904 106.684 213.716 106.733 213.508 106.768C212.693 106.935 211.973 107.142 211.453 107.296C210.934 107.453 210.618 107.566 210.624 107.586Z" fill="#AA6550"/>
<path d="M268.784 115.595L252.407 113.597L223.683 108.963L219.974 118.207C230.774 121.92 241.835 125.265 252.695 128.21C253.44 128.412 254.63 128.434 255.403 128.437C259.017 128.45 267.962 127.005 268.784 115.595Z" fill="#090914"/>
<path d="M219.974 118.207C219.974 118.207 220.003 118.153 220.05 118.044C220.099 117.927 220.167 117.766 220.255 117.56C220.433 117.126 220.69 116.501 221.017 115.705C221.672 114.091 222.607 111.785 223.742 108.986L223.673 109.025C227.567 109.67 232.402 110.471 237.631 111.337C240.923 111.9 244.087 112.265 246.953 112.641C248.387 112.829 249.748 113.018 251.017 113.221C251.652 113.323 252.263 113.428 252.85 113.534C253.436 113.65 254.004 113.731 254.52 113.898C255.558 114.22 256.408 114.753 257.047 115.327C257.687 115.904 258.127 116.512 258.426 117.037C258.73 117.562 258.892 118.007 258.996 118.308C259.047 118.459 259.081 118.576 259.103 118.654C259.127 118.733 259.14 118.773 259.142 118.772C259.142 118.772 259.118 118.605 259.026 118.298C258.931 117.993 258.777 117.542 258.479 117.008C258.185 116.474 257.748 115.854 257.105 115.263C256.463 114.676 255.605 114.129 254.553 113.794C254.027 113.621 253.456 113.537 252.872 113.417C252.285 113.308 251.673 113.2 251.038 113.095C249.768 112.886 248.406 112.692 246.972 112.5C244.104 112.116 240.946 111.748 237.655 111.184C232.425 110.329 227.588 109.539 223.692 108.902L223.642 108.894L223.624 108.941C222.51 111.748 221.592 114.06 220.95 115.679C220.636 116.48 220.39 117.11 220.219 117.547C220.14 117.756 220.077 117.92 220.032 118.038C219.991 118.148 219.974 118.207 219.974 118.207Z" fill="#263238"/>
<path d="M259.973 127.944C259.972 127.941 259.928 127.951 259.842 127.971C259.75 127.993 259.624 128.024 259.462 128.064C259.127 128.136 258.633 128.249 257.986 128.327C256.698 128.495 254.784 128.553 252.503 128.065C251.934 127.944 251.346 127.784 250.732 127.611C250.119 127.44 249.481 127.261 248.82 127.077C247.5 126.701 246.091 126.3 244.608 125.877C241.644 125.021 238.392 124.059 234.99 123.01C229.284 121.255 224.064 119.537 219.995 118.149L220.032 118.23C221.153 115.405 222.071 113.092 222.711 111.478C223.024 110.679 223.269 110.053 223.439 109.619C223.519 109.411 223.581 109.249 223.625 109.132C223.666 109.021 223.683 108.963 223.683 108.963C223.683 108.963 223.655 109.017 223.608 109.125C223.559 109.24 223.492 109.4 223.405 109.606C223.228 110.037 222.973 110.659 222.646 111.453C221.994 113.062 221.059 115.368 219.917 118.185L219.893 118.244L219.955 118.265C224.018 119.672 229.236 121.402 234.944 123.158C238.347 124.207 241.601 125.165 244.568 126.014C246.053 126.432 247.464 126.829 248.786 127.201C249.447 127.382 250.086 127.558 250.701 127.726C251.314 127.896 251.907 128.054 252.48 128.172C254.779 128.649 256.704 128.574 257.994 128.387C259.291 128.2 259.973 127.944 259.973 127.944Z" fill="#263238"/>
<path d="M253.623 113.597C253.622 113.608 253.768 113.629 254.033 113.658C254.329 113.687 254.706 113.725 255.157 113.77C256.136 113.865 257.431 113.991 258.863 114.13C260.294 114.281 261.588 114.418 262.566 114.522C263.017 114.568 263.393 114.607 263.689 114.638C263.954 114.663 264.102 114.672 264.103 114.661C264.105 114.651 263.959 114.622 263.696 114.578C263.433 114.535 263.051 114.478 262.579 114.413C261.634 114.283 260.327 114.123 258.879 113.976C257.431 113.829 256.117 113.723 255.166 113.66C254.69 113.629 254.305 113.608 254.038 113.598C253.771 113.587 253.624 113.586 253.623 113.597Z" fill="#263238"/>
</svg>
