<svg width="25" height="25" viewBox="0 0 25 25" fill="none" xmlns="http://www.w3.org/2000/svg">
<g clip-path="url(#clip0_2010_1683)">
<path d="M9.16673 16.6667L12.5001 20M12.5001 20L15.8334 16.6667M12.5001 20V12.5M19.9001 17.575C20.6246 17.0655 21.1679 16.3385 21.4511 15.4993C21.7344 14.6601 21.7429 13.7525 21.4754 12.9082C21.2079 12.0639 20.6783 11.3267 19.9635 10.8038C19.2486 10.2809 18.3858 9.99931 17.5001 10H16.4501C16.1994 9.02323 15.7305 8.11605 15.0785 7.34674C14.4265 6.57743 13.6085 5.96606 12.6861 5.55863C11.7636 5.15121 10.7608 4.95836 9.75301 4.9946C8.74524 5.03084 7.75883 5.29523 6.86803 5.76786C5.97723 6.24049 5.20525 6.90905 4.61022 7.7232C4.01519 8.53735 3.61261 9.47588 3.43278 10.4681C3.25296 11.4604 3.30057 12.4805 3.57205 13.4517C3.84352 14.4229 4.33178 15.3198 5.00007 16.075" stroke="#6F7C81" stroke-width="1.66667" stroke-linecap="round" stroke-linejoin="round"/>
</g>
<defs>
<clipPath id="clip0_2010_1683">
<rect width="20" height="20" fill="white" transform="translate(2.5 2.5)"/>
</clipPath>
</defs>
</svg>
