<svg width="24" height="24" viewBox="0 0 24 24" fill="none" xmlns="http://www.w3.org/2000/svg">
<g id="fi_2874797">
<path id="Vector" d="M20.25 9H14.3789C13.0669 9 12 7.93313 12 6.62109V0.75C12 0.48 12.0712 0.223125 12.2002 0H4.62891C3.73078 0 3 0.730781 3 1.62891V22.3711C3 23.2692 3.73078 24 4.62891 24H19.3711C20.2692 24 21 23.2692 21 22.3711V8.79984C20.7769 8.92875 20.52 9 20.25 9ZM9.21984 13.7198C9.51281 13.4269 9.98719 13.4269 10.2802 13.7198L11.25 14.6892V10.125C11.25 9.71062 11.5856 9.375 12 9.375C12.4144 9.375 12.75 9.71062 12.75 10.125V14.6892L13.7198 13.7198C14.0123 13.4269 14.4877 13.4269 14.7802 13.7198C15.0731 14.0123 15.0731 14.4877 14.7802 14.7802L12.5302 17.0302C12.372 17.1923 12.1443 17.2656 11.9278 17.2467C11.5522 17.1966 11.6707 17.231 9.21984 14.7802C8.92688 14.4877 8.92688 14.0123 9.21984 13.7198ZM15.75 20.25H8.25C7.83563 20.25 7.5 19.9144 7.5 19.5C7.5 19.0856 7.83563 18.75 8.25 18.75H15.75C16.1644 18.75 16.5 19.0856 16.5 19.5C16.5 19.9144 16.1644 20.25 15.75 20.25ZM14.3789 7.5H20.25L13.5 0.75V6.62109C13.5 7.10578 13.8942 7.5 14.3789 7.5Z" fill="white"/>
</g>
</svg>
