<svg width="24" height="25" viewBox="0 0 24 25" fill="none" xmlns="http://www.w3.org/2000/svg">
<path d="M16.1667 4.99999C16.3856 4.78112 16.6455 4.6075 16.9314 4.48905C17.2174 4.3706 17.5239 4.30963 17.8334 4.30963C18.1429 4.30963 18.4494 4.3706 18.7354 4.48905C19.0214 4.6075 19.2812 4.78112 19.5001 4.99999C19.719 5.21886 19.8926 5.47869 20.011 5.76466C20.1295 6.05063 20.1904 6.35713 20.1904 6.66665C20.1904 6.97618 20.1295 7.28268 20.011 7.56865C19.8926 7.85461 19.719 8.11445 19.5001 8.33332L8.25008 19.5833L3.66675 20.8333L4.91675 16.25L16.1667 4.99999Z" stroke="#6F7C81" stroke-width="1.66667" stroke-linecap="round" stroke-linejoin="round"/>
</svg>
