<svg width="20" height="20" viewBox="0 0 20 20" fill="none" xmlns="http://www.w3.org/2000/svg">
<g id="fi_2991109">
<path id="Vector" d="M13.5156 4.6875H17.2739L12.9297 0.343323V4.10156C12.9297 4.42485 13.1923 4.6875 13.5156 4.6875Z" fill="white"/>
<path id="Vector_2" d="M4.14062 20H15.8594C16.8287 20 17.6172 19.2115 17.6172 18.2422V5.85938H13.5156C12.5463 5.85938 11.7578 5.07086 11.7578 4.10156V0H4.14062C3.17133 0 2.38281 0.788516 2.38281 1.75781V18.2422C2.38281 19.2115 3.17133 20 4.14062 20ZM7.65625 9.41406H13.5156C13.8395 9.41406 14.1016 9.67613 14.1016 10C14.1016 10.3239 13.8395 10.5859 13.5156 10.5859H7.65625C7.33238 10.5859 7.07031 10.3239 7.07031 10C7.07031 9.67613 7.33238 9.41406 7.65625 9.41406ZM7.65625 11.7578H13.5156C13.8395 11.7578 14.1016 12.0199 14.1016 12.3438C14.1016 12.6676 13.8395 12.9297 13.5156 12.9297H7.65625C7.33238 12.9297 7.07031 12.6676 7.07031 12.3438C7.07031 12.0199 7.33238 11.7578 7.65625 11.7578ZM7.65625 14.1016H13.5156C13.8395 14.1016 14.1016 14.3636 14.1016 14.6875C14.1016 15.0114 13.8395 15.2734 13.5156 15.2734H7.65625C7.33238 15.2734 7.07031 15.0114 7.07031 14.6875C7.07031 14.3636 7.33238 14.1016 7.65625 14.1016ZM5.3125 9.41406C5.63609 9.41406 5.89844 9.67641 5.89844 10C5.89844 10.3236 5.63609 10.5859 5.3125 10.5859C4.98891 10.5859 4.72656 10.3236 4.72656 10C4.72656 9.67641 4.98891 9.41406 5.3125 9.41406ZM5.3125 11.7578C5.63609 11.7578 5.89844 12.0202 5.89844 12.3438C5.89844 12.6673 5.63609 12.9297 5.3125 12.9297C4.98891 12.9297 4.72656 12.6673 4.72656 12.3438C4.72656 12.0202 4.98891 11.7578 5.3125 11.7578ZM5.3125 14.1016C5.63609 14.1016 5.89844 14.3639 5.89844 14.6875C5.89844 15.0111 5.63609 15.2734 5.3125 15.2734C4.98891 15.2734 4.72656 15.0111 4.72656 14.6875C4.72656 14.3639 4.98891 14.1016 5.3125 14.1016Z" fill="white"/>
</g>
</svg>
