<svg width="16" height="16" viewBox="0 0 16 16" fill="none" xmlns="http://www.w3.org/2000/svg">
<g id="fi_8832119">
<g id="Group">
<g id="Group_2">
<path id="Vector" d="M7.99992 1.33331C4.33325 1.33331 1.33325 4.33331 1.33325 7.99998C1.33325 11.6666 4.33325 14.6666 7.99992 14.6666C11.6666 14.6666 14.6666 11.6666 14.6666 7.99998C14.6666 4.33331 11.6666 1.33331 7.99992 1.33331ZM10.8666 6.39998L7.79992 10.4C7.66658 10.5333 7.46658 10.6666 7.26658 10.6666C7.06658 10.6666 6.86659 10.6 6.73325 10.4L5.13325 8.33331C4.93325 8.06665 4.93325 7.59998 5.26659 7.39998C5.59992 7.19998 5.99992 7.19998 6.19992 7.53331L7.26658 8.93331L9.79992 5.59998C9.99992 5.33331 10.4666 5.26665 10.7333 5.46665C11.0666 5.66665 11.0666 6.06665 10.8666 6.39998Z" fill="#02BC7D"/>
</g>
</g>
</g>
</svg>
