<svg width="14" height="15" viewBox="0 0 14 15" fill="none" xmlns="http://www.w3.org/2000/svg">
<g id="fi_4526835">
<g id="Group">
<path id="Vector" d="M4.48122 13.8C4.6754 13.8 4.8742 13.7989 5.07734 13.7989H8.92272C9.12558 13.7989 9.32438 13.8 9.51856 13.8C11.2978 13.8 12.6574 13.709 12.6574 11.849C12.6574 9.90214 11.1685 8.3039 9.26698 8.13016C9.25186 8.81126 7.00066 10.4921 7.00066 10.4921C7.00066 10.4921 4.7489 8.8114 4.73364 8.1303C2.83244 8.3039 1.34326 9.90214 1.34326 11.849C1.34326 13.709 2.70224 13.8 4.48122 13.8ZM8.68024 11.26C8.68024 11.2046 8.73022 11.1599 8.79238 11.1599H9.40054V10.552C9.40054 10.4904 9.44492 10.4399 9.50036 10.4399H10.1005C10.1557 10.4399 10.2004 10.49 10.2004 10.552V11.16H10.8082C10.8698 11.16 10.9202 11.2047 10.9202 11.2601V11.86C10.9202 11.9155 10.8703 11.9601 10.8082 11.9601H10.2002V12.568C10.2002 12.6299 10.1554 12.68 10.1001 12.68H9.50022C9.44478 12.68 9.40012 12.63 9.40012 12.568V11.96H8.79224C8.73036 11.96 8.6801 11.9153 8.6801 11.8599L8.68024 11.26Z" fill="#6F7C81"/>
<path id="Vector_2" d="M7.00116 8.61889C8.72092 8.61889 10.1149 6.03295 10.1149 4.31333C10.1149 2.59399 8.72092 1.20001 7.00116 1.20001C5.28168 1.20001 3.8877 2.59399 3.8877 4.31333C3.8877 6.03295 5.28168 8.61889 7.00116 8.61889Z" fill="#6F7C81"/>
</g>
</g>
</svg>
