<svg width="235" height="89" viewBox="0 0 235 89" fill="none" xmlns="http://www.w3.org/2000/svg">
<path fill-rule="evenodd" clip-rule="evenodd" d="M26.5 8.19998C26.5 8.19998 36.5 11.7 39.1 3.69998C41.8683 11.6096 51.5771 8.27764 51.6996 8.2013L47.5261 21.4011C43.4035 20.1559 40.7608 17.9955 40.0758 17.4356C39.9691 17.3484 39.9099 17.3 39.9001 17.3L39.2001 16.6L38.5 17.3C36.2691 19.4653 33.6938 20.8987 30.7458 21.6284L26.5 8.19998ZM51.7 8.19998C51.7011 8.19998 51.701 8.20043 51.6996 8.2013L51.7 8.19998Z" fill="#416693"/>
<path d="M29.4 43.5H26.6H19.8H17H8.60005C7.80005 48 5.80005 53.8 2.00005 61.1C-2.39995 69.6 7.80005 78.8 16.9 81.5C17.5 81.7 18.2 81.8 18.8 81.9C19.1 82 19.4 82 19.7 82.1C22.2 82.6 24.5 83.1 26.5 83.7C27.5 84 28.4 84.3 29.3 84.6C33.4 86 36.1 87.5 37.9 88.7V43.5H29.4Z" fill="#416693"/>
<path d="M76.6001 61.1C72.8001 53.9 70.9001 48.1 70.0001 43.6H61.7001H58.9001H52.0001H49.2001H40.6001V88.7C42.3001 87.6 45.1001 86.1 49.2001 84.6C50.1001 84.3 51.0001 84 52.0001 83.7C54.0001 83.1 56.3001 82.6 58.8001 82.1C59.1001 82 59.4001 82 59.7001 81.9C60.3001 81.8 61.0001 81.6 61.6001 81.5C70.8001 78.8 80.9001 69.6 76.6001 61.1Z" fill="#416693"/>
<path d="M103.4 32.3V35.6H99.0001V50.7H94.7001V35.7H90.1001V32.4H103.4V32.3Z" fill="#416693"/>
<path d="M117 32.3H121.3V50.7H117V43.3H110.2V50.7H106V32.3H110.3V39.8H117.1V32.3H117Z" fill="#416693"/>
<path d="M129 47.4H136.2V50.7H124.7V32.3H136.1V35.6H129V39.8H135.4V43.1H129V47.4Z" fill="#416693"/>
<path d="M146.1 50.7L147.7 32.3H152.4C154.6 38.1 155.8 41.3 156.2 42.2C156.5 43 156.7 43.8 156.9 44.6C157.2 43.4 157.8 41.6 158.8 39L161.4 32.3H166.1L168 50.7H163.7L163 43.5L162.6 38.1C162.2 39.2 160.7 43.4 158 50.5H155.5C153 43.7 151.5 39.6 151.1 38.1C151.1 39.4 151 41.2 150.9 43.5L150.3 50.7H146H146.1Z" fill="#416693"/>
<path d="M182.9 50.7L181.8 46.9H175.3L174.2 50.7H169.8L176 32.3H181.3L187.5 50.7H182.9ZM176.3 43.7H180.8C179.6 39.5 178.9 36.8 178.6 35.5C178.4 36.3 177.7 39 176.3 43.7Z" fill="#416693"/>
<path d="M202.2 32.3V35.6H197.7V50.7H193.4V35.7H188.8V32.4H202.1V32.3H202.2Z" fill="#416693"/>
<path d="M208.9 47.4H216.1V50.7H204.7V32.3H216.1V35.6H209V39.8H215.4V43.1H209V47.4H208.9Z" fill="#416693"/>
<path d="M223.8 44.4V50.8H219.5V32.3H225.9C227.9 32.3 229.7 32.8 230.9 33.9C232.1 35 232.7 36.4 232.7 38.2C232.7 40.8 231.6 42.7 229.4 43.7L234.1 50.8H229L225 44.4H223.8ZM223.8 35.7V40.9H225.8C227.6 40.9 228.5 40 228.5 38.3C228.5 37.5 228.3 36.9 227.8 36.5C227.3 36.1 226.7 35.8 225.9 35.8H223.8V35.7Z" fill="#416693"/>
<path d="M99.4001 61.6H100.7V75.6H99.4001V69.1H92.3001V75.6H91.0001V61.6H92.3001V67.8H99.4001V61.6Z" fill="#416693"/>
<path d="M109.5 75.7C107.7 75.7 106.2 75.1 105 73.8C103.8 72.5 103.3 70.8 103.3 68.5C103.3 66.4 103.8 64.5 104.9 63.3C106 62 107.5 61.4 109.4 61.4C111.3 61.4 112.7 62 113.9 63.3C115 64.6 115.5 66.3 115.5 68.6C115.5 70.8 115 72.6 113.9 73.9C112.8 75.1 111.3 75.7 109.5 75.7ZM109.5 62.6C108 62.6 106.9 63.1 106 64.2C105.2 65.2 104.7 66.7 104.7 68.6C104.7 70.5 105.1 71.9 106 73C106.9 74.1 108 74.6 109.5 74.6C111 74.6 112.1 74.1 112.9 73C113.7 72 114.1 70.5 114.1 68.6C114.1 66.8 113.7 65.3 112.9 64.2C112.1 63.1 111 62.6 109.5 62.6Z" fill="#416693"/>
<path d="M122.5 62.8C121.6 62.8 120.9 63 120.3 63.4C119.8 63.8 119.5 64.4 119.5 65.1C119.5 65.8 119.8 66.4 120.4 66.8C120.9 67.2 121.5 67.5 122.1 67.8C122.8 68.1 123.2 68.3 123.5 68.4C123.7 68.5 124.1 68.7 124.4 68.9C124.8 69.1 125.1 69.4 125.3 69.6C125.8 70.2 126.1 70.9 126.1 71.8C126.1 73 125.7 73.9 124.9 74.5C124.1 75.1 123 75.4 121.7 75.4C120.4 75.4 119.2 75.1 118.2 74.5V73.1C118.6 73.4 119.1 73.7 119.8 73.9C120.4 74.1 121.2 74.2 122 74.2C122.8 74.2 123.5 74 124 73.6C124.5 73.2 124.8 72.6 124.8 71.9C124.8 71.2 124.6 70.7 124.2 70.3C123.8 69.9 122.9 69.4 121.7 68.9C120.6 68.4 119.9 68.1 119.7 67.9C119.5 67.7 119.3 67.5 119 67.3C118.8 67.1 118.6 66.9 118.5 66.7C118.2 66.1 118.1 65.6 118.1 65.1C118.1 63.9 118.5 63 119.3 62.4C120.1 61.8 121.1 61.4 122.3 61.4C123.5 61.4 124.4 61.6 125.2 62V63.4C124.9 63.2 124.4 63 123.9 62.9C123.5 62.8 123 62.8 122.5 62.8Z" fill="#416693"/>
<path d="M129.1 61.6H132.4C134 61.6 135.3 62 136.3 62.8C137.2 63.6 137.7 64.6 137.7 65.9C137.7 67.1 137.3 68.1 136.4 68.9C135.5 69.7 134.3 70.1 132.8 70.1H130.5V75.5H129.2L129.1 61.6ZM130.4 69.1H132.8C133.9 69.1 134.7 68.8 135.4 68.2C136 67.6 136.3 66.9 136.3 66C136.3 65.1 136 64.3 135.3 63.7C134.6 63.1 133.7 62.8 132.6 62.8H130.4C130.4 62.7 130.4 69.1 130.4 69.1Z" fill="#416693"/>
<path d="M140.3 75.6V61.6H141.6V75.6H140.3Z" fill="#416693"/>
<path d="M152.7 61.6V62.8H148.8V75.6H147.5V62.8H143.6V61.6H152.7Z" fill="#416693"/>
<path d="M163.9 75.6L162.6 71.7H156.4L155.1 75.6H153.7L158.6 61.7H160.4L165.2 75.6H163.9ZM156.8 70.5H162.2L159.6 62.7C159.1 64.3 158.2 67 156.8 70.5Z" fill="#416693"/>
<path d="M169 74.4H175.1V75.6H167.7V61.6H169V74.4Z" fill="#416693"/>
<path d="M44.1 13.9C43.3 13.9 43.2 14.3 43.2 14.3C43.2 14.3 43.4 15.1 42.7 15C42 14.9 43 13 41.4 12.9C41.4 12.9 43.2 12 43.2 10.8C43.2 9.59997 41.6 8.49997 38.8 9.89997C38.8 9.89997 35.9 8.19997 34.7 9.69997C33.6 11.2 35.2 14 35.2 14C35.2 14 36.3 15.8 34.7 15.7C34.7 15.7 34.1 15.5 34.4 14.5C34.4 14.5 34.5 14.1 34 14.1C33.5 14.1 33 15 33.4 16C33.8 17 36.7 16.8 36.9 15.3C37.1 13.8 35.3 11.9 35.6 10.8C35.6 10.8 35.7 10.1 36.7 10.1C37.6 10.1 38.1 10.7 38.1 12.1C38.1 13.5 38.6 15 37.8 15.1C37.3 15.1 37.5 16.1 38.4 16.2C39.3 16.3 39.4 15.7 39.5 14.9C39.5 14.1 39.5 13.6 39.5 13.6C39.5 13.6 39.6 13 40.4 13.6C41.2 14.2 41.2 15.5 41.2 15.5C41.2 15.5 41.5 16 42.3 16C43.1 16 44.7 16 44.8 14.6C45 14.6 44.9 14 44.1 13.9ZM39.7 12.6V11C39.7 11 40.1 9.79997 41.1 9.89997C42.1 9.99997 42.6 12.3 39.7 12.6Z" fill="white"/>
<path d="M55.8 72C54 70.6 52.2 67.4 52.4 64.3C52.5 62.6 53.3 60.2 56.4 58.5C57.9 57.6 58.8 56.6 58.9 55.4C59.1 53.5 57.4 51.5 56.8 50.9L57.8 49.8C57.9 49.9 60.7 52.5 60.4 55.6C60.2 57.3 59.1 58.7 57.1 59.9C55.1 61 54.1 62.6 53.9 64.5C53.7 67.2 55.5 69.9 56.7 70.9L55.8 72Z" fill="white"/>
<path d="M33.7001 60.2H33.5001V59.8C33.5001 59.1 32.9001 58.5 32.2001 58.5C31.5001 58.5 30.9001 59.1 30.9001 59.8V60.2H28.4001C27.9001 57.4 25.7001 55.1 22.8001 54.5V52.2H23.0001C23.7001 52.2 24.3001 51.6 24.3001 50.9C24.3001 50.2 23.7001 49.6 23.0001 49.6H22.7001V48.9C22.7001 48.2 22.1001 47.6 21.4001 47.6C20.7001 47.6 20.1001 48.2 20.1001 48.9V49.6H19.8001C19.1001 49.6 18.5001 50.2 18.5001 50.9C18.5001 51.6 19.1001 52.2 19.8001 52.2H20.1001V54.5C17.2001 55 14.8001 57.2 14.3001 60.2H11.9001V59.8C11.9001 59.1 11.3001 58.5 10.6001 58.5C9.9001 58.5 9.3001 59.1 9.3001 59.8V60.2H8.9001C8.2001 60.2 7.6001 60.8 7.6001 61.5C7.6001 62.2 8.2001 62.8 8.9001 62.8H9.3001V63C9.3001 63.7 9.9001 64.3 10.6001 64.3C11.3001 64.3 11.9001 63.7 11.9001 63V62.8H14.3001C14.8001 65.7 17.1001 68 20.1001 68.5V75.1H19.8001C19.1001 75.1 18.5001 75.7 18.5001 76.4C18.5001 77.1 19.1001 77.7 19.8001 77.7H20.1001V78C20.1001 78.7 20.7001 79.3 21.4001 79.3C22.1001 79.3 22.7001 78.7 22.7001 78V77.7H23.0001C23.7001 77.7 24.3001 77.1 24.3001 76.4C24.3001 75.7 23.7001 75.1 23.0001 75.1H22.7001V68.5C25.5001 67.9 27.8001 65.7 28.3001 62.8H30.8001V63C30.8001 63.7 31.4001 64.3 32.1001 64.3C32.8001 64.3 33.4001 63.7 33.4001 63V62.8H33.6001C34.3001 62.8 34.9001 62.2 34.9001 61.5C34.9001 60.7 34.4001 60.2 33.7001 60.2ZM26.1001 60.2H22.8001V56.8C24.3001 57.2 25.7001 58.6 26.1001 60.2ZM20.2001 56.6V60H16.7001C17.0001 58.5 18.5001 57.1 20.2001 56.6ZM16.6001 62.7H20.1001V66.1C18.5001 65.8 17.0001 64.4 16.6001 62.7ZM22.7001 66.2V62.9H26.0001C25.6001 64.3 24.3001 65.7 22.7001 66.2Z" fill="white"/>
<path d="M39.1001 -0.200012L39.9001 1.89999H42.2001L40.3001 3.29999L41.0001 5.49999L39.1001 4.09999L37.3001 5.49999L38.0001 3.29999L36.2001 1.89999H38.4001L39.1001 -0.200012Z" fill="#416693"/>
<path d="M51.4 4.79999L52.8 6.59999L55 5.79999L53.6 7.69999L55.1 9.39999L52.8 8.79999L51.6 10.7L51.5 8.49999L49.4 7.79999L51.5 7.09999L51.4 4.79999Z" fill="#416693"/>
<path d="M23.9001 5.19999L25.9001 6.29999L27.6001 4.79999L27.1001 6.99999L29.1001 8.09999L26.8001 8.39999L26.4001 10.5L25.5001 8.49999L23.1001 8.69999L24.9001 7.19999L23.9001 5.19999Z" fill="#416693"/>
<path d="M56.2001 46.7C57.7001 46.7 58.9001 47.9 58.9001 49.4C58.9001 50.5 58.2001 51.5 57.3001 51.9V54.9H63.0001C63.4001 54.9 63.7001 55.2 63.7001 55.6C63.7001 56 63.4001 56.3 63.0001 56.3H57.3001V75.5C59.9001 75 62.0001 72.9 62.1001 70.1L60.6001 70.6L63.9001 65.2L64.9001 70.6L64.1001 70.1C63.9001 74.3 60.5001 77.6 56.3001 77.6C52.1001 77.6 48.7001 74.3 48.5001 70.1L47.7001 70.6L48.7001 65.2L52.0001 70.6L50.5001 70.1C50.7001 72.8 52.7001 75.1 55.3001 75.5V56.5H49.6001C49.2001 56.5 48.9001 56.2 48.9001 55.8C48.9001 55.4 49.2001 55.1 49.6001 55.1H55.3001V52.2C54.3001 51.8 53.5001 50.8 53.5001 49.7C53.4001 47.9 54.7001 46.7 56.2001 46.7Z" fill="#00ADEE"/>
<path d="M56.2 46.2C54.4 46.2 53 47.6 53 49.4C53 50.6 53.7 51.7 54.8 52.3V54.4H49.6C48.9 54.4 48.4 55 48.4 55.6C48.4 56.2 49 56.8 49.6 56.8H54.8V74.8C52.9 74.3 51.5 72.7 51 70.7L51.7 70.9L53 71.3L52.3 70.2L49 65L48.3 63.9L48.1 65.2L47.1 70.6L46.9 71.7L47.8 71.1L47.9 71C48.5 75.1 52 78.2 56.1 78.2C60.2 78.2 63.8 75.2 64.3 71L64.4 71.1L65.3 71.7L65.1 70.6L64.1 65.2L63.9 63.9L63.2 65L59.9 70.4L59.2 71.5L60.5 71.1L61.2 70.9C60.8 72.8 59.4 74.3 57.4 75V57H62.6C63.3 57 63.8 56.4 63.8 55.8C63.8 55.2 63.2 54.6 62.6 54.6H57.8V52.3C58.8 51.7 59.4 50.7 59.4 49.5C59.4 47.6 58 46.2 56.2 46.2Z" fill="#416693"/>
<path d="M63.9001 65.3L60.6001 70.7L62.1001 70.2C61.9001 72.9 59.9001 75.2 57.3001 75.6V56.5H63.0001C63.4001 56.5 63.7001 56.2 63.7001 55.8C63.7001 55.4 63.4001 55.1 63.0001 55.1H57.3001V52.1C58.3001 51.7 58.9001 50.7 58.9001 49.6C58.9001 48.1 57.7001 46.9 56.2001 46.9C54.7001 46.9 53.5001 48.1 53.5001 49.6C53.5001 50.8 54.3001 51.8 55.3001 52.1V55H49.6001C49.2001 55 48.9001 55.3 48.9001 55.7C48.9001 56.1 49.2001 56.4 49.6001 56.4H55.3001V75.6C52.7001 75.1 50.6001 73 50.5001 70.2L52.0001 70.7L48.7001 65.3L47.7001 70.7L48.5001 70.2C48.7001 74.4 52.1001 77.7 56.3001 77.7C60.5001 77.7 63.9001 74.4 64.1001 70.2L64.9001 70.7L63.9001 65.3ZM55.0001 49.4C55.0001 48.7 55.5001 48.2 56.2001 48.2C56.9001 48.2 57.4001 48.7 57.4001 49.4C57.4001 50.1 56.9001 50.6 56.2001 50.6C55.5001 50.6 55.0001 50.1 55.0001 49.4Z" fill="white"/>
<path d="M23 54V58.5" stroke="#416693" stroke-miterlimit="10"/>
<path d="M23 64.7V69.2" stroke="#416693" stroke-miterlimit="10"/>
<path d="M19.9 54V58.5" stroke="#416693" stroke-miterlimit="10"/>
<path d="M19.9 64.7V69.2" stroke="#416693" stroke-miterlimit="10"/>
<path d="M13.5 59.9H18" stroke="#416693" stroke-miterlimit="10"/>
<path d="M24.2001 59.9H28.7001" stroke="#416693" stroke-miterlimit="10"/>
<path d="M13.5 63H18" stroke="#416693" stroke-miterlimit="10"/>
<path d="M24.2001 63H28.7001" stroke="#416693" stroke-miterlimit="10"/>
<path fill-rule="evenodd" clip-rule="evenodd" d="M16.3766 22.4791C14.2435 21.7419 12.7013 20.9871 12.1358 20.7103C11.9913 20.6395 11.9105 20.6 11.9 20.6L11.2 20.2L3.80005 27.6L4.60005 28.3C9.257 32.2916 8.04278 40.348 7.91087 41.2232C7.90399 41.2689 7.90005 41.295 7.90005 41.3L7.71671 42.4H7.70005V42.5L7.71671 42.4H16.3766V22.4791ZM19.0901 42.4H23.7865V24.1122C22.1248 23.9699 20.5354 23.6674 19.0901 23.2966V42.4ZM26.5 24.1897V42.4H37.8866V19.8692C34.7599 22.6412 30.9882 24.0575 26.5 24.1897ZM40.6001 19.8534V42.4H50.344V24.0459C45.4252 23.272 41.9979 20.9308 40.6001 19.8534ZM53.0575 24.293V42.4H57.7539V23.9251C56.3612 24.1772 54.9755 24.3 53.6 24.3C53.4177 24.3 53.2368 24.2976 53.0575 24.293ZM60.4674 23.2708V42.4H70.8L70.7 41.3C69.4 30.6 73.8 28.4 73.8 28.4L75.1 27.8L67.4001 20.1L66.7 20.5C64.619 21.7297 62.5379 22.6462 60.4674 23.2708Z" fill="#416693"/>
</svg>
