<svg width="6" height="12" viewBox="0 0 6 12" fill="none" xmlns="http://www.w3.org/2000/svg">
<path id="Vector" d="M0.517375 12C0.385869 12 0.254362 11.9516 0.150541 11.8477C-0.0501802 11.647 -0.0501802 11.3148 0.150541 11.1141L4.6633 6.6013C4.99553 6.26907 4.99553 5.7292 4.6633 5.39697L0.150541 0.884211C-0.0501802 0.68349 -0.0501802 0.351262 0.150541 0.150541C0.351262 -0.0501802 0.683489 -0.0501802 0.88421 0.150541L5.39697 4.6633C5.74996 5.01629 5.95069 5.49387 5.95069 5.99914C5.95069 6.5044 5.75689 6.98198 5.39697 7.33497L0.88421 11.8477C0.780389 11.9446 0.648882 12 0.517375 12Z" fill="white"/>
</svg>
