<svg width="25" height="24" viewBox="0 0 25 24" fill="none" xmlns="http://www.w3.org/2000/svg">
<g id="pen-field (1) 2" clip-path="url(#clip0_856_2185)">
<path id="Vector" d="M23.25 9.693C24.056 10.607 24.5 11.781 24.5 13V18C24.5 20.757 22.257 23 19.5 23H5.5C2.743 23 0.5 20.757 0.5 18V13C0.5 10.243 2.743 8 5.5 8H9.5C10.053 8 10.5 8.448 10.5 9C10.5 9.552 10.053 10 9.5 10H5.5C3.846 10 2.5 11.346 2.5 13V18C2.5 19.654 3.846 21 5.5 21H19.5C21.154 21 22.5 19.654 22.5 18V13C22.5 12.269 22.233 11.564 21.75 11.016C21.385 10.602 21.424 9.97 21.839 9.604C22.252 9.24 22.884 9.279 23.25 9.693ZM5.5 15.5C5.5 16.328 6.172 17 7 17C7.828 17 8.5 16.328 8.5 15.5C8.5 14.672 7.828 14 7 14C6.172 14 5.5 14.672 5.5 15.5ZM12 17C12.828 17 13.5 16.328 13.5 15.5C13.5 14.672 12.828 14 12 14C11.172 14 10.5 14.672 10.5 15.5C10.5 16.328 11.172 17 12 17ZM12.5 11V9.41399C12.5 8.34599 12.916 7.341 13.672 6.586L19.379 0.878995C20.549 -0.291005 22.451 -0.291005 23.621 0.878995C24.187 1.445 24.5 2.199 24.5 3C24.5 3.801 24.187 4.555 23.621 5.122L17.914 10.829C17.159 11.584 16.154 12.001 15.086 12.001H13.5C12.947 12.001 12.5 11.553 12.5 11.001V11ZM14.5 10H15.086C15.62 10 16.122 9.792 16.5 9.41399L22.207 3.707C22.396 3.518 22.5 3.267 22.5 3C22.5 2.733 22.396 2.482 22.207 2.293C21.816 1.902 21.184 1.903 20.793 2.293L15.086 8C14.714 8.373 14.5 8.88799 14.5 9.41399V10Z" fill="#416693"/>
</g>
<defs>
<clipPath id="clip0_856_2185">
<rect width="24" height="24" fill="white" transform="translate(0.5)"/>
</clipPath>
</defs>
</svg>
