<svg width="136" height="44" viewBox="0 0 136 44" fill="none" xmlns="http://www.w3.org/2000/svg">
<rect width="136" height="44" rx="6" fill="#EDEDED"/>
<path d="M28.6545 22.5009C28.2484 21.8754 27.7079 21.3543 27.0741 20.9736C27.3924 20.3169 27.5589 19.5951 27.5589 18.8595C27.5589 16.18 25.3789 14 22.6994 14H16.5635V30H24.5761C27.2556 30 29.4356 27.82 29.4356 25.1405C29.4356 24.2006 29.1655 23.2878 28.6545 22.5009ZM22.6994 20.281H20.0014V17.4379H22.6994C23.4832 17.4379 24.1209 18.0756 24.1209 18.8595C24.1209 19.6434 23.4832 20.281 22.6994 20.281ZM25.9977 25.1405C25.9977 25.9244 25.3599 26.5621 24.5761 26.5621H20.0014V23.719H24.5761C25.3599 23.719 25.9977 24.3567 25.9977 25.1405Z" fill="#797575"/>
<path d="M57.8004 14.8H53.0004C52.7882 14.8 52.5847 14.8843 52.4347 15.0343C52.2847 15.1843 52.2004 15.3878 52.2004 15.6C52.2004 15.8122 52.2847 16.0156 52.4347 16.1657C52.5847 16.3157 52.7882 16.4 53.0004 16.4H54.246L50.046 27.6H48.2004C47.9882 27.6 47.7847 27.6843 47.6347 27.8343C47.4847 27.9843 47.4004 28.1878 47.4004 28.4C47.4004 28.6122 47.4847 28.8156 47.6347 28.9657C47.7847 29.1157 47.9882 29.2 48.2004 29.2H53.0004C53.2126 29.2 53.416 29.1157 53.5661 28.9657C53.7161 28.8156 53.8004 28.6122 53.8004 28.4C53.8004 28.1878 53.7161 27.9843 53.5661 27.8343C53.416 27.6843 53.2126 27.6 53.0004 27.6H51.7548L55.9548 16.4H57.8004C58.0126 16.4 58.216 16.3157 58.3661 16.1657C58.5161 16.0156 58.6004 15.8122 58.6004 15.6C58.6004 15.3878 58.5161 15.1843 58.3661 15.0343C58.216 14.8843 58.0126 14.8 57.8004 14.8Z" fill="#797575"/>
<path d="M90.2016 27.8098H79.5025C79.0615 27.8098 78.7041 27.4524 78.7041 27.0115C78.7041 26.5705 79.0615 26.2131 79.5025 26.2131H90.2013C90.6423 26.2131 90.9997 26.5705 90.9997 27.0115C90.9997 27.4524 90.6426 27.8098 90.2016 27.8098Z" fill="#797575"/>
<path d="M90.2016 22.7985H79.5025C79.0615 22.7985 78.7041 22.4411 78.7041 22.0001C78.7041 21.5592 79.0615 21.2018 79.5025 21.2018H90.2013C90.6423 21.2018 90.9997 21.5592 90.9997 22.0001C91 22.4411 90.6426 22.7985 90.2016 22.7985Z" fill="#797575"/>
<path d="M90.2016 17.7872H79.5025C79.0615 17.7872 78.7041 17.4298 78.7041 16.9888C78.7041 16.5478 79.0615 16.1904 79.5025 16.1904H90.2013C90.6423 16.1904 90.9997 16.5478 90.9997 16.9888C90.9997 17.4298 90.6426 17.7872 90.2016 17.7872Z" fill="#797575"/>
<path d="M76.0722 18.1228C76.6644 18.1228 77.1444 17.6427 77.1444 17.0505C77.1444 16.4584 76.6644 15.9783 76.0722 15.9783C75.48 15.9783 75 16.4584 75 17.0505C75 17.6427 75.48 18.1228 76.0722 18.1228Z" fill="#797575"/>
<path d="M76.0722 23.0723C76.6644 23.0723 77.1444 22.5923 77.1444 22.0001C77.1444 21.408 76.6644 20.9279 76.0722 20.9279C75.48 20.9279 75 21.408 75 22.0001C75 22.5923 75.48 23.0723 76.0722 23.0723Z" fill="#797575"/>
<path d="M76.0722 28.0219C76.6644 28.0219 77.1444 27.5419 77.1444 26.9497C77.1444 26.3576 76.6644 25.8775 76.0722 25.8775C75.48 25.8775 75 26.3576 75 26.9497C75 27.5419 75.48 28.0219 76.0722 28.0219Z" fill="#797575"/>
<g clip-path="url(#clip0_498_4594)">
<path d="M109.844 16.8125H120.531C120.79 16.8125 121 16.6026 121 16.3438C121 16.0849 120.79 15.875 120.531 15.875H109.844C109.585 15.875 109.375 16.0849 109.375 16.3438C109.375 16.6026 109.585 16.8125 109.844 16.8125Z" fill="#797575"/>
<path d="M120.531 21.5312H109.844C109.585 21.5312 109.375 21.7411 109.375 22C109.375 22.2589 109.585 22.4687 109.844 22.4687H120.531C120.79 22.4687 121 22.2589 121 22C121 21.7411 120.79 21.5312 120.531 21.5312Z" fill="#797575"/>
<path d="M120.531 27.1875H109.844C109.585 27.1875 109.375 27.3973 109.375 27.6562C109.375 27.9151 109.585 28.1249 109.844 28.1249H120.531C120.79 28.1249 121 27.9151 121 27.6562C121 27.3973 120.79 27.1875 120.531 27.1875Z" fill="#797575"/>
<path d="M105.812 14.9375H106.078V17.9063C106.078 18.1652 106.288 18.375 106.547 18.375C106.806 18.375 107.016 18.1652 107.016 17.9063V14.4688C107.016 14.2099 106.806 14 106.547 14H105.812C105.554 14 105.344 14.2099 105.344 14.4688C105.344 14.7277 105.554 14.9375 105.812 14.9375Z" fill="#797575"/>
<path d="M107.315 23.2422C107.039 23.2457 106.748 23.2482 106.488 23.2494C106.665 23.0103 106.894 22.6935 107.187 22.2751C107.409 21.9581 107.554 21.6571 107.618 21.3803C107.622 21.3649 107.624 21.3494 107.626 21.3338L107.643 21.2034C107.646 21.1837 107.647 21.1639 107.647 21.144C107.647 20.4098 107.05 19.8125 106.315 19.8125C105.681 19.8125 105.131 20.2642 105.009 20.8864C104.959 21.1405 105.124 21.3868 105.379 21.4367C105.633 21.4865 105.879 21.3211 105.929 21.0671C105.965 20.8834 106.127 20.75 106.315 20.75C106.524 20.75 106.696 20.9138 106.709 21.1199L106.7 21.1887C106.671 21.3005 106.598 21.4817 106.419 21.7375C105.886 22.4991 105.568 22.9154 105.397 23.1391C105.181 23.4216 105.062 23.5773 105.141 23.8318C105.187 23.9833 105.302 24.0994 105.455 24.1504C105.518 24.1715 105.569 24.1885 106.223 24.1885C106.483 24.1885 106.838 24.1858 107.327 24.1797C107.586 24.1764 107.793 23.9639 107.79 23.705C107.786 23.4462 107.574 23.2394 107.315 23.2422Z" fill="#797575"/>
<path d="M106.395 25.625C105.761 25.625 105.213 26.0755 105.091 26.6962C105.041 26.9502 105.207 27.1966 105.461 27.2465C105.715 27.2963 105.961 27.1309 106.011 26.8768C106.047 26.6947 106.208 26.5625 106.395 26.5625C106.61 26.5625 106.785 26.7377 106.785 26.9531C106.785 27.1685 106.61 27.3437 106.395 27.3437C106.136 27.3437 105.926 27.5536 105.926 27.8125C105.926 28.0713 106.136 28.2812 106.395 28.2812C106.61 28.2812 106.785 28.4564 106.785 28.6718C106.785 28.8872 106.61 29.0625 106.395 29.0625C106.201 29.0625 106.034 28.9182 106.008 28.727C106.005 28.7088 106.004 28.6903 106.004 28.6718C106.004 28.413 105.794 28.2031 105.535 28.2031C105.276 28.2031 105.066 28.413 105.066 28.6718C105.066 28.7335 105.071 28.7955 105.079 28.8565C105.17 29.5084 105.736 30 106.395 30C107.127 30 107.723 29.4042 107.723 28.6718C107.723 28.3443 107.603 28.0443 107.406 27.8125C107.603 27.5806 107.723 27.2806 107.723 26.9531C107.723 26.2208 107.127 25.625 106.395 25.625Z" fill="#797575"/>
</g>
<defs>
<clipPath id="clip0_498_4594">
<rect width="16" height="16" fill="white" transform="translate(105 14)"/>
</clipPath>
</defs>
</svg>
