<svg width="233" height="44" viewBox="0 0 233 44" fill="none" xmlns="http://www.w3.org/2000/svg">
<rect width="233" height="44" rx="6" fill="#EDEDED"/>
<path d="M10.84 27V17.2H14.074C14.6013 17.2 15.075 17.3283 15.495 17.585C15.9197 17.8417 16.2557 18.1893 16.503 18.628C16.755 19.062 16.881 19.5473 16.881 20.084C16.881 20.63 16.7527 21.1223 16.496 21.561C16.244 21.995 15.9033 22.3403 15.474 22.597C15.0493 22.849 14.5827 22.975 14.074 22.975H12.016V27H10.84ZM12.016 21.799H13.969C14.2863 21.799 14.5757 21.722 14.837 21.568C15.103 21.4093 15.313 21.197 15.467 20.931C15.6257 20.6603 15.705 20.357 15.705 20.021C15.705 19.6803 15.6257 19.377 15.467 19.111C15.313 18.8403 15.103 18.628 14.837 18.474C14.5757 18.3153 14.2863 18.236 13.969 18.236H12.016V21.799ZM23.3176 20H24.4936V27H23.3176L23.2686 25.817C23.0493 26.223 22.7459 26.552 22.3586 26.804C21.9759 27.056 21.5186 27.182 20.9866 27.182C20.4733 27.182 19.9926 27.0863 19.5446 26.895C19.0966 26.699 18.6999 26.4307 18.3546 26.09C18.0139 25.7447 17.7479 25.348 17.5566 24.9C17.3653 24.452 17.2696 23.969 17.2696 23.451C17.2696 22.9517 17.3629 22.4803 17.5496 22.037C17.7363 21.5937 17.9953 21.2063 18.3266 20.875C18.6626 20.539 19.0499 20.2777 19.4886 20.091C19.9273 19.8997 20.3986 19.804 20.9026 19.804C21.4533 19.804 21.9363 19.9347 22.3516 20.196C22.7669 20.4527 23.1029 20.7863 23.3596 21.197L23.3176 20ZM20.9656 26.041C21.4276 26.041 21.8266 25.929 22.1626 25.705C22.5033 25.4763 22.7646 25.1683 22.9466 24.781C23.1333 24.3937 23.2266 23.9667 23.2266 23.5C23.2266 23.024 23.1333 22.5947 22.9466 22.212C22.7599 21.8247 22.4963 21.519 22.1556 21.295C21.8196 21.0663 21.4229 20.952 20.9656 20.952C20.5036 20.952 20.0836 21.0663 19.7056 21.295C19.3276 21.5237 19.0266 21.8317 18.8026 22.219C18.5833 22.6017 18.4736 23.0287 18.4736 23.5C18.4736 23.9713 18.5879 24.4007 18.8166 24.788C19.0453 25.1707 19.3486 25.4763 19.7266 25.705C20.1046 25.929 20.5176 26.041 20.9656 26.041ZM25.8927 27V20H27.0687V20.875C27.3161 20.5483 27.6287 20.2893 28.0067 20.098C28.3847 19.902 28.7954 19.804 29.2387 19.804C29.5094 19.804 29.7707 19.839 30.0227 19.909L29.5467 21.085C29.3554 21.0243 29.1687 20.994 28.9867 20.994C28.6367 20.994 28.3147 21.0803 28.0207 21.253C27.7314 21.421 27.5004 21.6497 27.3277 21.939C27.1551 22.2283 27.0687 22.5503 27.0687 22.905V27H25.8927ZM36.1555 20H37.3315V27H36.1555L36.1065 25.817C35.8872 26.223 35.5838 26.552 35.1965 26.804C34.8138 27.056 34.3565 27.182 33.8245 27.182C33.3112 27.182 32.8305 27.0863 32.3825 26.895C31.9345 26.699 31.5378 26.4307 31.1925 26.09C30.8518 25.7447 30.5858 25.348 30.3945 24.9C30.2032 24.452 30.1075 23.969 30.1075 23.451C30.1075 22.9517 30.2008 22.4803 30.3875 22.037C30.5742 21.5937 30.8332 21.2063 31.1645 20.875C31.5005 20.539 31.8878 20.2777 32.3265 20.091C32.7652 19.8997 33.2365 19.804 33.7405 19.804C34.2912 19.804 34.7742 19.9347 35.1895 20.196C35.6048 20.4527 35.9408 20.7863 36.1975 21.197L36.1555 20ZM33.8035 26.041C34.2655 26.041 34.6645 25.929 35.0005 25.705C35.3412 25.4763 35.6025 25.1683 35.7845 24.781C35.9712 24.3937 36.0645 23.9667 36.0645 23.5C36.0645 23.024 35.9712 22.5947 35.7845 22.212C35.5978 21.8247 35.3342 21.519 34.9935 21.295C34.6575 21.0663 34.2608 20.952 33.8035 20.952C33.3415 20.952 32.9215 21.0663 32.5435 21.295C32.1655 21.5237 31.8645 21.8317 31.6405 22.219C31.4212 22.6017 31.3115 23.0287 31.3115 23.5C31.3115 23.9713 31.4258 24.4007 31.6545 24.788C31.8832 25.1707 32.1865 25.4763 32.5645 25.705C32.9425 25.929 33.3555 26.041 33.8035 26.041ZM44.0609 20H45.2369V27.224C45.2369 27.686 45.1366 28.1153 44.9359 28.512C44.7399 28.9133 44.4739 29.261 44.1379 29.555C43.8019 29.8537 43.4192 30.0847 42.9899 30.248C42.5606 30.416 42.1126 30.5 41.6459 30.5C41.1606 30.5 40.6916 30.3903 40.2389 30.171C39.7862 29.9563 39.3896 29.667 39.0489 29.303C38.7129 28.9437 38.4702 28.54 38.3209 28.092L39.3989 27.602C39.4876 27.924 39.6462 28.2133 39.8749 28.47C40.1082 28.7313 40.3789 28.9367 40.6869 29.086C40.9996 29.24 41.3192 29.317 41.6459 29.317C41.9539 29.317 42.2502 29.2633 42.5349 29.156C42.8242 29.0487 43.0832 28.8993 43.3119 28.708C43.5452 28.5213 43.7272 28.2997 43.8579 28.043C43.9932 27.791 44.0609 27.518 44.0609 27.224V25.831C43.8229 26.2323 43.5079 26.559 43.1159 26.811C42.7286 27.0583 42.2759 27.182 41.7579 27.182C41.2632 27.182 40.7989 27.0863 40.3649 26.895C39.9309 26.7037 39.5506 26.44 39.2239 26.104C38.8972 25.7633 38.6406 25.3713 38.4539 24.928C38.2672 24.4847 38.1739 24.0087 38.1739 23.5C38.1739 22.9913 38.2672 22.5153 38.4539 22.072C38.6406 21.624 38.8972 21.232 39.2239 20.896C39.5506 20.5553 39.9309 20.2893 40.3649 20.098C40.7989 19.9067 41.2632 19.811 41.7579 19.811C42.2759 19.811 42.7286 19.9347 43.1159 20.182C43.5079 20.4293 43.8229 20.756 44.0609 21.162V20ZM41.7649 26.041C42.2176 26.041 42.6096 25.9243 42.9409 25.691C43.2769 25.4577 43.5359 25.1473 43.7179 24.76C43.8999 24.3727 43.9909 23.9527 43.9909 23.5C43.9909 23.0333 43.8976 22.6087 43.7109 22.226C43.5289 21.8387 43.2699 21.5307 42.9339 21.302C42.6026 21.0687 42.2129 20.952 41.7649 20.952C41.3262 20.952 40.9249 21.0663 40.5609 21.295C40.1969 21.5237 39.9076 21.8317 39.6929 22.219C39.4829 22.6017 39.3779 23.0287 39.3779 23.5C39.3779 23.9713 39.4852 24.4007 39.6999 24.788C39.9192 25.1707 40.2086 25.4763 40.5679 25.705C40.9319 25.929 41.3309 26.041 41.7649 26.041ZM46.9201 27V20H48.0961V20.875C48.3434 20.5483 48.6561 20.2893 49.0341 20.098C49.4121 19.902 49.8227 19.804 50.2661 19.804C50.5367 19.804 50.7981 19.839 51.0501 19.909L50.5741 21.085C50.3827 21.0243 50.1961 20.994 50.0141 20.994C49.6641 20.994 49.3421 21.0803 49.0481 21.253C48.7587 21.421 48.5277 21.6497 48.3551 21.939C48.1824 22.2283 48.0961 22.5503 48.0961 22.905V27H46.9201ZM57.1828 20H58.3588V27H57.1828L57.1338 25.817C56.9145 26.223 56.6112 26.552 56.2238 26.804C55.8412 27.056 55.3838 27.182 54.8518 27.182C54.3385 27.182 53.8578 27.0863 53.4098 26.895C52.9618 26.699 52.5652 26.4307 52.2198 26.09C51.8792 25.7447 51.6132 25.348 51.4218 24.9C51.2305 24.452 51.1348 23.969 51.1348 23.451C51.1348 22.9517 51.2282 22.4803 51.4148 22.037C51.6015 21.5937 51.8605 21.2063 52.1918 20.875C52.5278 20.539 52.9152 20.2777 53.3538 20.091C53.7925 19.8997 54.2638 19.804 54.7678 19.804C55.3185 19.804 55.8015 19.9347 56.2168 20.196C56.6322 20.4527 56.9682 20.7863 57.2248 21.197L57.1828 20ZM54.8308 26.041C55.2928 26.041 55.6918 25.929 56.0278 25.705C56.3685 25.4763 56.6298 25.1683 56.8118 24.781C56.9985 24.3937 57.0918 23.9667 57.0918 23.5C57.0918 23.024 56.9985 22.5947 56.8118 22.212C56.6252 21.8247 56.3615 21.519 56.0208 21.295C55.6848 21.0663 55.2882 20.952 54.8308 20.952C54.3688 20.952 53.9488 21.0663 53.5708 21.295C53.1928 21.5237 52.8918 21.8317 52.6678 22.219C52.4485 22.6017 52.3388 23.0287 52.3388 23.5C52.3388 23.9713 52.4532 24.4007 52.6818 24.788C52.9105 25.1707 53.2138 25.4763 53.5918 25.705C53.9698 25.929 54.3828 26.041 54.8308 26.041ZM60.934 30.5H59.758V20H60.934V21.197C61.172 20.7863 61.4893 20.455 61.886 20.203C62.2826 19.9463 62.754 19.818 63.3 19.818C63.8086 19.818 64.2846 19.9137 64.728 20.105C65.176 20.2963 65.568 20.5623 65.904 20.903C66.24 21.239 66.5036 21.6287 66.695 22.072C66.8863 22.5153 66.982 22.9913 66.982 23.5C66.982 24.0087 66.8863 24.487 66.695 24.935C66.5036 25.383 66.24 25.7773 65.904 26.118C65.568 26.454 65.176 26.7177 64.728 26.909C64.2846 27.1003 63.8086 27.196 63.3 27.196C62.754 27.196 62.2826 27.07 61.886 26.818C61.4893 26.5613 61.172 26.2277 60.934 25.817V30.5ZM63.286 20.959C62.8333 20.959 62.4366 21.0733 62.096 21.302C61.7553 21.5307 61.4916 21.8363 61.305 22.219C61.123 22.6017 61.032 23.0287 61.032 23.5C61.032 23.9667 61.123 24.3937 61.305 24.781C61.4916 25.1683 61.753 25.4763 62.089 25.705C62.4296 25.9337 62.8286 26.048 63.286 26.048C63.7386 26.048 64.154 25.936 64.532 25.712C64.91 25.4833 65.2133 25.1777 65.442 24.795C65.6706 24.4077 65.785 23.976 65.785 23.5C65.785 23.0333 65.673 22.6087 65.449 22.226C65.225 21.8387 64.924 21.5307 64.546 21.302C64.168 21.0733 63.748 20.959 63.286 20.959ZM74.2721 22.646V27H73.0961V22.905C73.0961 22.5503 73.0098 22.2283 72.8371 21.939C72.6645 21.6497 72.4335 21.421 72.1441 21.253C71.8548 21.0803 71.5328 20.994 71.1781 20.994C70.8281 20.994 70.5061 21.0803 70.2121 21.253C69.9228 21.421 69.6918 21.6497 69.5191 21.939C69.3465 22.2283 69.2601 22.5503 69.2601 22.905V27H68.0841V16.5H69.2601V20.875C69.5075 20.5483 69.8201 20.2893 70.1981 20.098C70.5761 19.902 70.9868 19.804 71.4301 19.804C71.9528 19.804 72.4288 19.9323 72.8581 20.189C73.2921 20.441 73.6351 20.7817 73.8871 21.211C74.1438 21.6403 74.2721 22.1187 74.2721 22.646Z" fill="#090914"/>
<path d="M223 20L218.472 24.5932C217.937 25.1356 217.063 25.1356 216.528 24.5932L212 20" stroke="#6F7C81" stroke-width="1.5" stroke-miterlimit="10" stroke-linecap="round" stroke-linejoin="round"/>
</svg>
