<svg width="106" height="44" viewBox="0 0 106 44" fill="none" xmlns="http://www.w3.org/2000/svg">
<rect width="106" height="44" rx="6" fill="#EDEDED"/>
<g clip-path="url(#clip0_498_4618)">
<path d="M23.612 25.0601L21.1639 27.5083C21.1639 27.5083 21.1639 27.5083 21.1638 27.5083C21.1638 27.5083 21.1638 27.5084 21.1638 27.5084C20.1514 28.5208 18.5041 28.5208 17.4916 27.5084C17.0012 27.0179 16.7311 26.3658 16.7311 25.6722C16.7311 24.9788 17.0012 24.3268 17.4915 23.8363C17.4915 23.8362 17.4916 23.8362 17.4916 23.8361L19.9397 21.388C20.2777 21.0499 20.2777 20.5019 19.9397 20.1639C19.6017 19.8259 19.0536 19.8259 18.7156 20.1639L16.2675 22.612C16.2673 22.6122 16.2672 22.6124 16.267 22.6126C15.45 23.4299 15 24.5166 15 25.6722C15 26.8282 15.4501 27.915 16.2676 28.7324C17.1113 29.5761 18.2195 29.998 19.3278 29.998C20.436 29.998 21.5443 29.5761 22.3879 28.7324C22.388 28.7324 22.388 28.7323 22.388 28.7323L24.836 26.2842C25.174 25.9462 25.174 25.3981 24.836 25.0601C24.4981 24.7221 23.9501 24.7221 23.612 25.0601Z" fill="#797575"/>
<path d="M30.9999 18.3278C30.9999 17.1718 30.5497 16.085 29.7323 15.2676C28.0448 13.5802 25.2992 13.5803 23.6119 15.2676C23.6119 15.2677 23.6118 15.2678 23.6117 15.2679L21.1637 17.7158C20.8256 18.0538 20.8256 18.6019 21.1637 18.9399C21.3327 19.109 21.5542 19.1934 21.7757 19.1934C21.9972 19.1934 22.2188 19.1089 22.3877 18.9399L24.8358 16.4919C24.8358 16.4918 24.8359 16.4918 24.8361 16.4916C25.8484 15.4793 27.4957 15.4792 28.5082 16.4916C28.9986 16.9821 29.2688 17.6342 29.2688 18.3278C29.2688 19.0213 28.9987 19.6733 28.5084 20.1637L28.5082 20.1639L26.0601 22.612C25.7221 22.95 25.7221 23.4981 26.0602 23.8361C26.2292 24.0051 26.4507 24.0897 26.6722 24.0897C26.8937 24.0897 27.1152 24.0051 27.2842 23.8361L29.7323 21.388C29.7325 21.3878 29.7327 21.3876 29.7328 21.3874C30.5499 20.5701 30.9999 19.4835 30.9999 18.3278Z" fill="#797575"/>
<path d="M19.94 25.0601C20.1091 25.2291 20.3306 25.3137 20.552 25.3137C20.7736 25.3137 20.9951 25.2291 21.1641 25.0601L26.0604 20.1639C26.3984 19.8259 26.3984 19.2778 26.0604 18.9398C25.7224 18.6018 25.1743 18.6018 24.8363 18.9398L19.94 23.836C19.602 24.1741 19.602 24.7222 19.94 25.0601Z" fill="#797575"/>
</g>
<g clip-path="url(#clip1_498_4618)">
<path d="M49.1664 26.3541C48.0991 26.3541 47.1497 25.6707 46.805 24.6534L46.7817 24.5767C46.7004 24.3073 46.6663 24.0807 46.6663 23.8541V19.3085L45.0489 24.7073C44.8409 25.5014 45.3149 26.3247 46.1103 26.5441L56.4192 29.3049C56.5479 29.3382 56.6766 29.3542 56.8033 29.3542C57.4672 29.3542 58.0739 28.9135 58.244 28.2641L58.8446 26.3541H49.1664Z" fill="#797575"/>
<path d="M50.9994 19.3539C51.7348 19.3539 52.3327 18.7559 52.3327 18.0205C52.3327 17.2852 51.7348 16.6871 50.9994 16.6871C50.2641 16.6871 49.666 17.2852 49.666 18.0205C49.666 18.7559 50.2641 19.3539 50.9994 19.3539Z" fill="#797575"/>
<path d="M59.3329 14.6871H49.3327C48.4141 14.6871 47.666 15.4351 47.666 16.3539V23.6873C47.666 24.606 48.4141 25.3541 49.3327 25.3541H59.3329C60.2517 25.3541 60.9997 24.606 60.9997 23.6873V16.3539C60.9997 15.4351 60.2517 14.6871 59.3329 14.6871ZM49.3327 16.0205H59.3329C59.517 16.0205 59.6663 16.1698 59.6663 16.3539V21.0866L57.5603 18.6292C57.3369 18.3672 57.0135 18.2272 56.6662 18.2193C56.3209 18.2212 55.9969 18.3745 55.7756 18.6399L53.2995 21.6119L52.4928 20.8072C52.0369 20.3513 51.2948 20.3513 50.8394 20.8072L48.9994 22.6466V16.3539C48.9994 16.1698 49.1487 16.0205 49.3327 16.0205Z" fill="#797575"/>
</g>
<path d="M78.5767 16.0972L81.051 18.5714H76.7653C76.8527 18.0461 77.0622 17.5486 77.3768 17.1189C77.6914 16.6892 78.1024 16.3392 78.5767 16.0972ZM81.9024 15.7143H80.1424C80.0339 15.7143 79.9253 15.72 79.8167 15.7257L82.6624 18.5714H84.7596L81.9024 15.7143ZM85.8567 15.7143H83.5253L86.3824 18.5714H89.2339C89.1 17.7726 88.6872 17.0472 88.0689 16.524C87.4505 16.0009 86.6667 15.714 85.8567 15.7143ZM82.1321 25.2149L84.9892 23.6434C85.079 23.5942 85.1538 23.5218 85.2059 23.4337C85.258 23.3457 85.2856 23.2452 85.2856 23.1429C85.2856 23.0405 85.258 22.9401 85.2059 22.852C85.1538 22.764 85.079 22.6915 84.9892 22.6423L82.1321 21.0709C82.0451 21.023 81.9471 20.9987 81.8479 21.0002C81.7486 21.0017 81.6514 21.0291 81.5659 21.0797C81.4805 21.1302 81.4096 21.2021 81.3604 21.2883C81.3112 21.3746 81.2853 21.4721 81.2853 21.5714V24.7143C81.2853 24.8136 81.3112 24.9112 81.3604 24.9974C81.4096 25.0836 81.4805 25.1555 81.5659 25.2061C81.6514 25.2566 81.7486 25.284 81.8479 25.2855C81.9471 25.2871 82.0451 25.2627 82.1321 25.2149ZM89.2853 19.7143V24.8572C89.2846 25.7662 88.9231 26.6379 88.2803 27.2807C87.6375 27.9235 86.7658 28.285 85.8567 28.2857H80.1424C79.2333 28.285 78.3617 27.9235 77.7189 27.2807C77.0761 26.6379 76.7146 25.7662 76.7139 24.8572V19.7143H89.2853Z" fill="#797575"/>
<defs>
<clipPath id="clip0_498_4618">
<rect width="16" height="16" fill="white" transform="translate(15 14)"/>
</clipPath>
<clipPath id="clip1_498_4618">
<rect width="16" height="16" fill="white" transform="translate(45 14)"/>
</clipPath>
</defs>
</svg>
