<svg width="29" height="29" viewBox="0 0 29 29" fill="none" xmlns="http://www.w3.org/2000/svg">
<circle opacity="0.8" cx="14.5" cy="14.5" r="14.5" fill="#8EC241"/>
<path d="M10.085 20L10.085 8.8H13.797C14.5703 8.8 15.293 8.94667 15.965 9.24C16.6423 9.528 17.237 9.93067 17.749 10.448C18.2663 10.96 18.669 11.5547 18.957 12.232C19.2503 12.904 19.397 13.6267 19.397 14.4C19.397 15.1733 19.2503 15.8987 18.957 16.576C18.669 17.248 18.2663 17.8427 17.749 18.36C17.237 18.872 16.6423 19.2747 15.965 19.568C15.293 19.856 14.5703 20 13.797 20H10.085ZM12.293 17.792H13.797C14.2557 17.792 14.6877 17.704 15.093 17.528C15.5037 17.352 15.8663 17.1093 16.181 16.8C16.4957 16.4907 16.741 16.1307 16.917 15.72C17.0983 15.3093 17.189 14.8693 17.189 14.4C17.189 13.9307 17.0983 13.4933 16.917 13.088C16.741 12.6773 16.4957 12.3173 16.181 12.008C15.8717 11.6933 15.5117 11.448 15.101 11.272C14.6957 11.096 14.261 11.008 13.797 11.008L12.293 11.008L12.293 17.792Z" fill="white"/>
</svg>
