<svg width="25" height="24" viewBox="0 0 25 24" fill="none" xmlns="http://www.w3.org/2000/svg">
<g id="pen-field (1) 2" clip-path="url(#clip0_856_2190)">
<path id="Vector" d="M5.5 23C2.743 23 0.5 20.757 0.5 18C0.5 15.243 2.743 13 5.5 13C8.257 13 10.5 15.243 10.5 18C10.5 20.757 8.257 23 5.5 23ZM23.5 5H14.5C13.948 5 13.5 5.448 13.5 6C13.5 6.552 13.948 7 14.5 7H23.5C24.052 7 24.5 6.552 24.5 6C24.5 5.448 24.052 5 23.5 5ZM23.5 17H14.5C13.948 17 13.5 17.448 13.5 18C13.5 18.552 13.948 19 14.5 19H23.5C24.052 19 24.5 18.552 24.5 18C24.5 17.448 24.052 17 23.5 17ZM5.5 1C2.743 1 0.5 3.243 0.5 6C0.5 8.757 2.743 11 5.5 11C8.257 11 10.5 8.757 10.5 6C10.5 3.243 8.257 1 5.5 1ZM5.5 8C4.395 8 3.5 7.105 3.5 6C3.5 4.895 4.395 4 5.5 4C6.605 4 7.5 4.895 7.5 6C7.5 7.105 6.605 8 5.5 8Z" fill="#416693"/>
</g>
<defs>
<clipPath id="clip0_856_2190">
<rect width="24" height="24" fill="white" transform="translate(0.5)"/>
</clipPath>
</defs>
</svg>
