<svg width="280" height="189" viewBox="0 0 280 189" fill="none" xmlns="http://www.w3.org/2000/svg">
<g clip-path="url(#clip0_2002_2923)">
<path d="M270.274 84.3196C260.064 125.902 176.793 204.642 104.129 183.734C34.1965 163.612 2.8481 62.7478 13.058 21.165C23.2679 -20.4179 61.2293 18.9048 132.258 36.3445C203.286 53.7841 280.484 42.7368 270.274 84.3196Z" fill="#FFF6E8"/>
<path d="M140.34 125.775H29.0207C26.8081 125.775 25.0264 123.996 25.0264 121.804V48.5336C25.0264 46.3335 26.8081 44.5619 29.0207 44.5619H140.34C142.552 44.5619 144.334 46.3335 144.334 48.5336V121.804C144.334 123.996 142.552 125.775 140.34 125.775Z" fill="white"/>
<path fill-rule="evenodd" clip-rule="evenodd" d="M140.34 125.957H29.0209C26.7171 125.957 24.8442 124.094 24.8442 121.804V48.5336C24.8442 46.2429 26.7171 44.3806 29.0209 44.3806H140.34C142.644 44.3806 144.516 46.2429 144.516 48.5336V121.804C144.516 124.094 142.644 125.957 140.34 125.957ZM29.0209 44.7432C26.916 44.7432 25.2089 46.4406 25.2089 48.5336V121.804C25.2089 123.897 26.916 125.594 29.0209 125.594H140.34C142.445 125.594 144.152 123.897 144.152 121.804V48.5336C144.152 46.4406 142.445 44.7432 140.34 44.7432H29.0209Z" fill="black"/>
<path d="M144.334 51.9202H25.0266C24.9188 51.9202 24.8442 51.8378 24.8442 51.739C24.8442 51.6401 24.9188 51.5577 25.0266 51.5577H144.334C144.442 51.5577 144.516 51.6401 144.516 51.739C144.516 51.8378 144.442 51.9202 144.334 51.9202Z" fill="black"/>
<path fill-rule="evenodd" clip-rule="evenodd" d="M29.8082 49.9838C28.8801 49.9838 28.1177 49.234 28.1177 48.3029C28.1177 47.3718 28.8801 46.6219 29.8082 46.6219C30.7446 46.6219 31.507 47.3718 31.507 48.3029C31.507 49.234 30.7446 49.9838 29.8082 49.9838ZM29.8082 46.9845C29.079 46.9845 28.4823 47.5778 28.4823 48.3029C28.4823 49.0362 29.079 49.6213 29.8082 49.6213C30.5458 49.6213 31.1424 49.0362 31.1424 48.3029C31.1424 47.5778 30.5458 46.9845 29.8082 46.9845Z" fill="black"/>
<path fill-rule="evenodd" clip-rule="evenodd" d="M34.2252 49.9838C33.2888 49.9838 32.5264 49.234 32.5264 48.3029C32.5264 47.3718 33.2888 46.6219 34.2252 46.6219C35.1533 46.6219 35.9157 47.3718 35.9157 48.3029C35.9157 49.234 35.1533 49.9838 34.2252 49.9838ZM34.2252 46.9845C33.4877 46.9845 32.891 47.5778 32.891 48.3029C32.891 49.0362 33.4877 49.6213 34.2252 49.6213C34.9544 49.6213 35.5511 49.0362 35.5511 48.3029C35.5511 47.5778 34.9544 46.9845 34.2252 46.9845Z" fill="black"/>
<path fill-rule="evenodd" clip-rule="evenodd" d="M38.6339 49.9838C37.6975 49.9838 36.9434 49.234 36.9434 48.3029C36.9434 47.3718 37.6975 46.6219 38.6339 46.6219C39.5703 46.6219 40.3327 47.3718 40.3327 48.3029C40.3327 49.234 39.5703 49.9838 38.6339 49.9838ZM38.6339 46.9845C37.9046 46.9845 37.308 47.5778 37.308 48.3029C37.308 49.0362 37.9046 49.6213 38.6339 49.6213C39.3714 49.6213 39.9681 49.0362 39.9681 48.3029C39.9681 47.5778 39.3714 46.9845 38.6339 46.9845Z" fill="black"/>
<path d="M46.2744 125.594H91.6953L84.0713 84.0974L58.5557 85.7866L46.2744 125.594Z" fill="#F0A941"/>
<path d="M72.0552 125.775C72.0387 125.775 72.0221 125.773 72.0055 125.767C71.9061 125.742 71.8481 125.644 71.8729 125.553L75.312 112.468C75.6352 111.248 76.5551 110.284 77.765 109.889L78.9417 109.51C79.0329 109.477 79.1406 109.534 79.1655 109.625C79.1986 109.724 79.1489 109.823 79.0494 109.856L77.8727 110.235C76.7871 110.589 75.9584 111.454 75.6684 112.558L72.2293 125.644C72.2044 125.726 72.1298 125.775 72.0552 125.775Z" fill="black"/>
<path d="M71.9558 41.6944C67.7129 41.6944 64.2738 44.8586 64.2738 48.7643C64.2738 50.8408 65.2516 52.7113 66.8096 54.005C66.3372 55.414 64.9782 57.1444 61.1413 57.3586C54.5283 57.7212 52.6969 59.913 51.5947 64.5357C50.4925 69.1583 43.7635 65.9942 41.8078 72.685C39.8438 79.3759 45.2303 85.5806 52.0836 85.9432C58.937 86.3058 72.279 65.3844 72.279 65.3844L73.2403 55.7189C76.6048 55.1421 78.229 52.291 78.718 48.8467C79.5384 43.087 76.1904 41.6944 71.9558 41.6944Z" fill="black"/>
<path d="M70.3483 52.5135L69.0059 61.5034L75.7763 61.8742L76.4144 55.5294L70.3483 52.5135Z" fill="white"/>
<path fill-rule="evenodd" clip-rule="evenodd" d="M75.7762 62.0554C75.7762 62.0554 75.7734 62.0554 75.7679 62.0554L68.9891 61.6846C68.9394 61.6846 68.898 61.6599 68.8648 61.6187C68.8317 61.5858 68.8151 61.5281 68.8234 61.4786L70.1659 52.4888C70.1825 52.4311 70.2156 52.3734 70.2653 52.3487C70.3151 52.324 70.3813 52.324 70.4311 52.3487L76.4888 55.3728C76.5634 55.4058 76.5966 55.4799 76.5883 55.5541L75.9585 61.8906C75.9502 61.9813 75.8673 62.0554 75.7762 62.0554ZM69.2129 61.3386L75.6104 61.6846L76.2154 55.6365L70.4974 52.7854L69.2129 61.3386Z" fill="black"/>
<path d="M72.8925 46.0781C72.8925 46.0781 73.3482 49.6542 71.1273 50.7337C71.1273 50.7337 71.1273 48.4842 69.097 49.2258C67.0584 49.9674 67.0502 53.3787 70.4975 53.8402C70.4975 53.8402 72.4947 57.9272 76.8039 57.0538C81.1131 56.1886 78.2624 45.6826 78.2624 45.6826C78.2624 45.6826 75.6935 46.8197 72.8925 46.0781Z" fill="white"/>
<path fill-rule="evenodd" clip-rule="evenodd" d="M75.627 57.3586C72.3785 57.3586 70.6797 54.5488 70.3814 54.0132C68.4588 53.7166 67.6549 52.5382 67.5389 51.5165C67.4229 50.4288 68.0361 49.4235 69.0306 49.0527C69.677 48.822 70.2073 48.8385 70.6051 49.1186C71.0857 49.4482 71.2349 50.0662 71.2846 50.437C73.0912 49.2917 72.71 46.1358 72.71 46.1028C72.7017 46.0369 72.7266 45.9792 72.768 45.938C72.8177 45.905 72.8757 45.8886 72.9337 45.905C75.6436 46.6219 78.1628 45.5342 78.1877 45.5178C78.2374 45.5013 78.2954 45.5013 78.3368 45.5178C78.3866 45.5425 78.428 45.5837 78.4363 45.6414C78.5192 45.938 80.4169 53.0244 78.5689 55.999C78.1462 56.6665 77.5662 57.0867 76.8369 57.235C76.4143 57.3174 76.0082 57.3586 75.627 57.3586ZM69.8427 49.2587C69.6383 49.2587 69.4118 49.3054 69.1632 49.3988C68.3179 49.7037 67.8041 50.5606 67.9035 51.4753C68.003 52.3817 68.7405 53.4282 70.5222 53.6671C70.5885 53.6754 70.6383 53.7083 70.6631 53.766C70.746 53.9226 72.652 57.713 76.7623 56.8725C77.3921 56.7489 77.8976 56.3863 78.254 55.8095C79.8534 53.2386 78.4363 47.1163 78.138 45.9298C77.4916 46.177 75.4115 46.8444 73.0912 46.317C73.1575 47.1822 73.1824 49.9344 71.2101 50.8985C71.152 50.9232 71.0857 50.9232 71.0277 50.8902C70.978 50.8573 70.9449 50.7996 70.9449 50.7337C70.9449 50.7254 70.9366 49.7943 70.3896 49.4153C70.2405 49.3109 70.0582 49.2587 69.8427 49.2587Z" fill="black"/>
<path d="M70.5469 52.6536C70.4723 52.6536 70.406 52.6042 70.3728 52.53C70.1905 52.0109 69.7762 51.5742 69.2707 51.3599C69.1712 51.327 69.1298 51.2198 69.1712 51.1292C69.2127 51.0303 69.3204 50.9891 69.4115 51.0303C70.0082 51.2858 70.4971 51.7966 70.7209 52.4064C70.754 52.5053 70.7043 52.6042 70.6132 52.6371C70.5911 52.6481 70.569 52.6536 70.5469 52.6536Z" fill="black"/>
<path d="M58.9204 96.6387L88.306 96.0702L81.1958 63.1266C81.1958 63.1266 69.8426 61.8906 59.7657 63.2338L58.9204 96.6387Z" fill="#F0A941"/>
<path d="M67.083 63.1266L67.4228 60.564C67.4974 60.0531 67.9366 59.6658 68.4504 59.6658C70.116 59.6741 73.6794 59.74 76.0329 60.185C76.4887 60.2674 76.8285 60.6464 76.8699 61.1078L77.0522 63.2832L67.083 63.1266Z" fill="#F0A941"/>
<path d="M134.738 81.0651C134.34 79.9198 133.138 80.7108 133.138 80.7108C133.138 80.7108 132.608 79.2523 130.395 80.0681C128.547 80.7438 125.854 81.0651 125.854 81.0651C125.854 81.0651 127.644 79.3512 127.321 78.5107C127.006 77.6702 119.656 80.8426 116.465 81.2629C116.465 81.2629 116.457 81.2629 116.44 81.2629C115.703 82.6884 115.263 84.2705 115.172 85.869C115.065 87.8054 115.471 89.7666 116.316 91.5052C123.592 88.7201 130.627 85.3252 132.956 84.1716C133.437 83.9326 133.735 83.4218 133.694 82.8862C133.694 82.8862 135.136 82.2022 134.738 81.0651Z" fill="white"/>
<path fill-rule="evenodd" clip-rule="evenodd" d="M116.324 91.6865C116.25 91.6865 116.183 91.6535 116.158 91.5876C115.28 89.7995 114.882 87.8219 114.99 85.8608C115.081 84.254 115.529 82.639 116.283 81.1805C116.316 81.1228 116.374 81.0898 116.44 81.0816H116.448C117.865 80.8921 120.161 80.1422 122.191 79.4748C125.871 78.2718 127.279 77.8762 127.495 78.4448C127.76 79.137 126.89 80.2329 126.351 80.8097C127.221 80.6861 129.011 80.3812 130.329 79.895C131.191 79.5819 131.92 79.5572 132.492 79.8209C132.881 80.0022 133.105 80.2741 133.213 80.4636C133.453 80.3482 133.884 80.1834 134.282 80.3153C134.572 80.4142 134.787 80.6449 134.912 80.9992C135.243 81.9633 134.431 82.6966 133.876 82.9933C133.876 83.5618 133.553 84.081 133.039 84.3364C130.42 85.6301 123.559 88.9261 116.382 91.6782C116.366 91.6837 116.346 91.6865 116.324 91.6865ZM116.564 81.4359C115.86 82.8202 115.446 84.3529 115.355 85.8855C115.255 87.7231 115.62 89.5853 116.415 91.2827C123.509 88.5471 130.279 85.2922 132.873 84.0068C133.296 83.8008 133.544 83.3641 133.511 82.9026C133.503 82.8285 133.544 82.7543 133.611 82.7214C133.669 82.6966 134.903 82.0951 134.564 81.1228C134.481 80.8674 134.348 80.719 134.166 80.6614C133.768 80.5213 133.246 80.8591 133.238 80.8674C133.196 80.8921 133.138 80.9003 133.08 80.8838C133.031 80.8674 132.989 80.8262 132.973 80.7767C132.948 80.719 132.467 79.4995 130.462 80.2411C128.614 80.9168 125.987 81.2299 125.879 81.2464C125.796 81.2546 125.722 81.2134 125.688 81.1393C125.655 81.0734 125.672 80.9827 125.73 80.9333C126.384 80.2988 127.354 79.104 127.155 78.5766C126.865 78.3294 124.23 79.1946 122.307 79.8209C120.194 80.513 118.006 81.2299 116.564 81.4359Z" fill="black"/>
<path d="M125.125 84.3529C125.05 84.3529 124.975 84.3034 124.951 84.221C124.926 84.1222 124.984 84.0233 125.075 83.9986L131.381 82.2352C131.746 82.1363 132.127 82.0374 132.525 82.0374C132.989 82.0374 133.403 82.2105 133.652 82.4989C133.718 82.573 133.71 82.6884 133.635 82.7543C133.561 82.8202 133.445 82.812 133.378 82.7378C133.196 82.5236 132.881 82.4 132.517 82.4C132.169 82.4 131.821 82.4906 131.481 82.5895L125.174 84.3446C125.158 84.3501 125.141 84.3529 125.125 84.3529Z" fill="black"/>
<path d="M126.003 83.0427C125.92 83.0427 125.837 82.9768 125.821 82.8862C125.804 82.7955 125.871 82.6966 125.97 82.6802C128.232 82.2764 130.462 81.6666 132.616 80.8591C132.707 80.8262 132.815 80.8756 132.848 80.9662C132.881 81.0651 132.832 81.164 132.741 81.2052C130.569 82.0127 128.315 82.6307 126.036 83.0345C126.025 83.04 126.014 83.0427 126.003 83.0427Z" fill="black"/>
<path d="M120.376 84.3117C120.227 84.3117 120.078 84.3007 119.929 84.2787C119.829 84.2622 119.755 84.1634 119.771 84.0645C119.788 83.9656 119.887 83.8997 119.979 83.9162C120.807 84.048 121.735 83.7596 122.738 83.0674C123.07 82.8367 123.401 82.573 123.716 82.3176C124.197 81.9303 124.686 81.5348 125.232 81.2217C125.324 81.1722 125.431 81.197 125.481 81.2876C125.531 81.37 125.506 81.4854 125.415 81.5348C124.893 81.8397 124.412 82.227 123.94 82.5978C123.625 82.8532 123.293 83.1251 122.945 83.3641C122.042 83.9903 121.18 84.3117 120.376 84.3117Z" fill="black"/>
<path d="M115.173 85.869C115.264 84.2705 115.703 82.6884 116.44 81.2629C115.96 81.2794 106.935 81.4771 102.825 81.0651C102.825 81.0651 92.98 63.2832 85.3643 63.069L78.3701 62.8877L83.8147 98.2867H88.7703C89.6818 98.2867 90.3614 97.4462 90.179 96.5563L87.6349 84.4847C87.6349 84.4847 90.7509 94.0184 99.3279 95.4439C102.974 96.0454 109.745 94.0266 116.316 91.5052C115.471 89.7666 115.065 87.8054 115.173 85.869Z" fill="white"/>
<path d="M88.77 98.468H83.8144C83.715 98.468 83.6321 98.3856 83.6321 98.2867C83.6321 98.1796 83.715 98.0972 83.8144 98.0972H88.77C89.143 98.0972 89.4993 97.9324 89.7396 97.6358C89.9799 97.3474 90.0711 96.9683 89.9965 96.5975L87.4607 84.5259C87.4358 84.4271 87.4938 84.3364 87.5933 84.3117C87.6844 84.287 87.7839 84.3364 87.8088 84.427C87.8419 84.5259 90.9909 93.8783 99.3525 95.2626C102.41 95.7735 108.037 94.4799 116.067 91.4063C115.255 89.6677 114.882 87.756 114.99 85.8608C115.073 84.3529 115.471 82.8367 116.142 81.4524C114.476 81.4854 106.579 81.6172 102.808 81.2464C102.75 81.2382 102.7 81.2052 102.667 81.1475C102.568 80.9745 92.7809 63.4562 85.3558 63.2502L78.3616 63.069C78.2622 63.069 78.1793 62.9866 78.1876 62.8877C78.1876 62.7888 78.2622 62.7064 78.3699 62.7064L85.3641 62.8877C92.8141 63.1019 102.112 79.4089 102.941 80.8921C107.101 81.2876 116.059 81.0981 116.44 81.0816C116.507 81.0816 116.565 81.1146 116.598 81.1722C116.631 81.2217 116.639 81.2958 116.606 81.3535C115.877 82.7543 115.446 84.3282 115.355 85.8855C115.247 87.7807 115.636 89.7006 116.482 91.431C116.507 91.4722 116.507 91.5299 116.49 91.5711C116.473 91.6206 116.432 91.6618 116.382 91.6782C108.195 94.8177 102.444 96.1443 99.2945 95.6252C92.9881 94.5787 89.5822 89.1403 88.2065 86.2893L90.3529 96.5234C90.4523 97.0013 90.3363 97.4874 90.0214 97.8665C89.7148 98.2455 89.259 98.468 88.77 98.468Z" fill="black"/>
<path d="M99.3524 81.4771C99.2612 81.4771 99.1783 81.403 99.1701 81.3041C99.1618 81.2052 99.2364 81.1146 99.3358 81.1146L102.344 80.9003C102.452 80.8921 102.535 80.9662 102.543 81.0651C102.551 81.164 102.477 81.2547 102.377 81.2629L99.369 81.4771C99.3634 81.4771 99.3579 81.4771 99.3524 81.4771Z" fill="black"/>
<path d="M64.8621 62.624L67.1658 125.602H45.338C45.338 125.602 51.52 97.3309 51.5532 96.1855C51.5532 96.1855 47.4263 96.6634 44.8242 93.697C42.2138 90.7306 44.7496 80.5048 49.4151 70.1801C53.0117 62.245 64.8621 62.624 64.8621 62.624Z" fill="white"/>
<path d="M45.3298 125.924C45.3188 125.924 45.3077 125.921 45.2967 125.915C45.1972 125.899 45.1309 125.8 45.1558 125.701C47.2027 116.291 51.0147 98.6246 51.3545 96.3833C50.4346 96.4327 46.9707 96.4163 44.6835 93.8124C41.7913 90.5247 44.7995 79.5407 49.0673 70.1059C49.1087 70.0153 49.2164 69.9741 49.3076 70.0153C49.3987 70.0565 49.4402 70.1636 49.3987 70.2542C44.41 81.2876 42.5869 90.8707 44.9569 93.5734C47.4679 96.441 51.4953 96.0125 51.5368 96.0042C51.5865 95.996 51.6445 96.0207 51.6777 96.0537C51.7191 96.0866 51.7439 96.1361 51.7357 96.1938C51.7025 97.3391 45.7608 124.614 45.5122 125.775C45.4873 125.866 45.4127 125.924 45.3298 125.924Z" fill="black"/>
<path d="M52.117 96.3421C52.0175 96.3421 51.9347 96.2597 51.9347 96.1608C51.9264 96.0619 52.0092 95.9795 52.1087 95.9795C56.393 95.8889 61.5807 94.2079 65.6496 91.5876C65.7325 91.5382 65.8402 91.5546 65.8982 91.6453C65.9562 91.7277 65.9313 91.8348 65.8485 91.8925C61.7216 94.5458 56.4676 96.2514 52.117 96.3421Z" fill="black"/>
<path d="M46.9458 85.2428C46.8795 85.2428 46.8215 85.2098 46.7884 85.1522C46.7386 85.0615 46.7635 84.9544 46.8547 84.905L63.1717 75.4454C63.2546 75.396 63.3706 75.4207 63.4203 75.5114C63.47 75.5938 63.4369 75.7091 63.354 75.7586L47.037 85.2181C47.0093 85.2346 46.979 85.2428 46.9458 85.2428Z" fill="black"/>
<path d="M93.0627 103.297H68.989L61.5391 74.5885H85.621L93.0627 103.297Z" fill="black"/>
<path d="M69.9917 83.6854C69.9089 83.6854 69.8343 83.6278 69.8094 83.5454L68.6078 78.5766C68.5829 78.4778 68.6492 78.3789 68.7404 78.3542C68.8398 78.3294 68.9393 78.3871 68.9641 78.486L70.1658 83.463C70.1906 83.5618 70.1326 83.6607 70.0332 83.6854C70.0166 83.6854 70.0028 83.6854 69.9917 83.6854Z" fill="#F0A941"/>
<path d="M71.6241 81.197H67.1574C67.058 81.197 66.9751 81.1146 66.9751 81.0157C66.9751 80.9168 67.058 80.8344 67.1574 80.8344H71.6241C71.7235 80.8344 71.8064 80.9168 71.8064 81.0157C71.8064 81.1146 71.7235 81.197 71.6241 81.197Z" fill="#F0A941"/>
<path fill-rule="evenodd" clip-rule="evenodd" d="M69.6435 85.0203C68.2762 85.0203 66.8674 84.2128 66.0636 82.8202C65.5083 81.8726 65.3095 80.785 65.5083 79.7797C65.7072 78.7579 66.279 77.9257 67.1243 77.4395C68.8563 76.4507 71.1932 77.2418 72.3368 79.2194C72.892 80.167 73.0909 81.2464 72.892 82.2599C72.6931 83.2817 72.1213 84.1057 71.2761 84.5918C70.7706 84.8802 70.2153 85.0203 69.6435 85.0203ZM68.7568 77.3736C68.2513 77.3736 67.7541 77.4972 67.3066 77.7609C66.5525 78.1894 66.047 78.931 65.8647 79.8456C65.6907 80.7685 65.8647 81.7655 66.3785 82.639C67.4226 84.4353 69.5358 85.1686 71.0938 84.2787C71.8479 83.8502 72.3534 83.1086 72.5357 82.194C72.7097 81.2629 72.5357 80.2741 72.0219 79.4006C71.2844 78.1152 69.9916 77.3736 68.7568 77.3736Z" fill="#F0A941"/>
<path d="M85.9857 87.6242H67.7461C67.5887 87.6242 67.4727 87.5006 67.4727 87.3522C67.4727 87.1957 67.5887 87.0803 67.7461 87.0803H85.9857C86.1432 87.0803 86.2592 87.1957 86.2592 87.3522C86.2592 87.5006 86.1432 87.6242 85.9857 87.6242Z" fill="white"/>
<path d="M86.7978 91.0026H68.5581C68.409 91.0026 68.2847 90.879 68.2847 90.7306C68.2847 90.5823 68.409 90.4587 68.5581 90.4587H86.7978C86.9552 90.4587 87.0712 90.5823 87.0712 90.7306C87.0712 90.879 86.9552 91.0026 86.7978 91.0026Z" fill="white"/>
<path d="M87.6181 94.381H69.3701C69.221 94.381 69.0967 94.2574 69.0967 94.109C69.0967 93.9607 69.221 93.8371 69.3701 93.8371H87.6181C87.7672 93.8371 87.8915 93.9607 87.8915 94.109C87.8915 94.2574 87.7672 94.381 87.6181 94.381Z" fill="white"/>
<path d="M71.6658 74.6544L65.1108 74.6462C65.1108 74.6462 70.7211 70.691 74.6906 70.9052C78.6683 71.1194 80.102 73.7974 80.997 76.1623C81.8837 78.5354 81.0964 80.8756 79.4059 78.8321C79.4059 78.8321 78.4943 80.6366 77.4087 79.1452C77.4087 79.1452 76.406 80.0269 75.7927 79.1617C75.7927 79.1617 74.8397 80.3235 74.4171 79.1617C73.9945 77.9916 72.6686 75.602 71.6658 74.6544Z" fill="white"/>
<path d="M78.2953 79.9115C77.9721 79.9115 77.6655 79.7385 77.3754 79.3924C77.1682 79.5407 76.7622 79.7632 76.3561 79.7138C76.1407 79.6918 75.9501 79.5984 75.7843 79.4336C75.5854 79.6314 75.2208 79.9115 74.8479 79.8538C74.5827 79.8044 74.3755 79.5902 74.2429 79.2194C73.8369 78.0822 72.5193 75.7091 71.5414 74.7862C71.4668 74.7121 71.4668 74.5967 71.5331 74.5308C71.6077 74.4566 71.7237 74.4484 71.79 74.5226C72.8424 75.5196 74.1684 77.9339 74.591 79.0958C74.6739 79.3375 74.7816 79.4693 74.9142 79.4913C75.1794 79.5407 75.544 79.1782 75.6517 79.0463C75.6932 78.9969 75.7429 78.9722 75.8009 78.9804C75.8589 78.9804 75.9169 79.0134 75.9501 79.0546C76.0744 79.2358 76.2152 79.3347 76.3976 79.3594C76.8202 79.4089 77.2843 79.0134 77.2843 79.0051C77.3257 78.9722 77.3754 78.9557 77.4251 78.9639C77.4749 78.9639 77.5246 78.9969 77.5577 79.0381C77.8229 79.4006 78.0853 79.5709 78.345 79.549C78.7676 79.516 79.1323 78.9639 79.24 78.7497C79.2731 78.692 79.3229 78.659 79.3809 78.6508C79.4472 78.6426 79.5052 78.6673 79.5466 78.7167C80.0272 79.3018 80.4665 79.5407 80.7482 79.3842C81.2371 79.104 81.3697 77.695 80.8228 76.2282C80.6073 75.6514 80.2676 74.8027 79.7704 74.0117C79.7206 73.9293 79.7455 73.8139 79.8284 73.7645C79.9112 73.7068 80.0272 73.7315 80.077 73.8222C80.5908 74.6379 80.9471 75.5114 81.1626 76.1046C81.7509 77.6702 81.6515 79.2853 80.9305 79.6973C80.6322 79.8703 80.135 79.895 79.4306 79.137C79.2483 79.4171 78.8671 79.8703 78.3699 79.9115C78.3478 79.9115 78.3229 79.9115 78.2953 79.9115Z" fill="black"/>
<path d="M75.7432 79.071C75.6438 79.071 75.5692 78.9969 75.5609 78.898C75.5029 77.4642 75.0886 76.0634 74.3593 74.8357C74.3096 74.745 74.3427 74.6379 74.4256 74.5885C74.5168 74.5308 74.6245 74.5638 74.6742 74.6462C75.4366 75.9316 75.8675 77.3901 75.9255 78.8815C75.9338 78.9804 75.851 79.0628 75.7515 79.071C75.746 79.071 75.7432 79.071 75.7432 79.071Z" fill="black"/>
<path d="M77.4251 79.1617C77.334 79.1617 77.2511 79.0875 77.2428 78.9969C77.1268 77.3159 76.6545 75.635 75.8755 74.1353C75.8258 74.0446 75.8672 73.9375 75.9501 73.8881C76.0412 73.8469 76.149 73.8798 76.1987 73.9705C77.0025 75.5114 77.4914 77.2418 77.6075 78.9722C77.6158 79.0711 77.5412 79.1534 77.4417 79.1617C77.4362 79.1617 77.4307 79.1617 77.4251 79.1617Z" fill="black"/>
<path d="M79.3145 78.7579C79.215 78.7579 79.1322 78.6755 79.1322 78.5766C79.0907 76.8792 78.5769 75.2312 77.6488 73.8057C77.5908 73.7233 77.6157 73.6162 77.6985 73.5585C77.7814 73.5008 77.8974 73.5255 77.9554 73.6079C78.9167 75.0911 79.4554 76.805 79.4968 78.5684C79.4968 78.6673 79.4222 78.7497 79.3228 78.7579C79.3172 78.7579 79.3145 78.7579 79.3145 78.7579Z" fill="black"/>
<path d="M132.467 69.5456L120.542 55.3563C119.639 54.2769 119.788 52.6701 120.874 51.7719L149.016 28.4198C150.102 27.5216 151.718 27.6617 152.621 28.7411L164.538 42.9304C165.449 44.0098 165.3 45.6166 164.214 46.5148L136.072 69.8752C134.986 70.7734 133.37 70.625 132.467 69.5456Z" fill="white"/>
<path fill-rule="evenodd" clip-rule="evenodd" d="M134.431 70.6415C133.644 70.6415 132.865 70.3119 132.326 69.661L120.409 55.4717C119.937 54.9114 119.713 54.2027 119.779 53.4776C119.846 52.7525 120.194 52.1015 120.749 51.6318L148.9 28.2797C150.06 27.3156 151.792 27.4722 152.762 28.6258L164.678 42.815C165.151 43.3754 165.374 44.084 165.308 44.8091C165.242 45.5342 164.894 46.1934 164.33 46.6549L136.188 70.007C135.674 70.4355 135.052 70.6415 134.431 70.6415ZM132.608 69.4302C133.445 70.4355 134.945 70.5674 135.947 69.7351L164.098 46.3747C164.587 45.971 164.885 45.4024 164.943 44.7762C165.001 44.1499 164.803 43.5319 164.397 43.0458L152.48 28.8565C151.643 27.8594 150.143 27.7194 149.132 28.5598L120.989 51.912C120.5 52.3158 120.202 52.8843 120.144 53.5106C120.086 54.145 120.277 54.7548 120.683 55.241L132.608 69.4302Z" fill="black"/>
<path fill-rule="evenodd" clip-rule="evenodd" d="M151.03 38.522C149.952 38.522 148.883 38.0688 148.146 37.1871C147.499 36.4208 147.193 35.4567 147.284 34.4597C147.375 33.4709 147.847 32.5727 148.618 31.93C150.209 30.6116 152.579 30.8258 153.905 32.4079C154.543 33.1742 154.85 34.1383 154.759 35.1271C154.668 36.1242 154.195 37.0223 153.424 37.6568C152.728 38.2418 151.875 38.522 151.03 38.522ZM151.021 31.4274C150.251 31.4274 149.488 31.6828 148.85 32.2102C148.154 32.787 147.731 33.5945 147.648 34.4926C147.566 35.3908 147.839 36.2642 148.419 36.9564C149.621 38.3819 151.759 38.5714 153.192 37.3766C153.889 36.8081 154.311 35.9923 154.394 35.0942C154.477 34.2042 154.203 33.3308 153.623 32.6386C152.952 31.8394 151.991 31.4274 151.021 31.4274Z" fill="black"/>
<path d="M152.77 37.5085C151.609 38.4643 149.886 38.316 148.924 37.1624C147.955 36.0088 148.112 34.3031 149.272 33.339C150.424 32.3832 152.148 32.5315 153.118 33.6851C154.079 34.8305 153.93 36.5444 152.77 37.5085Z" fill="#E2EAFF"/>
<path fill-rule="evenodd" clip-rule="evenodd" d="M158.372 47.2729C157.303 47.2729 156.234 46.8197 155.488 45.938C154.85 45.1717 154.543 44.1994 154.634 43.2106C154.726 42.2218 155.198 41.3236 155.969 40.6809C157.551 39.3625 159.922 39.5767 161.247 41.1588C161.894 41.9169 162.2 42.8892 162.109 43.878C162.018 44.875 161.546 45.7732 160.775 46.4077C160.071 46.9927 159.225 47.2729 158.372 47.2729ZM158.372 40.1782C157.601 40.1782 156.83 40.4337 156.201 40.961C155.505 41.5378 155.082 42.3454 154.999 43.2435C154.916 44.1417 155.19 45.0151 155.77 45.699C156.971 47.1246 159.109 47.3223 160.543 46.1275C161.239 45.5507 161.662 44.7432 161.745 43.845C161.828 42.9551 161.554 42.0817 160.974 41.3895C160.303 40.5902 159.341 40.1782 158.372 40.1782Z" fill="black"/>
<path d="M160.12 46.2511C158.96 47.2152 157.237 47.0586 156.275 45.9133C155.306 44.7597 155.463 43.0458 156.615 42.0899C157.775 41.1258 159.499 41.2824 160.46 42.436C161.43 43.5814 161.272 45.2953 160.12 46.2511Z" fill="#E2EAFF"/>
<path fill-rule="evenodd" clip-rule="evenodd" d="M143.199 45.0151C142.129 45.0151 141.06 44.5619 140.315 43.6802C139.677 42.9139 139.37 41.9416 139.461 40.9528C139.552 39.964 140.025 39.0658 140.795 38.4231C142.386 37.1047 144.756 37.319 146.082 38.901C146.72 39.6591 147.027 40.6314 146.936 41.6202C146.845 42.6173 146.372 43.5154 145.602 44.1499C144.906 44.735 144.052 45.0151 143.199 45.0151ZM143.199 37.9205C142.428 37.9205 141.657 38.1759 141.027 38.7033C140.331 39.2801 139.909 40.0876 139.826 40.9858C139.743 41.8839 140.016 42.7574 140.596 43.4413C141.798 44.8668 143.936 45.0646 145.37 43.8698C146.066 43.293 146.488 42.4854 146.571 41.5873C146.654 40.6974 146.381 39.8239 145.801 39.1318C145.129 38.3325 144.168 37.9205 143.199 37.9205Z" fill="black"/>
<path d="M144.947 44.0016C143.787 44.9574 142.063 44.8009 141.102 43.6555C140.132 42.5019 140.29 40.7962 141.45 39.8322C142.602 38.8681 144.325 39.0246 145.295 40.1782C146.256 41.3236 146.099 43.0375 144.947 44.0016Z" fill="#E2EAFF"/>
<path fill-rule="evenodd" clip-rule="evenodd" d="M150.549 53.766C149.472 53.766 148.411 53.3128 147.665 52.4229C147.027 51.6648 146.721 50.6925 146.812 49.7037C146.903 48.7066 147.375 47.8085 148.146 47.174C149.729 45.8556 152.099 46.0698 153.425 47.6437C154.071 48.41 154.369 49.3823 154.287 50.3711C154.195 51.3599 153.723 52.2581 152.952 52.9008C152.248 53.4776 151.394 53.766 150.549 53.766ZM150.541 46.6714C149.778 46.6714 149.008 46.9268 148.378 47.4542C147.682 48.031 147.251 48.8385 147.176 49.7366C147.093 50.6266 147.367 51.5082 147.947 52.1922C149.14 53.6177 151.287 53.8072 152.72 52.6206C153.408 52.0438 153.839 51.2363 153.922 50.3382C154.005 49.44 153.723 48.5666 153.143 47.8826C152.48 47.0834 151.51 46.6714 150.541 46.6714Z" fill="black"/>
<path d="M152.289 52.7442C151.137 53.7083 149.414 53.5518 148.444 52.4064C147.483 51.2528 147.64 49.5389 148.792 48.583C149.952 47.619 151.676 47.7755 152.637 48.9291C153.607 50.0745 153.45 51.7884 152.289 52.7442Z" fill="#E2EAFF"/>
<path fill-rule="evenodd" clip-rule="evenodd" d="M135.376 51.5082C134.307 51.5082 133.238 51.055 132.492 50.1734C131.854 49.407 131.547 48.4347 131.638 47.4459C131.729 46.4571 132.202 45.559 132.973 44.9162C134.555 43.5978 136.925 43.8121 138.251 45.3942C138.898 46.1522 139.204 47.1246 139.113 48.1134C139.022 49.1104 138.55 50.0086 137.779 50.643C137.075 51.2281 136.229 51.5082 135.376 51.5082ZM135.376 44.4136C134.605 44.4136 133.834 44.669 133.205 45.1964C132.508 45.7732 132.086 46.5807 132.003 47.4789C131.92 48.377 132.194 49.2505 132.774 49.9344C133.967 51.3599 136.113 51.5577 137.547 50.3629C138.243 49.7861 138.666 48.9786 138.749 48.0804C138.831 47.1822 138.558 46.3088 137.978 45.6249C137.307 44.8256 136.345 44.4136 135.376 44.4136Z" fill="black"/>
<path d="M137.124 50.4865C135.964 51.4506 134.24 51.294 133.279 50.1486C132.31 48.995 132.467 47.2811 133.619 46.3253C134.779 45.3612 136.503 45.5178 137.464 46.6714C138.434 47.8167 138.276 49.5306 137.124 50.4865Z" fill="#E2EAFF"/>
<path fill-rule="evenodd" clip-rule="evenodd" d="M142.726 60.2591C141.649 60.2591 140.58 59.7977 139.842 58.916C139.196 58.1579 138.898 57.1856 138.989 56.1968C139.072 55.1998 139.552 54.3016 140.315 53.6671C141.906 52.3487 144.276 52.563 145.602 54.1368C146.248 54.9031 146.546 55.8754 146.455 56.8642C146.372 57.853 145.9 58.7512 145.129 59.3939C144.425 59.9707 143.571 60.2591 142.726 60.2591ZM142.718 53.1645C141.955 53.1645 141.185 53.4199 140.555 53.9473C139.859 54.5241 139.428 55.3316 139.345 56.2298C139.27 57.1197 139.544 57.9931 140.124 58.6853C141.317 60.1108 143.455 60.3003 144.889 59.1138C145.585 58.537 146.016 57.7294 146.099 56.8313C146.174 55.9331 145.9 55.0597 145.32 54.3758C144.657 53.5765 143.687 53.1645 142.718 53.1645Z" fill="black"/>
<path d="M144.466 59.2374C143.314 60.2014 141.591 60.0449 140.621 58.8913C139.66 57.7459 139.809 56.032 140.969 55.0762C142.129 54.1121 143.845 54.2686 144.814 55.414C145.784 56.5676 145.627 58.2815 144.466 59.2374Z" fill="#E2EAFF"/>
<path fill-rule="evenodd" clip-rule="evenodd" d="M127.553 58.0014C126.475 58.0014 125.414 57.5482 124.669 56.6582C124.031 55.9002 123.724 54.9278 123.815 53.939C123.906 52.942 124.379 52.0438 125.149 51.4094C126.732 50.091 129.102 50.3052 130.428 51.879C131.074 52.6454 131.373 53.6177 131.29 54.6065C131.199 55.5953 130.726 56.4934 129.956 57.1362C129.251 57.713 128.398 58.0014 127.553 58.0014ZM127.544 50.9067C126.782 50.9067 126.011 51.1622 125.381 51.6895C124.685 52.2663 124.254 53.0738 124.18 53.972C124.097 54.8619 124.37 55.7354 124.95 56.4275C126.144 57.853 128.29 58.0426 129.724 56.856C130.412 56.2792 130.842 55.4717 130.925 54.5735C131.008 53.6754 130.726 52.8019 130.146 52.118C129.483 51.3187 128.514 50.9067 127.544 50.9067Z" fill="black"/>
<path d="M129.293 56.9796C128.141 57.9437 126.417 57.7871 125.448 56.6418C124.486 55.4882 124.644 53.7742 125.796 52.8184C126.956 51.8543 128.68 52.0109 129.641 53.1562C130.61 54.3098 130.453 56.0238 129.293 56.9796Z" fill="#E2EAFF"/>
<path fill-rule="evenodd" clip-rule="evenodd" d="M134.903 66.7522C133.826 66.7522 132.757 66.2908 132.019 65.4091C131.373 64.6428 131.075 63.6787 131.158 62.6899C131.249 61.6929 131.721 60.7947 132.492 60.1602C134.083 58.8418 136.453 59.0561 137.779 60.6299C138.417 61.3962 138.724 62.3603 138.632 63.3574C138.541 64.3462 138.069 65.2443 137.298 65.887C136.602 66.4638 135.749 66.7522 134.903 66.7522ZM134.895 59.6576C134.133 59.6576 133.362 59.913 132.724 60.4404C132.036 61.009 131.605 61.8247 131.522 62.7229C131.439 63.6128 131.721 64.4862 132.301 65.1784C133.495 66.6039 135.633 66.7934 137.066 65.6069C137.762 65.0301 138.193 64.2226 138.268 63.3244C138.351 62.4262 138.077 61.5528 137.497 60.8606C136.826 60.0696 135.865 59.6576 134.895 59.6576Z" fill="black"/>
<path d="M136.644 65.7305C135.483 66.6946 133.768 66.538 132.798 65.3844C131.837 64.239 131.986 62.5251 133.146 61.561C134.307 60.6052 136.022 60.7618 136.992 61.9071C137.953 63.0607 137.804 64.7746 136.644 65.7305Z" fill="#E2EAFF"/>
<path d="M131.074 38.6456C129.326 38.2501 128.083 36.701 128.083 34.9211V34.3361H118.984V34.9211C118.984 36.701 117.741 38.2501 115.992 38.6456C114.235 39.0329 112.992 40.582 112.992 42.3618V68.2354C112.992 70.3449 114.708 72.0506 116.829 72.0506H130.237C132.359 72.0506 134.074 70.3449 134.074 68.2354V42.3618C134.074 40.582 132.831 39.0329 131.074 38.6456Z" fill="white"/>
<path fill-rule="evenodd" clip-rule="evenodd" d="M130.238 72.2318H116.829C114.617 72.2318 112.81 70.4438 112.81 68.2354V42.3618C112.81 40.4831 114.103 38.8763 115.951 38.4643C117.633 38.0853 118.802 36.6268 118.802 34.9211V34.3361C118.802 34.2372 118.884 34.1548 118.984 34.1548H128.083C128.182 34.1548 128.265 34.2372 128.265 34.3361V34.9211C128.265 36.6268 129.434 38.0853 131.116 38.4643C132.964 38.8763 134.257 40.4831 134.257 42.3618V68.2354C134.257 70.4438 132.45 72.2318 130.238 72.2318ZM119.166 34.5174V34.9211C119.166 36.7998 117.882 38.4066 116.034 38.8186C114.351 39.1977 113.175 40.6562 113.175 42.3618V68.2354C113.175 70.2378 114.816 71.8693 116.829 71.8693H130.238C132.251 71.8693 133.892 70.2378 133.892 68.2354V42.3618C133.892 40.6562 132.715 39.1977 131.033 38.8186C129.185 38.4066 127.901 36.7998 127.901 34.9211V34.5174H119.166Z" fill="black"/>
<path d="M130.61 64.1978H112.785V46.556H130.61V64.1978Z" fill="white"/>
<path fill-rule="evenodd" clip-rule="evenodd" d="M130.611 64.3791H112.785C112.678 64.3791 112.603 64.2967 112.603 64.1978V46.556C112.603 46.4571 112.678 46.3747 112.785 46.3747H130.611C130.718 46.3747 130.793 46.4571 130.793 46.556V64.1978C130.793 64.2967 130.718 64.3791 130.611 64.3791ZM112.968 64.0166H130.428V46.7373H112.968V64.0166Z" fill="black"/>
<path d="M127.536 49.9674H114.716C114.617 49.9674 114.534 49.8932 114.534 49.7861C114.534 49.6872 114.617 49.6048 114.716 49.6048H127.536C127.644 49.6048 127.718 49.6872 127.718 49.7861C127.718 49.8932 127.644 49.9674 127.536 49.9674Z" fill="#F0A941"/>
<path d="M127.536 59.3527H114.716C114.617 59.3527 114.534 59.2703 114.534 59.1714C114.534 59.0726 114.617 58.9902 114.716 58.9902H127.536C127.644 58.9902 127.718 59.0726 127.718 59.1714C127.718 59.2703 127.644 59.3527 127.536 59.3527Z" fill="#F0A941"/>
<path d="M124.843 52.6536H117.409C117.31 52.6536 117.227 52.5712 117.227 52.4723C117.227 52.3652 117.31 52.291 117.409 52.291H124.843C124.942 52.291 125.025 52.3652 125.025 52.4723C125.025 52.5712 124.942 52.6536 124.843 52.6536Z" fill="#F0A941"/>
<path d="M129.74 34.7316H117.326L116.829 30.2573C116.688 28.9636 117.707 27.8347 119.017 27.8347H128.05C129.359 27.8347 130.378 28.9636 130.229 30.2573L129.74 34.7316Z" fill="white"/>
<path fill-rule="evenodd" clip-rule="evenodd" d="M129.74 34.9129H117.326C117.235 34.9129 117.161 34.8387 117.144 34.7481L116.655 30.2738C116.581 29.6063 116.796 28.9389 117.244 28.4362C117.691 27.9418 118.337 27.6534 119.017 27.6534H128.05C128.729 27.6534 129.376 27.9418 129.823 28.4362C130.271 28.9389 130.486 29.6063 130.412 30.2738L129.923 34.7481C129.906 34.8387 129.831 34.9129 129.74 34.9129ZM117.492 34.5503H129.575L130.055 30.2326C130.113 29.6722 129.931 29.1037 129.55 28.6834C129.168 28.255 128.622 28.016 128.05 28.016H119.017C118.445 28.016 117.898 28.255 117.517 28.6834C117.136 29.1037 116.953 29.6722 117.011 30.2326L117.492 34.5503Z" fill="black"/>
<path d="M127.561 33.817C127.461 33.817 127.378 33.7346 127.378 33.6357V29.8782C127.378 29.7794 127.461 29.697 127.561 29.697C127.66 29.697 127.743 29.7794 127.743 29.8782V33.6357C127.743 33.7346 127.66 33.817 127.561 33.817Z" fill="black"/>
<path d="M125.945 33.817C125.846 33.817 125.763 33.7346 125.763 33.6357V29.8782C125.763 29.7794 125.846 29.697 125.945 29.697C126.044 29.697 126.127 29.7794 126.127 29.8782V33.6357C126.127 33.7346 126.044 33.817 125.945 33.817Z" fill="black"/>
<path d="M120.55 33.817C120.451 33.817 120.368 33.7346 120.368 33.6357V29.8782C120.368 29.7794 120.451 29.697 120.55 29.697C120.658 29.697 120.732 29.7794 120.732 29.8782V33.6357C120.732 33.7346 120.658 33.817 120.55 33.817Z" fill="black"/>
<path d="M187.575 102.745C187.575 102.745 206.411 91.291 219.969 116.67C233.526 142.058 235.407 178.305 186.407 178.215C137.406 178.124 118.901 178.215 118.901 178.215C118.901 178.215 119.812 125.363 138.201 119.406C156.582 113.44 187.575 102.745 187.575 102.745Z" fill="white"/>
<path fill-rule="evenodd" clip-rule="evenodd" d="M186.581 178.396C186.52 178.396 186.462 178.396 186.407 178.396C137.961 178.305 119.092 178.396 118.901 178.396C118.851 178.396 118.81 178.38 118.768 178.338C118.735 178.305 118.719 178.264 118.719 178.215C118.719 178.083 118.976 164.825 121.478 151.014C122.945 142.898 124.893 136.174 127.263 131.032C130.238 124.581 133.9 120.609 138.143 119.233C156.143 113.399 186.614 102.885 187.501 102.58C187.898 102.341 194.735 98.4515 202.939 100.676C209.685 102.514 215.469 107.862 220.126 116.588C224.369 124.515 227.104 132.763 228.057 140.426C229.151 149.259 227.85 156.799 224.187 162.847C221.229 167.725 216.754 171.516 210.87 174.111C204.447 176.954 196.268 178.396 186.581 178.396ZM147.267 177.992C157.27 177.992 170.173 178 186.407 178.033C186.467 178.033 186.525 178.033 186.581 178.033C205.152 178.033 217.69 172.859 223.872 162.658C230.676 151.426 229.159 134.263 219.811 116.761C215.196 108.125 209.486 102.835 202.84 101.031C194.578 98.7811 187.741 102.86 187.675 102.901C187.664 102.907 187.65 102.912 187.633 102.918C187.327 103.025 156.433 113.687 138.259 119.579C134.116 120.922 130.528 124.828 127.594 131.181C125.241 136.298 123.301 142.989 121.835 151.08C119.506 163.976 119.125 176.377 119.092 178.033C120.426 178.025 128.986 177.992 147.267 177.992Z" fill="black"/>
<path d="M162.25 87.2781C161.396 86.6189 160.775 85.5724 160.924 84.5177C161.148 82.9933 162.764 82.1281 164.181 81.5101C166.957 80.2988 169.841 79.071 172.866 79.137C176.147 79.2194 179.164 80.8179 182.048 82.3753C186.495 84.7759 190.942 87.1765 195.39 89.577C197.337 90.6318 199.318 91.703 200.925 93.2274C202.533 94.7518 203.751 96.8118 203.784 99.0201C203.817 100.915 202.964 102.761 201.704 104.187C200.445 105.604 198.795 106.65 197.08 107.466C194.362 108.768 191.37 109.567 188.354 109.543C185.337 109.51 182.296 108.62 179.893 106.807C176.744 104.434 174.946 100.759 172.791 97.471C171.39 95.3368 169.791 93.3262 168.034 91.4722C167.197 90.5823 166.286 89.4946 165.275 88.8025C164.347 88.1598 163.17 87.9867 162.25 87.2781Z" fill="black"/>
<path d="M175.799 91.0602L180.556 98.9954L184.376 99.3332C184.376 99.3332 182.503 104.203 175.799 104.261C169.103 104.318 170.288 99.737 170.288 99.737L172.75 99.4074L170.181 94.9495C170.181 94.9495 173.91 90.1209 175.799 91.0602Z" fill="white"/>
<path d="M170.819 99.8276C170.728 99.8276 170.653 99.7617 170.645 99.671C170.628 99.5722 170.703 99.4815 170.802 99.465L172.725 99.2343C172.824 99.2178 172.916 99.292 172.932 99.3909C172.94 99.4898 172.874 99.5804 172.775 99.5886L170.844 99.8276C170.838 99.8276 170.83 99.8276 170.819 99.8276Z" fill="black"/>
<path d="M173.57 101.014C173.504 101.014 173.446 100.981 173.412 100.924L170.023 95.0402C169.99 94.9742 169.99 94.9001 170.04 94.8424C170.189 94.6364 173.885 89.8984 175.882 90.8954C175.973 90.9449 176.015 91.052 175.965 91.1426C175.923 91.2333 175.816 91.2662 175.725 91.225C174.316 90.5246 171.473 93.5982 170.404 94.966L173.727 100.75C173.777 100.833 173.752 100.948 173.661 100.998C173.633 101.009 173.603 101.014 173.57 101.014Z" fill="black"/>
<path d="M174.912 92.4198C174.912 92.4198 173.835 97.1166 170.181 96.5234C166.526 95.9301 165.308 88.1845 165.324 86.141C165.324 86.141 169.542 85.7125 171.109 86.8331C172.683 87.9538 172.153 90.2774 173.877 90.4834C173.877 90.4834 174.755 86.5942 177.026 87.9373C179.288 89.2804 177.556 92.6753 174.912 92.4198Z" fill="white"/>
<path fill-rule="evenodd" clip-rule="evenodd" d="M170.802 96.7541C170.592 96.7541 170.377 96.7376 170.156 96.7046C166.336 96.0866 165.126 88.201 165.142 86.141C165.142 86.0503 165.217 85.9679 165.308 85.9597C165.482 85.9432 169.609 85.5312 171.217 86.6848C171.979 87.2286 172.277 88.0279 172.534 88.7366C172.816 89.5029 173.04 90.1209 173.736 90.2774C173.885 89.7336 174.424 88.0691 175.518 87.5994C176.015 87.3852 176.553 87.4511 177.117 87.7807C178.095 88.3658 178.476 89.404 178.12 90.4917C177.747 91.6206 176.587 92.6835 175.053 92.6094C174.838 93.3757 173.711 96.7541 170.802 96.7541ZM165.507 86.3058C165.557 88.4646 166.775 95.79 170.214 96.3421C173.653 96.8942 174.697 92.5599 174.739 92.3786C174.755 92.288 174.838 92.2303 174.929 92.2386C176.355 92.3704 177.432 91.4063 177.772 90.3763C178.078 89.4452 177.763 88.5882 176.926 88.0938C176.462 87.8219 176.048 87.7642 175.658 87.929C174.54 88.407 174.059 90.4999 174.051 90.5246C174.026 90.6153 173.943 90.6812 173.852 90.6647C172.808 90.5411 172.509 89.7254 172.194 88.8684C171.938 88.1762 171.672 87.4594 171.009 86.9814C169.684 86.0338 166.294 86.2398 165.507 86.3058Z" fill="black"/>
<path d="M174.954 91.2662C174.926 91.2662 174.899 91.2607 174.871 91.2498C174.788 91.2086 174.747 91.0932 174.796 91.0026C175.07 90.4505 175.567 90.0138 176.155 89.7995C176.247 89.7583 176.354 89.8078 176.387 89.9066C176.421 89.9973 176.371 90.1044 176.28 90.1374C175.783 90.3186 175.36 90.6977 175.12 91.1674C175.086 91.2333 175.02 91.2662 174.954 91.2662Z" fill="black"/>
<path d="M150.847 121.367C150.847 121.367 114.99 107.186 100.661 112.773C86.3416 118.359 88.6205 130.258 97.3798 145.411C106.139 160.565 115.851 175.38 115.851 175.38L115.031 175.957C114.037 176.657 114.534 178.215 115.752 178.215H123.393C126.641 178.215 129.74 176.905 132.003 174.589L138.69 167.733C140.157 166.234 140.298 163.885 139.022 162.213L124.08 142.7L150.847 121.367Z" fill="white"/>
<path fill-rule="evenodd" clip-rule="evenodd" d="M123.393 178.396H115.752C115.114 178.396 114.584 178.009 114.385 177.399C114.194 176.797 114.41 176.171 114.923 175.809L115.603 175.331C114.567 173.749 105.418 159.691 97.2224 145.502C90.9326 134.617 88.9272 126.929 90.9161 121.301C92.2751 117.461 95.4407 114.61 100.595 112.6C106.57 110.268 116.863 111.009 131.174 114.8C141.815 117.61 150.823 121.161 150.914 121.194C150.972 121.219 151.013 121.276 151.03 121.334C151.038 121.4 151.013 121.466 150.963 121.507L124.337 142.733L139.163 162.106C140.505 163.861 140.364 166.283 138.815 167.865L132.135 174.721C129.857 177.053 126.666 178.396 123.393 178.396ZM109.222 111.66C105.766 111.66 102.916 112.089 100.728 112.937C95.6728 114.915 92.5817 117.684 91.2558 121.416C89.3084 126.945 91.3055 134.534 97.5373 145.321C106.189 160.293 115.901 175.133 116.001 175.281C116.059 175.364 116.034 175.471 115.951 175.528L115.139 176.105C114.666 176.435 114.625 176.938 114.733 177.292C114.849 177.654 115.18 178.033 115.752 178.033H123.393C126.567 178.033 129.658 176.732 131.87 174.466L138.558 167.61C139.975 166.16 140.107 163.935 138.873 162.32L123.94 142.807C123.873 142.733 123.89 142.618 123.964 142.56L150.483 121.416C148.85 120.79 140.621 117.675 131.075 115.146C122.324 112.83 114.94 111.66 109.222 111.66Z" fill="black"/>
<path d="M115.851 175.561C115.768 175.561 115.694 175.512 115.677 175.43C115.644 175.331 115.702 175.232 115.802 175.207C128.207 171.738 136.428 159.51 136.511 159.386C136.569 159.304 136.685 159.279 136.768 159.337C136.851 159.386 136.875 159.502 136.817 159.584C136.735 159.708 128.439 172.051 115.901 175.553C115.885 175.559 115.868 175.561 115.851 175.561Z" fill="black"/>
<path d="M99.443 178.215H71.4827C70.1568 178.215 69.5353 176.591 70.5214 175.71L78.1206 168.978C78.1206 168.978 85.1562 131.469 100.661 122.685C117.956 112.88 150.847 121.367 150.847 121.367L177.307 134.625C177.307 134.625 166.41 161.586 115.42 143.994L103.346 175.545C102.725 177.152 101.175 178.215 99.443 178.215Z" fill="white"/>
<path fill-rule="evenodd" clip-rule="evenodd" d="M99.4431 178.396H71.4829C70.7951 178.396 70.215 178 69.9664 177.358C69.7178 176.715 69.8918 176.031 70.4056 175.578L77.955 168.887C78.1125 168.055 79.9025 158.999 83.4078 149.062C86.7889 139.478 92.5152 127.094 100.57 122.529C109.545 117.436 122.754 117.346 132.251 118.17C142.535 119.052 150.806 121.169 150.889 121.186C150.905 121.191 150.919 121.197 150.93 121.202L177.39 134.469C177.473 134.51 177.506 134.609 177.473 134.699C177.448 134.765 174.623 141.547 165.565 146.07C160.261 148.716 153.88 150.083 146.604 150.133C137.563 150.19 127.113 148.205 115.528 144.216L103.512 175.611C102.874 177.275 101.241 178.396 99.4431 178.396ZM123.658 118.145C115.802 118.145 107.175 119.2 100.752 122.842C92.797 127.349 87.1121 139.66 83.7476 149.185C80.1013 159.526 78.3196 168.92 78.3031 169.011C78.2948 169.052 78.2699 169.085 78.2451 169.11L70.6459 175.85C70.1653 176.27 70.157 176.839 70.3061 177.226C70.4553 177.613 70.8448 178.033 71.4829 178.033H99.4431C101.092 178.033 102.592 177.003 103.172 175.479L115.255 143.928C115.288 143.837 115.387 143.788 115.487 143.821C141.74 152.877 157.112 149.877 165.374 145.757C173.57 141.679 176.595 135.738 177.067 134.716L150.781 121.532C150.333 121.425 142.229 119.389 132.218 118.532C129.591 118.302 126.682 118.145 123.658 118.145Z" fill="black"/>
<path d="M101.913 176.048C101.896 176.048 101.879 176.045 101.863 176.039L80.035 169.513C79.9356 169.48 79.8776 169.381 79.9107 169.283C79.9356 169.184 80.0433 169.134 80.1345 169.159L101.962 175.693C102.062 175.726 102.12 175.825 102.087 175.924C102.062 175.998 101.996 176.048 101.913 176.048Z" fill="black"/>
<path d="M140.182 114.536C137.721 108.966 146.215 105.9 148.104 104.689L155.77 116.431C155.77 116.431 143.571 122.24 140.182 114.536Z" fill="white"/>
<path fill-rule="evenodd" clip-rule="evenodd" d="M147.135 118.722C145.966 118.722 144.814 118.565 143.754 118.17C142.03 117.535 140.77 116.341 140.008 114.61C137.878 109.765 143.613 106.823 146.696 105.241C147.242 104.969 147.715 104.722 148.005 104.541C148.088 104.483 148.204 104.508 148.254 104.59L155.927 116.332C155.952 116.382 155.96 116.431 155.952 116.481C155.936 116.53 155.902 116.571 155.853 116.596C155.621 116.703 151.328 118.722 147.135 118.722ZM148.046 104.936C147.748 105.118 147.35 105.315 146.861 105.571C143.886 107.095 138.351 109.93 140.348 114.462C141.069 116.102 142.254 117.23 143.878 117.832C148.187 119.422 154.353 116.868 155.505 116.357L148.046 104.936Z" fill="black"/>
<path d="M190.749 100.833C189.373 99.9924 187.094 99.531 184.376 99.3332C184.376 99.3332 182.503 104.203 175.799 104.261C169.103 104.318 170.288 99.737 170.288 99.737C168.382 99.9182 166.601 100.116 165.084 100.289C157.096 101.237 147.068 104.458 147.068 104.458L154.643 115.879L149.936 121.458C156.391 130.851 176.785 135.474 176.785 135.474C182.006 129.055 184.857 117.783 184.857 117.783L185.992 119.818L203.337 117.972C203.337 117.972 197.304 104.862 190.749 100.833Z" fill="#F0A941"/>
<path d="M184.376 117.354C184.31 117.354 184.244 117.321 184.219 117.255L182.064 112.904C181.965 112.69 181.84 112.451 181.65 112.319C181.501 112.212 181.26 112.196 181.161 112.328C181.103 112.41 180.987 112.427 180.904 112.369C180.821 112.303 180.813 112.188 180.871 112.113C181.103 111.809 181.567 111.817 181.857 112.023C182.131 112.204 182.271 112.501 182.396 112.74L184.542 117.099C184.583 117.189 184.55 117.296 184.459 117.338C184.432 117.349 184.404 117.354 184.376 117.354Z" fill="black"/>
<path d="M160.493 107.054C160.477 107.054 160.46 107.051 160.444 107.046C160.344 107.021 160.294 106.914 160.319 106.823L161.082 104.384C161.107 104.285 161.214 104.236 161.305 104.261C161.405 104.294 161.463 104.393 161.43 104.491L160.667 106.93C160.643 107.005 160.576 107.054 160.493 107.054Z" fill="black"/>
<path d="M160.701 118.335C160.684 118.335 160.667 118.332 160.651 118.326C158.372 117.733 156.59 115.69 156.317 113.366C156.043 111.034 157.311 108.644 159.391 107.54C159.482 107.499 159.59 107.532 159.64 107.623C159.681 107.705 159.648 107.82 159.565 107.862C157.609 108.892 156.424 111.141 156.681 113.325C156.93 115.508 158.604 117.42 160.742 117.972C160.841 117.997 160.899 118.104 160.875 118.195C160.858 118.277 160.783 118.335 160.701 118.335Z" fill="black"/>
<path d="M163.609 134.856H171.855C172.667 134.856 173.322 134.205 173.322 133.397V121.268H162.134V133.397C162.134 134.205 162.797 134.856 163.609 134.856Z" fill="white"/>
<path d="M171.83 135.037H163.626C162.706 135.037 161.952 134.296 161.952 133.381V130.382C161.952 130.283 162.035 130.2 162.134 130.2C162.242 130.2 162.316 130.283 162.316 130.382V133.381C162.316 134.098 162.905 134.675 163.626 134.675H171.83C172.186 134.675 172.509 134.543 172.758 134.296C172.832 134.23 172.94 134.23 173.015 134.296C173.089 134.37 173.089 134.485 173.015 134.551C172.7 134.872 172.277 135.037 171.83 135.037Z" fill="black"/>
<path d="M173.802 120.403H161.654C161.554 120.403 161.471 120.32 161.471 120.222C161.471 120.114 161.554 120.04 161.654 120.04H173.802C173.91 120.04 173.985 120.114 173.985 120.222C173.985 120.32 173.91 120.403 173.802 120.403Z" fill="white"/>
<path d="M166.593 119.67C166.587 119.67 166.584 119.67 166.584 119.67C165.424 119.645 164.355 118.689 164.189 117.552C164.082 116.761 164.363 115.871 164.993 115.047C165.35 114.569 165.789 114.157 166.203 113.753C166.394 113.572 166.593 113.382 166.783 113.185C167.239 112.715 167.869 111.99 168.068 111.125C168.258 110.284 167.968 109.435 167.363 109.04C167.28 108.99 167.256 108.875 167.314 108.793C167.372 108.71 167.479 108.686 167.562 108.735C168.291 109.205 168.648 110.218 168.424 111.199C168.209 112.163 167.537 112.937 167.048 113.44C166.858 113.638 166.651 113.827 166.46 114.017C166.046 114.412 165.631 114.816 165.283 115.261C164.712 116.011 164.455 116.802 164.554 117.502C164.687 118.475 165.607 119.282 166.593 119.307C166.692 119.307 166.775 119.389 166.775 119.488C166.767 119.587 166.684 119.67 166.593 119.67Z" fill="white"/>
<path d="M168.714 114.874C168.664 114.874 168.614 114.857 168.581 114.816C168.507 114.742 168.515 114.627 168.589 114.561C169.269 113.918 170.114 113.053 170.578 111.973C171.051 110.902 171.042 109.749 170.578 108.892C170.313 108.422 169.907 108.018 169.509 107.631L169.41 107.532C168.962 107.087 168.507 106.609 168.258 106.008C167.976 105.307 168.059 104.549 168.482 104.071C168.548 103.997 168.664 103.989 168.739 104.055C168.813 104.121 168.822 104.236 168.755 104.31C168.424 104.681 168.366 105.299 168.598 105.868C168.813 106.411 169.244 106.856 169.667 107.277L169.766 107.375C170.181 107.779 170.612 108.199 170.893 108.719C171.415 109.674 171.424 110.943 170.918 112.122C170.421 113.259 169.542 114.165 168.838 114.824C168.805 114.857 168.755 114.874 168.714 114.874Z" fill="white"/>
<path fill-rule="evenodd" clip-rule="evenodd" d="M174.125 133.216H173.321C173.222 133.216 173.139 133.134 173.139 133.035V122.908C173.139 122.809 173.222 122.727 173.321 122.727H174.125C175.716 122.727 177.009 124.012 177.009 125.594V130.349C177.009 131.931 175.716 133.216 174.125 133.216ZM173.504 132.854H174.125C175.518 132.854 176.645 131.725 176.645 130.349V125.594C176.645 124.21 175.518 123.089 174.125 123.089H173.504V132.854Z" fill="white"/>
<path d="M187.277 119.686L188.967 124.762C188.967 124.762 176.139 123.699 175.261 123.831C173.355 124.111 174.059 125.528 174.059 125.528C174.059 125.528 173.172 126.542 174.283 127.572C174.283 127.572 173.139 128.569 174.283 129.978C174.283 129.978 173.048 131.09 174.059 132.318C175.062 133.546 182.247 134.337 189.862 135.894C197.486 137.46 206.353 137.863 206.362 128.907C206.362 124.111 202.74 118.038 202.74 118.038L187.277 119.686Z" fill="white"/>
<path d="M197.229 136.957C195.158 136.957 192.705 136.66 189.829 136.075C187.459 135.589 185.097 135.169 183.009 134.806C178.161 133.949 174.647 133.331 173.918 132.433C173.015 131.329 173.736 130.307 174.042 129.961C173.197 128.808 173.744 127.91 174.026 127.58C173.181 126.674 173.653 125.784 173.852 125.503C173.777 125.297 173.653 124.836 173.877 124.408C174.092 124.004 174.548 123.748 175.236 123.649C176.064 123.526 186.788 124.399 188.71 124.556L187.103 119.744C187.07 119.645 187.119 119.546 187.219 119.513C187.31 119.48 187.418 119.529 187.443 119.628L189.141 124.704C189.166 124.762 189.15 124.828 189.116 124.869C189.075 124.918 189.017 124.951 188.959 124.943C184.525 124.572 175.965 123.905 175.286 124.004C174.722 124.086 174.357 124.284 174.2 124.572C173.993 124.968 174.217 125.446 174.225 125.446C174.25 125.512 174.241 125.594 174.192 125.644C174.167 125.685 173.438 126.542 174.407 127.44C174.44 127.473 174.465 127.522 174.465 127.572C174.457 127.629 174.44 127.671 174.399 127.712C174.357 127.745 173.404 128.61 174.424 129.862C174.482 129.937 174.473 130.044 174.399 130.11C174.357 130.151 173.313 131.123 174.2 132.203C174.846 132.994 178.658 133.669 183.075 134.444C185.164 134.815 187.525 135.235 189.904 135.721C196.757 137.122 201.307 136.817 203.818 134.782C205.384 133.513 206.171 131.543 206.179 128.907C206.179 124.21 202.624 118.195 202.583 118.129C202.533 118.046 202.566 117.931 202.649 117.881C202.732 117.832 202.848 117.857 202.898 117.947C202.939 118.005 206.544 124.111 206.544 128.907C206.536 131.65 205.699 133.727 204.05 135.062C202.483 136.331 200.254 136.957 197.229 136.957Z" fill="black"/>
<path d="M192.846 125.685C192.835 125.685 192.824 125.685 192.813 125.685L189.481 125.026C189.39 125.009 189.324 124.91 189.34 124.811C189.357 124.721 189.456 124.655 189.556 124.671L192.879 125.33C192.978 125.347 193.045 125.446 193.028 125.536C193.012 125.627 192.929 125.685 192.846 125.685Z" fill="black"/>
<path d="M140.041 111.009C141.74 106.757 151.809 90.0962 152.96 88.9261C158.206 83.5866 164.91 81.164 171.548 84.3611C171.548 84.3611 171.855 86.6683 170.371 86.6354C170.371 86.6354 169.998 88.58 167.86 87.8796C167.86 87.8796 167.927 90.4999 165.697 89.9149C165.697 89.9149 164.471 92.288 162.292 91.3322C162.292 91.3322 153.292 112.385 152.621 115.484L140.041 111.009Z" fill="white"/>
<path d="M152.621 115.665C152.604 115.665 152.59 115.665 152.579 115.665C152.48 115.64 152.422 115.541 152.438 115.442C152.521 115.063 152.728 114.404 153.06 113.473C153.093 113.382 153.201 113.333 153.292 113.366C153.391 113.399 153.441 113.506 153.408 113.597C153.076 114.511 152.878 115.154 152.795 115.525C152.778 115.607 152.704 115.665 152.621 115.665Z" fill="black"/>
<path d="M140.041 111.191C140.019 111.191 139.997 111.188 139.975 111.182C139.875 111.141 139.834 111.042 139.867 110.943C141.566 106.724 151.568 90.0879 152.828 88.7942C158.612 82.9109 165.466 81.2299 171.631 84.1963C171.681 84.221 171.722 84.2705 171.731 84.3364C171.739 84.3941 171.913 85.7537 171.3 86.4376C171.093 86.6601 170.827 86.7919 170.512 86.8166C170.43 87.0803 170.206 87.6489 169.651 87.9785C169.211 88.2339 168.664 88.2834 168.035 88.1186C168.01 88.5388 167.869 89.3958 167.28 89.8654C166.891 90.1621 166.394 90.2527 165.789 90.1209C165.491 90.5988 164.289 92.2798 162.391 91.5711C162.002 92.4693 160.112 96.9189 158.115 101.731C158.082 101.822 157.974 101.863 157.883 101.83C157.784 101.789 157.742 101.682 157.784 101.591C159.996 96.2267 162.101 91.3157 162.126 91.2662C162.143 91.2168 162.176 91.1838 162.225 91.1674C162.267 91.1509 162.317 91.1509 162.366 91.1674C164.363 92.0408 165.491 89.9231 165.54 89.8325C165.573 89.7501 165.665 89.7171 165.747 89.7336C166.294 89.8819 166.734 89.8325 167.048 89.577C167.703 89.0662 167.678 87.8961 167.678 87.8878C167.678 87.8302 167.703 87.7725 167.753 87.7395C167.803 87.6983 167.861 87.6901 167.919 87.7066C168.54 87.9126 169.062 87.8961 169.46 87.6654C170.048 87.3193 170.189 86.6106 170.189 86.6024C170.206 86.52 170.289 86.4541 170.372 86.4541C170.653 86.4623 170.86 86.3799 171.026 86.1986C171.449 85.729 171.407 84.7814 171.383 84.4765C165.391 81.6502 158.728 83.3146 153.093 89.0497C151.941 90.2198 141.864 106.947 140.207 111.083C140.182 111.149 140.116 111.191 140.041 111.191Z" fill="black"/>
<path d="M161.703 91.3651C161.687 91.3651 161.67 91.3624 161.654 91.3569C160.204 90.9778 158.803 90.2939 157.618 89.3793C157.535 89.3216 157.519 89.2062 157.585 89.1238C157.643 89.0414 157.759 89.0332 157.842 89.0909C158.994 89.9808 160.344 90.64 161.753 91.0026C161.844 91.0273 161.902 91.1262 161.877 91.225C161.861 91.3074 161.786 91.3651 161.703 91.3651Z" fill="black"/>
<path d="M165.731 90.022C165.709 90.022 165.686 90.0193 165.664 90.0138C164.861 89.7089 164.007 89.3793 163.153 89.0497C162.292 88.7118 161.438 88.3822 160.634 88.0774C160.543 88.0444 160.493 87.9373 160.526 87.8466C160.568 87.756 160.667 87.7066 160.767 87.7395C161.571 88.0444 162.424 88.374 163.286 88.7118C164.14 89.0414 164.993 89.371 165.797 89.6677C165.888 89.7089 165.938 89.8078 165.896 89.9066C165.872 89.9808 165.805 90.022 165.731 90.022Z" fill="black"/>
<path d="M167.869 88.0114C167.847 88.0114 167.828 88.0087 167.811 88.0032C167.206 87.7972 166.361 87.5088 165.515 87.2204C164.67 86.9238 163.817 86.6354 163.22 86.4294C163.121 86.3964 163.071 86.2893 163.104 86.1986C163.137 86.0998 163.245 86.0503 163.336 86.0833C163.941 86.2975 164.786 86.5859 165.632 86.8743C166.477 87.1627 167.322 87.4511 167.927 87.6571C168.026 87.6901 168.076 87.7972 168.043 87.8878C168.018 87.9702 167.944 88.0114 167.869 88.0114Z" fill="black"/>
<path d="M170.239 86.7425C170.223 86.7425 170.203 86.7397 170.181 86.7342C169.576 86.5282 168.731 86.2398 167.886 85.9432C167.04 85.6548 166.195 85.3664 165.59 85.1604C165.491 85.1274 165.441 85.0203 165.474 84.9297C165.507 84.8308 165.615 84.7814 165.706 84.8143C166.311 85.0286 167.156 85.317 168.002 85.6054C168.847 85.8938 169.692 86.1822 170.297 86.3882C170.397 86.4211 170.446 86.5282 170.413 86.6189C170.388 86.693 170.314 86.7425 170.239 86.7425Z" fill="black"/>
<path d="M107.374 125.528H144.508C145.428 125.528 146.174 124.787 146.174 123.872C146.174 122.949 145.428 122.207 144.508 122.207H104.515L107.374 125.528Z" fill="black"/>
<path d="M107.374 125.528L134.58 125.034L124.859 102.547C124.503 101.731 123.683 101.195 122.788 101.195H97.6616C96.3854 101.195 95.5236 102.489 96.0208 103.659L104.639 123.822C105.103 124.91 106.197 125.586 107.374 125.528Z" fill="black"/>
<path d="M109.147 108.644C109.147 109.114 109.529 109.493 110.001 109.493C110.473 109.493 110.855 109.114 110.855 108.644C110.855 108.175 110.473 107.796 110.001 107.796C109.529 107.796 109.147 108.175 109.147 108.644Z" fill="#F0A941"/>
<path d="M133.519 178.396H63.2624C63.1547 178.396 63.0801 178.314 63.0801 178.215C63.0801 178.116 63.1547 178.033 63.2624 178.033H133.519C133.619 178.033 133.702 178.116 133.702 178.215C133.702 178.314 133.619 178.396 133.519 178.396Z" fill="black"/>
<path d="M169.112 77.0605C168.499 77.0605 167.885 77.0522 167.28 77.0358C167.181 77.0358 167.106 76.9534 167.106 76.8545C167.106 76.7474 167.189 76.6732 167.289 76.6732C167.894 76.6897 168.507 76.6979 169.112 76.6979C169.211 76.6979 169.294 76.7803 169.294 76.8792C169.294 76.9781 169.211 77.0605 169.112 77.0605ZM170.935 77.044C170.836 77.044 170.753 76.9698 170.753 76.871C170.753 76.7638 170.836 76.6814 170.935 76.6814C171.548 76.6732 172.161 76.6485 172.75 76.6238C172.849 76.6155 172.94 76.6979 172.94 76.7968C172.949 76.8957 172.866 76.9781 172.766 76.9863C172.178 77.011 171.557 77.0358 170.943 77.044C170.938 77.044 170.935 77.044 170.935 77.044ZM165.466 76.9698C165.46 76.9698 165.457 76.9698 165.457 76.9698C164.836 76.9369 164.223 76.8957 163.626 76.8462C163.526 76.838 163.452 76.7556 163.46 76.6485C163.468 76.5496 163.56 76.4754 163.659 76.4837C164.247 76.5331 164.852 76.5743 165.474 76.6073C165.573 76.6073 165.648 76.6979 165.648 76.7968C165.64 76.8874 165.565 76.9698 165.466 76.9698ZM174.581 76.8792C174.49 76.8792 174.407 76.805 174.399 76.7062C174.391 76.6073 174.465 76.5249 174.565 76.5166C175.194 76.4672 175.799 76.4178 176.38 76.3518C176.479 76.3436 176.57 76.4178 176.578 76.5166C176.587 76.6155 176.52 76.7062 176.421 76.7144C175.841 76.7721 175.228 76.8298 174.598 76.8792C174.592 76.8792 174.587 76.8792 174.581 76.8792ZM161.828 76.6732C161.822 76.6732 161.814 76.6732 161.803 76.6732C161.165 76.599 160.551 76.5166 159.988 76.426C159.888 76.4095 159.822 76.3189 159.839 76.22C159.855 76.1211 159.946 76.047 160.046 76.0634C160.609 76.1541 161.214 76.2365 161.852 76.3106C161.952 76.3189 162.018 76.4095 162.01 76.5084C162.002 76.6073 161.919 76.6732 161.828 76.6732ZM178.211 76.4837C178.12 76.4837 178.045 76.4178 178.029 76.3354C178.012 76.2365 178.078 76.1376 178.178 76.1294C178.832 76.0305 179.429 75.9234 179.968 75.808C180.059 75.7833 180.158 75.8492 180.183 75.9398C180.2 76.0387 180.142 76.1376 180.042 76.1623C179.495 76.2777 178.89 76.3848 178.236 76.4837C178.225 76.4837 178.216 76.4837 178.211 76.4837ZM158.231 76.0799C158.214 76.0799 158.201 76.0772 158.19 76.0717C157.469 75.8986 156.872 75.7174 156.416 75.5196C156.325 75.4784 156.284 75.3713 156.325 75.2806C156.366 75.1818 156.474 75.1406 156.565 75.1818C156.996 75.3713 157.576 75.5526 158.272 75.7174C158.372 75.7421 158.43 75.841 158.405 75.9398C158.389 76.0222 158.314 76.0799 158.231 76.0799ZM181.758 75.6762C181.683 75.6762 181.617 75.6267 181.592 75.5526C181.551 75.4619 181.6 75.3548 181.7 75.3218C182.487 75.0334 182.935 74.7121 182.935 74.4319C182.935 74.333 183.017 74.2506 183.117 74.2506C183.225 74.2506 183.299 74.333 183.299 74.4319C183.299 74.8934 182.818 75.2971 181.824 75.6597C181.802 75.6707 181.78 75.6762 181.758 75.6762ZM155.629 74.2671C155.588 74.2671 155.546 74.2589 155.513 74.2259C155.43 74.1682 155.422 74.0529 155.48 73.9787C155.745 73.6491 156.308 73.3442 157.162 73.0723C157.261 73.0476 157.361 73.097 157.394 73.1959C157.419 73.2866 157.369 73.3854 157.27 73.4184C156.292 73.7315 155.919 74.0199 155.77 74.2012C155.737 74.2424 155.679 74.2671 155.629 74.2671ZM182.462 73.8716C182.435 73.8716 182.407 73.8634 182.379 73.8469C181.99 73.6326 181.435 73.4266 180.714 73.2371C180.614 73.2124 180.556 73.1135 180.581 73.0146C180.606 72.924 180.705 72.8663 180.805 72.891C181.551 73.0806 182.139 73.303 182.553 73.5255C182.644 73.575 182.678 73.6903 182.628 73.7727C182.595 73.8304 182.528 73.8716 182.462 73.8716ZM158.985 72.9899C158.902 72.9899 158.828 72.924 158.803 72.8416C158.786 72.7427 158.853 72.6438 158.952 72.6274C159.499 72.5202 160.104 72.4131 160.759 72.3225C160.858 72.3142 160.949 72.3802 160.966 72.479C160.982 72.5779 160.908 72.6686 160.808 72.685C160.162 72.7757 159.565 72.8746 159.018 72.9817C159.007 72.9872 158.996 72.9899 158.985 72.9899ZM178.973 72.8663C178.962 72.8663 178.951 72.8663 178.94 72.8663C178.385 72.7674 177.78 72.6768 177.142 72.6026C177.042 72.5862 176.976 72.4955 176.984 72.3966C177.001 72.2978 177.092 72.2236 177.192 72.2401C177.83 72.3225 178.443 72.4049 179.006 72.5038C179.106 72.5202 179.172 72.6191 179.156 72.718C179.139 72.8004 179.056 72.8663 178.973 72.8663ZM162.598 72.4708C162.507 72.4708 162.424 72.4049 162.416 72.3142C162.408 72.2071 162.482 72.1247 162.582 72.1082C163.162 72.0506 163.775 72.0011 164.405 71.9599C164.504 71.9599 164.587 72.0341 164.595 72.133C164.604 72.2318 164.529 72.3142 164.43 72.3225C163.808 72.3637 163.195 72.4131 162.615 72.4708C162.609 72.4708 162.604 72.4708 162.598 72.4708ZM175.352 72.4131C175.346 72.4131 175.341 72.4131 175.335 72.4131C174.747 72.3637 174.142 72.3142 173.521 72.2813C173.421 72.2813 173.346 72.1906 173.346 72.0918C173.355 71.9929 173.446 71.9187 173.545 71.9187C174.167 71.9599 174.78 72.0011 175.368 72.0506C175.468 72.0588 175.543 72.1494 175.534 72.2483C175.526 72.339 175.443 72.4131 175.352 72.4131ZM166.236 72.2236C166.137 72.2236 166.062 72.1494 166.054 72.0506C166.054 71.9517 166.129 71.8693 166.228 71.861C166.825 71.8446 167.446 71.8198 168.059 71.8116C168.159 71.8116 168.242 71.894 168.242 71.9929C168.242 72.0918 168.167 72.1742 168.068 72.1742C167.454 72.1824 166.841 72.2071 166.245 72.2236C166.245 72.2236 166.242 72.2236 166.236 72.2236ZM171.714 72.2071C171.708 72.2071 171.706 72.2071 171.706 72.2071C171.109 72.1824 170.496 72.1742 169.883 72.1659C169.783 72.1659 169.7 72.0835 169.7 71.9846C169.7 71.8858 169.783 71.8034 169.883 71.8034C169.883 71.8034 169.885 71.8034 169.891 71.8034C170.504 71.8116 171.117 71.8198 171.714 71.8446C171.813 71.8446 171.896 71.927 171.896 72.0258C171.888 72.1247 171.805 72.2071 171.714 72.2071Z" fill="black"/>
<path d="M158.032 80.7438C157.933 80.7438 157.85 80.6614 157.85 80.5625C157.85 80.4636 157.924 80.3812 158.024 80.3812C158.496 80.373 159.101 80.2988 159.805 80.1587C159.905 80.1422 159.996 80.2082 160.021 80.307C160.038 80.4059 159.971 80.4966 159.872 80.513C159.143 80.6614 158.529 80.7355 158.032 80.7438ZM161.612 80.101C161.529 80.101 161.463 80.0434 161.438 79.9692C161.413 79.8703 161.471 79.7714 161.562 79.7385C162.109 79.5902 162.698 79.4171 163.303 79.2194C163.402 79.1946 163.501 79.2441 163.535 79.343C163.568 79.4336 163.51 79.5325 163.419 79.5654C162.805 79.7632 162.209 79.9445 161.662 80.0928C161.645 80.0983 161.629 80.101 161.612 80.101ZM156.723 79.9362C156.706 79.9362 156.69 79.9335 156.673 79.928C156.574 79.9033 156.516 79.8044 156.54 79.7055C156.648 79.31 157.038 78.7991 157.701 78.2058C157.775 78.1317 157.891 78.1399 157.957 78.2141C158.024 78.2882 158.024 78.4036 157.949 78.4695C157.187 79.1534 156.955 79.5737 156.897 79.8044C156.872 79.8786 156.797 79.9362 156.723 79.9362ZM165.084 78.9886C165.01 78.9886 164.943 78.9392 164.91 78.865C164.877 78.7744 164.927 78.6673 165.018 78.6343C165.573 78.4366 166.145 78.2223 166.725 77.9916C166.816 77.9586 166.924 77.9998 166.957 78.0905C166.999 78.1894 166.949 78.2882 166.858 78.3294C166.278 78.5602 165.698 78.7744 165.142 78.9722C165.126 78.9831 165.106 78.9886 165.084 78.9886ZM168.474 77.6538C168.407 77.6538 168.341 77.6126 168.308 77.5384C168.266 77.4478 168.316 77.3406 168.407 77.3077C168.954 77.0687 169.51 76.8298 170.073 76.5743C170.164 76.5331 170.272 76.5743 170.313 76.665C170.355 76.7556 170.313 76.8627 170.222 76.9039C169.659 77.1594 169.095 77.4066 168.548 77.6373C168.526 77.6483 168.501 77.6538 168.474 77.6538ZM159.25 77.3901C159.192 77.3901 159.134 77.3654 159.101 77.3159C159.043 77.2335 159.06 77.1182 159.143 77.0605C159.598 76.7309 160.112 76.393 160.667 76.0387C160.75 75.981 160.858 76.0058 160.916 76.0964C160.966 76.1788 160.941 76.2942 160.858 76.3436C160.311 76.6897 159.805 77.0275 159.358 77.3571C159.325 77.3736 159.283 77.3901 159.25 77.3901ZM171.797 76.1541C171.73 76.1541 171.664 76.1129 171.639 76.0552C171.59 75.9646 171.631 75.8492 171.722 75.808C172.277 75.5443 172.824 75.2724 173.346 75.0005C173.438 74.9593 173.554 74.9922 173.595 75.0829C173.645 75.1735 173.603 75.2806 173.52 75.3301C172.99 75.5938 172.435 75.8657 171.88 76.1376C171.852 76.1486 171.824 76.1541 171.797 76.1541ZM162.325 75.429C162.258 75.429 162.2 75.396 162.159 75.3383C162.109 75.2559 162.142 75.1406 162.225 75.0911C162.739 74.7945 163.278 74.4978 163.825 74.2012C163.916 74.1518 164.024 74.1847 164.073 74.2754C164.123 74.366 164.09 74.4731 163.999 74.5226C163.452 74.8192 162.921 75.1158 162.416 75.4042C162.383 75.4207 162.352 75.429 162.325 75.429ZM175.045 74.4978C174.979 74.4978 174.921 74.4649 174.888 74.399C174.838 74.3166 174.871 74.2012 174.954 74.16C175.509 73.8551 176.04 73.5585 176.537 73.2618C176.628 73.2124 176.736 73.2371 176.785 73.3278C176.835 73.4102 176.81 73.5255 176.727 73.575C176.222 73.8716 175.683 74.1765 175.136 74.4731C175.103 74.4896 175.073 74.4978 175.045 74.4978ZM165.532 73.7068C165.465 73.7068 165.399 73.6656 165.366 73.6079C165.325 73.5173 165.358 73.4019 165.449 73.3607C165.979 73.0888 166.534 72.8251 167.09 72.5614C167.181 72.5202 167.289 72.5532 167.33 72.6438C167.371 72.7345 167.338 72.8416 167.247 72.891C166.692 73.1465 166.145 73.4184 165.615 73.6821C165.587 73.6986 165.559 73.7068 165.532 73.7068ZM178.186 72.6438C178.12 72.6438 178.062 72.6109 178.029 72.5614C177.971 72.479 177.995 72.3637 178.078 72.306C178.633 71.9517 179.131 71.6056 179.57 71.2842C179.653 71.2183 179.769 71.2348 179.827 71.3172C179.885 71.3996 179.868 71.515 179.794 71.5726C179.346 71.9022 178.832 72.2566 178.285 72.6109C178.252 72.6329 178.219 72.6438 178.186 72.6438ZM168.822 72.1412C168.755 72.1412 168.689 72.1082 168.656 72.0341C168.615 71.9434 168.656 71.8363 168.747 71.7951C169.311 71.5479 169.874 71.3007 170.429 71.0782C170.521 71.037 170.628 71.0782 170.67 71.1689C170.703 71.2678 170.661 71.3666 170.57 71.4078C170.015 71.6386 169.46 71.8775 168.896 72.1247C168.874 72.1357 168.849 72.1412 168.822 72.1412ZM172.186 70.7404C172.12 70.7404 172.045 70.6992 172.02 70.625C171.979 70.5344 172.029 70.4273 172.12 70.3943C172.708 70.1718 173.28 69.9576 173.835 69.7598C173.935 69.7269 174.034 69.7763 174.067 69.867C174.1 69.9658 174.051 70.0647 173.96 70.0977C173.404 70.2954 172.833 70.5097 172.253 70.7322C172.23 70.7377 172.208 70.7404 172.186 70.7404ZM181.078 70.4355C181.028 70.4355 180.979 70.419 180.946 70.3861C180.871 70.3119 180.871 70.1966 180.946 70.1306C181.633 69.455 181.733 69.0842 181.733 68.9276C181.733 68.8837 181.725 68.8425 181.708 68.804C181.666 68.7134 181.708 68.6062 181.799 68.565C181.89 68.5238 181.998 68.565 182.039 68.6557C182.078 68.7381 182.097 68.8287 182.097 68.9276C182.097 69.3149 181.807 69.7928 181.202 70.3861C181.169 70.419 181.12 70.4355 181.078 70.4355ZM175.625 69.5291C175.551 69.5291 175.476 69.4797 175.451 69.4055C175.426 69.3066 175.476 69.2078 175.576 69.1748C176.189 68.9853 176.785 68.8122 177.332 68.6722C177.432 68.6474 177.531 68.7051 177.556 68.804C177.581 68.8946 177.523 68.9935 177.424 69.0182C176.877 69.1666 176.297 69.3314 175.683 69.5209C175.667 69.5264 175.647 69.5291 175.625 69.5291ZM179.164 68.6392C179.073 68.6392 178.998 68.5733 178.982 68.4826C178.965 68.3838 179.031 68.2931 179.131 68.2766C179.893 68.1448 180.523 68.1036 180.987 68.1366C181.095 68.1448 181.169 68.2354 181.161 68.3343C181.153 68.4332 181.062 68.5156 180.962 68.4991C180.523 68.4662 179.926 68.5074 179.189 68.631C179.183 68.6365 179.175 68.6392 179.164 68.6392Z" fill="black"/>
<path d="M221.734 97.5204C191.23 89.0909 191.495 44.4218 191.495 44.4218L221.734 27.7853L251.973 44.4218C251.973 44.4218 252.114 89.8407 221.734 97.5204Z" fill="white"/>
<path fill-rule="evenodd" clip-rule="evenodd" d="M221.734 97.7017C221.718 97.7017 221.701 97.6989 221.685 97.6934C214.691 95.7653 208.74 91.7524 204 85.7784C200.213 81.0074 197.188 74.9758 195.001 67.8646C191.288 55.7518 191.313 44.529 191.313 44.4136C191.313 44.3477 191.346 44.29 191.404 44.257L221.652 27.6287C221.701 27.5958 221.768 27.5958 221.826 27.6287L252.065 44.257C252.123 44.29 252.156 44.3559 252.156 44.4136C252.164 44.529 252.148 55.9414 248.427 68.1448C246.231 75.3136 243.206 81.3535 239.419 86.0998C234.687 92.0326 228.754 95.9383 221.784 97.7017C221.768 97.7017 221.751 97.7017 221.734 97.7017ZM191.678 44.529C191.686 45.699 191.852 56.3369 195.357 67.7658C198.755 78.8568 206.097 92.9884 221.734 97.3309C237.314 93.3674 244.656 79.2194 248.07 68.0459C251.592 56.5264 251.783 45.7073 251.791 44.5207L221.734 27.9913L191.678 44.529Z" fill="black"/>
<path d="M241.797 62.657C241.797 73.6738 232.814 82.606 221.734 82.606C210.654 82.606 201.671 73.6738 201.671 62.657C201.671 51.6401 210.654 42.7079 221.734 42.7079C232.814 42.7079 241.797 51.6401 241.797 62.657Z" fill="white"/>
<path fill-rule="evenodd" clip-rule="evenodd" d="M221.734 82.7873C210.572 82.7873 201.489 73.7562 201.489 62.657C201.489 51.5494 210.572 42.5266 221.734 42.5266C232.897 42.5266 241.979 51.5494 241.979 62.657C241.979 73.7562 232.897 82.7873 221.734 82.7873ZM221.734 42.8892C210.771 42.8892 201.854 51.7554 201.854 62.657C201.854 73.5502 210.771 82.4247 221.734 82.4247C232.698 82.4247 241.615 73.5502 241.615 62.657C241.615 51.7554 232.698 42.8892 221.734 42.8892Z" fill="black"/>
<path d="M234.132 58.7842H225.629V50.3299H217.839V58.7842H209.345V66.5298H217.839V74.9758H225.629V66.5298H234.132V58.7842Z" fill="#416693"/>
<path fill-rule="evenodd" clip-rule="evenodd" d="M225.629 75.157H217.84C217.74 75.157 217.657 75.0746 217.657 74.9758V66.711H209.345C209.246 66.711 209.163 66.6286 209.163 66.5298V58.7842C209.163 58.677 209.246 58.6029 209.345 58.6029H217.657V50.3299C217.657 50.231 217.74 50.1486 217.84 50.1486H225.629C225.729 50.1486 225.812 50.231 225.812 50.3299V58.6029H234.132C234.231 58.6029 234.314 58.677 234.314 58.7842V66.5298C234.314 66.6286 234.231 66.711 234.132 66.711H225.812V74.9758C225.812 75.0746 225.729 75.157 225.629 75.157ZM218.022 74.7945H225.447V66.5298C225.447 66.4226 225.53 66.3485 225.629 66.3485H233.949V58.9654H225.629C225.53 58.9654 225.447 58.883 225.447 58.7842V50.5112H218.022V58.7842C218.022 58.883 217.939 58.9654 217.84 58.9654H209.528V66.3485H217.84C217.939 66.3485 218.022 66.4226 218.022 66.5298V74.7945Z" fill="#416693"/>
</g>
<defs>
<clipPath id="clip0_2002_2923">
<rect width="280" height="189" fill="white"/>
</clipPath>
</defs>
</svg>
