<svg width="20" height="20" viewBox="0 0 20 20" fill="none" xmlns="http://www.w3.org/2000/svg">
<g id="fi_4526826">
<g id="Group">
<path id="Vector" d="M15.1013 11.4252C15.2725 11.8204 15.3721 12.304 15.3941 12.8632C15.9719 12.9956 16.4043 13.5124 16.4043 14.1296C16.4043 14.8464 15.8211 15.4296 15.1043 15.4296C14.3875 15.4296 13.8043 14.8464 13.8043 14.1296C13.8043 13.5194 14.2273 13.008 14.7949 12.8682C14.7699 12.3128 14.6371 11.4678 14.0935 11.0506C13.8161 10.9788 13.5309 10.9268 13.2383 10.9C13.2167 11.873 10.0007 14.2742 10.0007 14.2742C10.0007 14.2742 6.78366 11.8734 6.76186 10.9004C6.43686 10.93 6.12066 10.9894 5.81526 11.075C5.41866 11.389 5.21346 11.974 5.20286 12.8244C5.31946 12.8914 5.41366 12.996 5.47146 13.1226C5.89866 13.3244 6.27606 13.7488 6.56506 14.353C6.61346 14.4546 6.61986 14.5694 6.58426 14.6742C6.75746 15.12 6.85646 15.6072 6.85646 16.0164C6.85646 16.5898 6.85646 17.132 6.23146 17.2712C6.16386 17.3274 6.07906 17.3584 5.99006 17.3584H5.57246C5.36306 17.3584 5.19266 17.1876 5.19266 16.9788L5.19306 16.964C5.20106 16.762 5.37006 16.599 5.57246 16.599H5.99006C6.03286 16.599 6.07466 16.6062 6.11506 16.6202C6.14026 16.6132 6.14826 16.6074 6.14846 16.6072C6.19486 16.5248 6.19486 16.1816 6.19486 16.0168C6.19486 15.6844 6.11166 15.283 5.96586 14.91C5.89026 14.867 5.82906 14.802 5.79146 14.7234C5.53826 14.1932 5.19386 13.8508 4.91426 13.8508C4.62826 13.8508 4.26666 14.2212 4.01446 14.7716C3.97326 14.8614 3.90106 14.9344 3.81226 14.9782C3.68046 15.335 3.60806 15.7024 3.60806 16.0166C3.60806 16.155 3.60806 16.5222 3.66086 16.6086C3.66146 16.6086 3.67326 16.6158 3.70646 16.624C3.74966 16.6074 3.79606 16.5988 3.84246 16.5988H4.26086C4.45586 16.5988 4.61886 16.7472 4.63846 16.9402L4.64046 16.9636C4.64046 17.1878 4.47006 17.3586 4.26086 17.3586H3.84246C3.75946 17.3586 3.67926 17.3308 3.61326 17.2804C3.37426 17.2354 3.20586 17.13 3.09926 16.9584C2.97006 16.751 2.94646 16.4786 2.94646 16.0166C2.94646 15.6114 3.04006 15.1446 3.21006 14.6988C3.18506 14.6034 3.19346 14.5038 3.23506 14.414C3.41206 14.0268 3.63726 13.6952 3.88606 13.4554C4.02286 13.3236 4.16986 13.2176 4.32366 13.1402C4.38126 13.0054 4.48126 12.8948 4.60346 12.825C4.60986 12.292 4.69186 11.8318 4.84346 11.4524C3.10786 12.3328 1.91846 14.1334 1.91846 16.2128C1.91846 18.87 3.85986 19 6.40126 19C6.67866 19 6.96266 18.9984 7.25286 18.9984H12.7463C13.0361 18.9984 13.3201 19 13.5975 19C16.1393 19 18.0815 18.87 18.0815 16.2128C18.0813 14.1114 16.8665 12.295 15.1013 11.4252Z" fill="white"/>
<path id="Vector_2" d="M10.0015 11.5984C12.4583 11.5984 14.4497 7.9042 14.4497 5.4476C14.4497 2.9914 12.4583 1 10.0015 1C7.54511 1 5.55371 2.9914 5.55371 5.4476C5.55371 7.9042 7.54511 11.5984 10.0015 11.5984Z" fill="white"/>
<path id="Vector_3" d="M15.1039 14.7296C15.4353 14.7296 15.7039 14.461 15.7039 14.1296C15.7039 13.7982 15.4353 13.5296 15.1039 13.5296C14.7725 13.5296 14.5039 13.7982 14.5039 14.1296C14.5039 14.461 14.7725 14.7296 15.1039 14.7296Z" fill="white"/>
</g>
</g>
</svg>
