<svg width="25" height="24" viewBox="0 0 25 24" fill="none" xmlns="http://www.w3.org/2000/svg">
<g id="01 align center">
<path id="Vector" d="M12.5 24C10.1266 24 7.80655 23.2962 5.83316 21.9776C3.85977 20.6591 2.3217 18.7849 1.41345 16.5922C0.505199 14.3995 0.267559 11.9867 0.730582 9.65892C1.1936 7.33115 2.33649 5.19295 4.01472 3.51472C5.69295 1.83649 7.83115 0.693605 10.1589 0.230582C12.4867 -0.232441 14.8995 0.00519943 17.0922 0.913451C19.2849 1.8217 21.1591 3.35977 22.4776 5.33316C23.7962 7.30655 24.5 9.62663 24.5 12C24.4966 15.1815 23.2312 18.2318 20.9815 20.4815C18.7318 22.7312 15.6815 23.9966 12.5 24ZM12.5 2.00001C10.5222 2.00001 8.58879 2.5865 6.9443 3.68531C5.29981 4.78412 4.01809 6.34591 3.26121 8.17317C2.50433 10.0004 2.3063 12.0111 2.69215 13.9509C3.078 15.8907 4.03041 17.6725 5.42894 19.0711C6.82746 20.4696 8.60929 21.422 10.5491 21.8079C12.4889 22.1937 14.4996 21.9957 16.3268 21.2388C18.1541 20.4819 19.7159 19.2002 20.8147 17.5557C21.9135 15.9112 22.5 13.9778 22.5 12C22.4971 9.34873 21.4426 6.80689 19.5679 4.93215C17.6931 3.05742 15.1513 2.00292 12.5 2.00001Z" fill="#416693"/>
<path id="Vector_2" d="M8.44674 15.598L7.38574 13.902L11.4997 11.325V6H13.4997V12.433L8.44674 15.598Z" fill="#416693"/>
</g>
</svg>
