<svg width="24" height="24" viewBox="0 0 24 24" fill="none" xmlns="http://www.w3.org/2000/svg">
<g id="trash 1" clip-path="url(#clip0_839_7691)">
<path id="Vector" d="M17 4V2C17 1.46957 16.7893 0.960859 16.4142 0.585786C16.0391 0.210714 15.5304 0 15 0L9 0C8.46957 0 7.96086 0.210714 7.58579 0.585786C7.21071 0.960859 7 1.46957 7 2V4H2V6H4V21C4 21.7956 4.31607 22.5587 4.87868 23.1213C5.44129 23.6839 6.20435 24 7 24H17C17.7957 24 18.5587 23.6839 19.1213 23.1213C19.6839 22.5587 20 21.7956 20 21V6H22V4H17ZM11 17H9V11H11V17ZM15 17H13V11H15V17ZM15 4H9V2H15V4Z" fill="#F04141"/>
</g>
<defs>
<clipPath id="clip0_839_7691">
<rect width="24" height="24" fill="white"/>
</clipPath>
</defs>
</svg>
