<svg width="24" height="24" viewBox="0 0 24 24" fill="none" xmlns="http://www.w3.org/2000/svg">
<g id="fi_5754866">
<g id="_x35_6">
<path id="Vector" d="M18.8197 5.5519L16.1716 3.10391C15.6917 2.6479 15.0597 2.3999 14.3957 2.3999H6.96367C5.52363 2.3999 4.34766 3.57588 4.34766 5.01592V18.9839C4.34766 20.4239 5.52363 21.5999 6.96367 21.5999H17.0356C18.4756 21.5999 19.6517 20.4239 19.6517 18.9839V7.47188C19.6517 6.7439 19.3477 6.0479 18.8197 5.5519ZM9.38765 8.97588C11.5504 6.8131 11.4754 6.87746 11.5557 6.82388C11.6836 6.73589 11.8437 6.68789 11.9957 6.68789H12.0037C12.2117 6.68789 12.4117 6.77588 12.5637 6.91992C13.3974 7.75691 14.6955 9.06004 14.6117 8.97588C14.9236 9.28789 14.9236 9.79189 14.6117 10.1039C14.2997 10.4159 13.7957 10.4159 13.4836 10.1039L12.8037 9.42388V12.2479C12.8037 12.6959 12.4437 13.0479 12.0037 13.0479C11.5557 13.0479 11.2037 12.6959 11.2037 12.2479V9.42388L10.5157 10.1119C10.2163 10.4113 9.70586 10.4301 9.38765 10.1119C9.07563 9.7999 9.07563 9.28789 9.38765 8.97588ZM15.0997 17.3119H8.89966C8.45967 17.3119 8.09966 16.9519 8.09966 16.5119C8.09966 16.0719 8.45967 15.7119 8.89966 15.7119H15.0997C15.5396 15.7119 15.8997 16.0719 15.8997 16.5119C15.8997 16.9519 15.5396 17.3119 15.0997 17.3119Z" fill="white"/>
</g>
</g>
</svg>
