<svg width="25" height="24" viewBox="0 0 25 24" fill="none" xmlns="http://www.w3.org/2000/svg">
<g id="pen-field (1) 2">
<path id="Vector" d="M20.45 5.53601L16.965 2.05101C15.643 0.729007 13.885 0.00100741 12.015 0.00100741H7.5C4.743 7.41426e-06 2.5 2.24301 2.5 5.00001V19C2.5 21.757 4.743 24 7.5 24H17.5C20.257 24 22.5 21.757 22.5 19V10.485C22.5 8.61501 21.772 6.85901 20.45 5.53601ZM19.036 6.95001C19.354 7.26801 19.623 7.62101 19.841 8.00001H15.5C14.949 8.00001 14.5 7.55101 14.5 7.00001V2.65901C14.879 2.87701 15.233 3.14601 15.55 3.46401L19.035 6.94901L19.036 6.95001ZM20.5 19C20.5 20.654 19.154 22 17.5 22H7.5C5.846 22 4.5 20.654 4.5 19V5.00001C4.5 3.34601 5.846 2.00001 7.5 2.00001H12.015C12.178 2.00001 12.34 2.00801 12.5 2.02301V7.00001C12.5 8.65401 13.846 10 15.5 10H20.477C20.492 10.16 20.5 10.322 20.5 10.485V19ZM16.207 14.481C16.598 14.872 16.598 15.504 16.207 15.895C16.012 16.09 15.756 16.188 15.5 16.188C15.244 16.188 14.988 16.09 14.793 15.895L13.5 14.602V19C13.5 19.552 13.052 20 12.5 20C11.948 20 11.5 19.552 11.5 19V14.602L10.207 15.895C9.816 16.286 9.184 16.286 8.793 15.895C8.402 15.504 8.402 14.872 8.793 14.481L10.407 12.867C11.561 11.713 13.439 11.713 14.594 12.867L16.208 14.481H16.207Z" fill="#416693"/>
</g>
</svg>
